<svg width="194" height="74" viewBox="0 0 194 74" fill="none" xmlns="http://www.w3.org/2000/svg">
<path d="M113 49H0V0H113V49Z" fill="#F8FDF5"/>
<path d="M0 0V49H100.275V35.8397H97.3304V22.2181H100.275V2.88235H15.7272V49H0.140443V2.87299L0 0Z" fill="url(#paint0_linear)"/>
<path d="M15.7272 49H0.140443V0H15.7272V49Z" fill="#75BEE9"/>
<path d="M14.6092 8.08668C14.6092 10.4303 12.6939 12.3302 10.3313 12.3302C7.96869 12.3302 6.05358 10.4303 6.05358 8.08668C6.05358 5.74309 7.96869 3.84314 10.3313 3.84314C12.6939 3.84314 14.6092 5.74309 14.6092 8.08668Z" fill="#6BAED5"/>
<path d="M15.727 33.7483H4.95013V12.3302L5.22327 12.6055C7.84229 15.2438 11.6214 16.9115 15.7272 17.2406V33.7483H15.727Z" fill="#269CCE"/>
<path d="M28.1925 9.53026L27.0827 25.7195H29.5771L29.3022 22.5256L43.233 26.9308L40.6793 43.0242H44.2321L45.3425 31.0057C45.3425 31.0057 50.1164 29.7942 52.448 30.6752C52.3371 33.5388 53.0032 38.3879 53.0032 38.3879L55.8898 38.3838L54.7796 30.1698L57.8882 31.336V38.3838H60.4418V32.217L61.5521 32.6575V38.3838L64.5498 38.3879V33.6387L77.3175 37.6121L75.8506 31.116L55.0019 26.277L52.8923 7.32718H50.1379L51.56 25.9395L45.9382 24.5L46.7857 7.32742H44.4541L43.1218 24.2444L29.3022 21.4596L28.1925 9.53026Z" fill="#6BAED5"/>
<path d="M17.6597 33.6387H6.503V43.1373H17.6597V33.6387Z" fill="#2495C6"/>
<path d="M41.5174 35.8397H16.4299V45.3382H41.5174V35.8397Z" fill="#2495C6"/>
<path d="M97.459 44.437H46.0416L45.9382 40.1896H97.3556L97.459 44.437Z" fill="#00ADEE"/>
<path d="M56.7678 6.2451H22.9331L22.8908 3.36275H56.7678V6.2451Z" fill="#6BAED5"/>
<path d="M113 49H100.275V0H113V49Z" fill="#75BEE9"/>
<path d="M100.275 22.2181H97.3304V35.8397H100.275V22.2181Z" fill="#6BAED5"/>
<path d="M113 22.2181H100.275V35.8397H113V22.2181Z" fill="#6BAED5"/>
<path d="M0.140443 0H0L0.140443 2.87299V0ZM100.275 0H15.7272V2.88235H100.275V0Z" fill="#00ADEE"/>
<path d="M15.7272 0H0.140443V2.87299L0.140927 2.88235H15.7272V0Z" fill="#6BAED5"/>
<path d="M113 0H100.275V2.88235H113V0Z" fill="#6BAED5"/>
<path d="M73.7525 15.3V13.8675L77.0168 10.2708C78.2253 9.00975 78.6808 8.32447 78.6808 7.4528C78.6808 6.50306 78.0059 5.91146 77.111 5.91146C76.232 5.91146 75.6039 6.34717 74.8823 7.20371L73.9249 5.98928C74.8036 4.89927 75.7143 4.27644 77.2836 4.27644C79.2457 4.27644 80.5327 5.45965 80.5327 7.26568V7.31228C80.5327 8.77604 79.8264 9.64795 78.2725 11.1583L76.1535 13.665H80.6112V15.3H73.7525Z" fill="#228FBD"/>
<path d="M85.6197 15.4713C83.1084 15.4713 81.5231 13.2603 81.5231 9.94388V9.77262C81.5231 6.45624 83.1239 4.22986 85.6354 4.22986C88.1467 4.22986 89.7475 6.44062 89.7475 9.75725V9.92851C89.7477 13.2449 88.1309 15.4713 85.6197 15.4713ZM87.8956 9.78848C87.8956 7.32839 86.9854 5.84926 85.6199 5.84926C84.2542 5.84926 83.3755 7.29716 83.3755 9.75749V9.9129C83.3755 12.373 84.2697 13.8519 85.6356 13.8519C87.0168 13.8519 87.8956 12.3886 87.8956 9.94412V9.78848Z" fill="#228FBD"/>
<path d="M94.7874 15.4713C92.2759 15.4713 90.6906 13.2603 90.6906 9.94388V9.77262C90.6906 6.45624 92.2917 4.22986 94.8029 4.22986C97.3142 4.22986 98.9155 6.44086 98.9155 9.75725V9.92851C98.9155 13.2449 97.2989 15.4713 94.7874 15.4713ZM97.0633 9.78848C97.0633 7.32839 96.1531 5.84926 94.7877 5.84926C93.422 5.84926 92.543 7.29716 92.543 9.75749V9.9129C92.543 12.373 93.4375 13.8519 94.8032 13.8519C96.1844 13.8519 97.0633 12.3886 97.0633 9.94412V9.78848Z" fill="#228FBD"/>
<path d="M103.955 15.4713C101.444 15.4713 99.8587 13.2603 99.8587 9.94388V9.77262C99.8587 6.45624 101.459 4.22986 103.971 4.22986C106.482 4.22986 108.083 6.44062 108.083 9.75725V9.92851C108.083 13.2449 106.466 15.4713 103.955 15.4713ZM106.231 9.78848C106.231 7.32839 105.321 5.84926 103.955 5.84926C102.59 5.84926 101.711 7.29716 101.711 9.75749V9.9129C101.711 12.373 102.605 13.8519 103.971 13.8519C105.352 13.8519 106.231 12.3886 106.231 9.94412V9.78848H106.231Z" fill="#228FBD"/>
<path d="M22.0505 43.0242V42.3209L23.6535 40.5549C24.2468 39.9357 24.4703 39.5992 24.4703 39.1712C24.4703 38.705 24.139 38.4146 23.6995 38.4146C23.268 38.4146 22.9598 38.6288 22.6053 39.0492L22.1353 38.453C22.5665 37.9178 23.0138 37.6121 23.7845 37.6121C24.7478 37.6121 25.3798 38.1931 25.3798 39.0797V39.1027C25.3798 39.8214 25.0328 40.2492 24.27 40.9909L23.2295 42.2214H25.4183V43.0242H22.0505Z" fill="white"/>
<path d="M27.9428 43.1085C26.7096 43.1085 25.9314 42.0228 25.9314 40.3947V40.3104C25.9314 38.6821 26.7174 37.5892 27.9503 37.5892C29.1833 37.5892 29.9696 38.6747 29.9696 40.303V40.3871C29.9696 42.0151 29.1756 43.1085 27.9428 43.1085ZM29.0601 40.3181C29.0601 39.1104 28.6131 38.3838 27.9428 38.3838C27.2721 38.3838 26.8406 39.0948 26.8406 40.3027V40.3789C26.8406 41.5868 27.2801 42.3129 27.9503 42.3129C28.6286 42.3129 29.0601 41.5945 29.0601 40.3945V40.3181Z" fill="white"/>
<path d="M32.5094 43.1085C31.2764 43.1085 30.4979 42.0228 30.4979 40.3947V40.3104C30.4979 38.6821 31.2839 37.5892 32.5172 37.5892C33.7502 37.5892 34.5362 38.6747 34.5362 40.303V40.3871C34.5362 42.0151 33.7424 43.1085 32.5094 43.1085ZM33.6267 40.3181C33.6267 39.1104 33.1797 38.3838 32.5094 38.3838C31.8389 38.3838 31.4074 39.0948 31.4074 40.3027V40.3789C31.4074 41.5868 31.8464 42.3129 32.5172 42.3129C33.1954 42.3129 33.6267 41.5945 33.6267 40.3945V40.3181Z" fill="white"/>
<path d="M37.0762 43.1085C35.843 43.1085 35.0648 42.0228 35.0648 40.3947V40.3104C35.0648 38.6821 35.8508 37.5892 37.0837 37.5892C38.3167 37.5892 39.1027 38.6747 39.1027 40.303V40.3871C39.1027 42.0151 38.3092 43.1085 37.0762 43.1085ZM38.1937 40.3181C38.1937 39.1104 37.7467 38.3838 37.0765 38.3838C36.4057 38.3838 35.9742 39.0948 35.9742 40.3027V40.3789C35.9742 41.5868 36.4135 42.3129 37.084 42.3129C37.7622 42.3129 38.1937 41.5945 38.1937 40.3945V40.3181Z" fill="white"/>
<path d="M78.7924 24.1246C75.2753 24.4155 76.1189 24.2319 73.3372 24.2319C70.5557 24.2319 71.0254 24.4731 67.6657 24.1246C67.6657 21.077 70.1564 18.6058 73.2292 18.6058C76.3017 18.6058 78.7924 21.0767 78.7924 24.1246Z" fill="#808184"/>
<path d="M194 74H76V23H194V74Z" fill="#F8FDF5"/>
<path d="M76 23V74H180.712V60.3025H177.637V46.125H180.712V26H92.4231V74H76.1467V25.9903L76 23Z" fill="url(#paint1_linear)"/>
<path d="M92.4231 74H76.1467V23H92.4231V74Z" fill="#75BEE9"/>
<path d="M91.2557 31.4168C91.2557 33.856 89.2556 35.8335 86.7884 35.8335C84.3213 35.8335 82.3214 33.856 82.3214 31.4168C82.3214 28.9775 84.3213 27 86.7884 27C89.2556 27 91.2557 28.9775 91.2557 31.4168Z" fill="#6BAED5"/>
<path d="M92.4228 58.1258H81.1692V35.8335L81.4544 36.12C84.1893 38.866 88.1356 40.6018 92.4231 40.9443V58.1258H92.4228Z" fill="#269CCE"/>
<path d="M105.44 32.9192L104.281 49.7692H106.886L106.599 46.445L121.146 51.03L118.479 67.7802H122.189L123.349 55.2712C123.349 55.2712 128.334 54.0102 130.769 54.9272C130.653 57.9077 131.348 62.9547 131.348 62.9547L134.363 62.9505L133.203 54.4012L136.45 55.615V62.9505H139.116V56.532L140.276 56.9905V62.9505L143.406 62.9547V58.0117L156.739 62.1472L155.207 55.386L133.436 50.3495L131.233 30.6262H128.356L129.841 49.9982L123.971 48.5L124.856 30.6265H122.421L121.03 48.234L106.599 45.3355L105.44 32.9192Z" fill="#6BAED5"/>
<path d="M94.4411 58.0117H82.7907V67.898H94.4411V58.0117Z" fill="#2495C6"/>
<path d="M119.354 60.3025H93.1569V70.1888H119.354V60.3025Z" fill="#2495C6"/>
<path d="M177.771 69.2508H124.079L123.971 64.83H177.663L177.771 69.2508Z" fill="#00ADEE"/>
<path d="M135.28 29.5H99.9479L99.9036 26.5H135.28V29.5Z" fill="#6BAED5"/>
<path d="M194 74H180.712V23H194V74Z" fill="#75BEE9"/>
<path d="M180.712 46.125H177.637V60.3025H180.712V46.125Z" fill="#6BAED5"/>
<path d="M194 46.125H180.712V60.3025H194V46.125Z" fill="#6BAED5"/>
<path d="M76.1467 23H76L76.1467 25.9902V23ZM180.712 23H92.4231V26H180.712V23Z" fill="#00ADEE"/>
<path d="M92.4231 23H76.1467V25.9902L76.1472 26H92.4231V23Z" fill="#6BAED5"/>
<path d="M194 23H180.712V26H194V23Z" fill="#6BAED5"/>
<path d="M153.016 38.9245V37.4335L156.425 33.69C157.687 32.3775 158.162 31.6642 158.162 30.757C158.162 29.7685 157.458 29.1527 156.523 29.1527C155.605 29.1527 154.949 29.6062 154.196 30.4977L153.196 29.2337C154.113 28.0992 155.064 27.451 156.703 27.451C158.752 27.451 160.096 28.6825 160.096 30.5622V30.6107C160.096 32.1342 159.359 33.0417 157.736 34.6137L155.523 37.2227H160.178V38.9245H153.016Z" fill="#228FBD"/>
<path d="M165.408 39.1028C162.786 39.1028 161.13 36.8015 161.13 33.3498V33.1715C161.13 29.7198 162.802 27.4025 165.425 27.4025C168.047 27.4025 169.719 29.7035 169.719 33.1555V33.3338C169.719 36.7855 168.031 39.1028 165.408 39.1028ZM167.785 33.188C167.785 30.6275 166.834 29.088 165.408 29.088C163.982 29.088 163.065 30.595 163.065 33.1558V33.3175C163.065 35.878 163.998 37.4173 165.425 37.4173C166.867 37.4173 167.785 35.8943 167.785 33.35V33.188Z" fill="#228FBD"/>
<path d="M174.982 39.1028C172.359 39.1028 170.703 36.8015 170.703 33.3498V33.1715C170.703 29.7198 172.375 27.4025 174.998 27.4025C177.62 27.4025 179.292 29.7038 179.292 33.1555V33.3338C179.292 36.7855 177.604 39.1028 174.982 39.1028ZM177.358 33.188C177.358 30.6275 176.408 29.088 174.982 29.088C173.556 29.088 172.638 30.595 172.638 33.1558V33.3175C172.638 35.878 173.572 37.4173 174.998 37.4173C176.44 37.4173 177.358 35.8943 177.358 33.35V33.188Z" fill="#228FBD"/>
<path d="M184.555 39.1028C181.933 39.1028 180.277 36.8015 180.277 33.3498V33.1715C180.277 29.7198 181.949 27.4025 184.571 27.4025C187.194 27.4025 188.865 29.7035 188.865 33.1555V33.3338C188.866 36.7855 187.177 39.1028 184.555 39.1028ZM186.931 33.188C186.931 30.6275 185.981 29.088 184.555 29.088C183.129 29.088 182.212 30.595 182.212 33.1558V33.3175C182.212 35.878 183.145 37.4173 184.572 37.4173C186.014 37.4173 186.932 35.8943 186.932 33.35V33.188H186.931Z" fill="#228FBD"/>
<path d="M99.0262 67.7802V67.0482L100.7 65.2102C101.32 64.5657 101.553 64.2155 101.553 63.77C101.553 63.2847 101.207 62.9825 100.748 62.9825C100.298 62.9825 99.9757 63.2055 99.6055 63.643L99.1147 63.0225C99.5651 62.4655 100.032 62.1472 100.837 62.1472C101.843 62.1472 102.503 62.752 102.503 63.6747V63.6987C102.503 64.4467 102.14 64.892 101.344 65.664L100.257 66.9447H102.543V67.7802H99.0262Z" fill="white"/>
<path d="M105.179 67.868C103.891 67.868 103.079 66.738 103.079 65.0435V64.9558C103.079 63.261 103.9 62.1235 105.187 62.1235C106.475 62.1235 107.296 63.2533 107.296 64.948V65.0355C107.296 66.73 106.467 67.868 105.179 67.868ZM106.346 64.9638C106.346 63.7068 105.879 62.9505 105.179 62.9505C104.479 62.9505 104.028 63.6905 104.028 64.9478V65.027C104.028 66.2843 104.487 67.04 105.187 67.04C105.895 67.04 106.346 66.2923 106.346 65.0433V64.9638Z" fill="white"/>
<path d="M109.948 67.868C108.66 67.868 107.847 66.738 107.847 65.0435V64.9558C107.847 63.261 108.668 62.1235 109.956 62.1235C111.244 62.1235 112.064 63.2533 112.064 64.948V65.0355C112.064 66.73 111.235 67.868 109.948 67.868ZM111.115 64.9638C111.115 63.7068 110.648 62.9505 109.948 62.9505C109.248 62.9505 108.797 63.6905 108.797 64.9478V65.027C108.797 66.2843 109.256 67.04 109.956 67.04C110.664 67.04 111.115 66.2923 111.115 65.0433V64.9638Z" fill="white"/>
<path d="M114.717 67.868C113.429 67.868 112.616 66.738 112.616 65.0435V64.9558C112.616 63.261 113.437 62.1235 114.725 62.1235C116.012 62.1235 116.833 63.2533 116.833 64.948V65.0355C116.833 66.73 116.004 67.868 114.717 67.868ZM115.884 64.9638C115.884 63.7068 115.417 62.9505 114.717 62.9505C114.017 62.9505 113.566 63.6905 113.566 64.9478V65.027C113.566 66.2843 114.025 67.04 114.725 67.04C115.433 67.04 115.884 66.2923 115.884 65.0433V64.9638Z" fill="white"/>
<path d="M158.279 48.1092C154.606 48.412 155.487 48.221 152.582 48.221C149.678 48.221 150.168 48.472 146.66 48.1092C146.66 44.9372 149.261 42.3652 152.469 42.3652C155.678 42.3652 158.279 44.937 158.279 48.1092Z" fill="#808184"/>
<defs>
<linearGradient id="paint0_linear" x1="-0.00602106" y1="24.4982" x2="100.269" y2="24.4982" gradientUnits="userSpaceOnUse">
<stop stop-color="#B1CEF0"/>
<stop offset="0.3563" stop-color="#CADDF5"/>
<stop offset="1" stop-color="white"/>
</linearGradient>
<linearGradient id="paint1_linear" x1="75.9937" y1="48.4982" x2="180.706" y2="48.4982" gradientUnits="userSpaceOnUse">
<stop stop-color="#B1CEF0"/>
<stop offset="0.3563" stop-color="#CADDF5"/>
<stop offset="1" stop-color="white"/>
</linearGradient>
</defs>
</svg>
