<svg width="177" height="75" viewBox="0 0 177 75" fill="none" xmlns="http://www.w3.org/2000/svg">
<g clip-path="url(#clip0)">
<path d="M36.0856 36.2636C31.4544 36.2636 27.3769 40.0104 26.9777 44.6314C26.5794 49.2524 30.0085 53 34.6404 53C39.2703 53 43.349 49.2524 43.7482 44.633C44.1481 40.0104 40.7163 36.2636 36.0856 36.2636ZM35.0064 48.764C32.7189 48.764 31.0254 46.9136 31.2227 44.633C31.4197 42.3492 33.433 40.5005 35.7201 40.5005C38.0067 40.5005 39.701 42.3492 39.5041 44.633C39.3059 46.9136 37.2921 48.764 35.0064 48.764Z" fill="#1AAFED"/>
<path d="M104.417 23.1321L95.2608 13.1315C94.2676 12.0449 92.1957 11.1582 90.6592 11.1582H82.276H79.481L80.204 2.7892C80.335 1.25553 79.185 0 77.6501 0H21.751C20.2133 0 18.8474 1.25553 18.7151 2.78927L18.6702 3.30606H11.4524C10.5373 3.30606 9.7322 4.04607 9.65376 4.95908C9.57497 5.87054 10.2515 6.61176 11.1673 6.61176H18.3863H35.3629C36.2772 6.61176 36.9553 7.35213 36.8769 8.26479C36.798 9.17744 35.9913 9.91781 35.0779 9.91781H18.1013H4.82659C3.91153 9.91781 3.10643 10.6583 3.02799 11.5708C2.94919 12.4835 3.62569 13.2235 4.54153 13.2235H17.8151H30.651C31.5654 13.2235 32.2426 13.9639 32.1637 14.8765C32.0853 15.7892 31.2786 16.5296 30.3652 16.5296H17.5291H8.13987C7.22481 16.5296 6.4197 17.27 6.34126 18.1826C6.26247 19.0944 6.93889 19.8357 7.8548 19.8357H17.2436H36.7046C37.6185 19.8357 38.297 20.5756 38.2181 21.4887C38.1397 22.4001 37.333 23.1413 36.4196 23.1413H16.9585H1.8056C0.890603 23.1413 0.0854983 23.8817 0.00663431 24.7944C-0.0718057 25.707 0.604686 26.4475 1.51975 26.4475H16.6719H26.1954C27.1097 26.4475 27.7882 27.1878 27.7093 28.1001C27.6309 29.0131 26.8242 29.7531 25.9108 29.7531H16.3872L15.3427 41.8402C15.2105 43.3752 16.3589 44.6302 17.8967 44.6302H24.8845C25.3814 38.8633 30.4885 34.1702 36.268 34.1702C42.0475 34.1702 46.3438 38.8632 45.8452 44.6302H76.5891H79.384C79.8831 38.8625 84.9909 34.1702 90.7691 34.1702C96.5466 34.1702 100.844 38.8632 100.346 44.6302H101.743C103.28 44.6302 104.648 43.3742 104.779 41.8402L105.984 27.8946C106.117 26.3601 105.41 24.2186 104.417 23.1321ZM81.1922 23.7099L82.0366 13.9479H90.4213C91.2155 13.9479 92.6016 14.541 93.116 15.1036L100.997 23.7108H81.1922V23.7099Z" fill="#1AAFED"/>
<path d="M90.5875 36.2636C85.9569 36.2636 81.8792 40.0104 81.4797 44.6314C81.0803 49.2524 84.5108 53 89.1415 53C93.7723 53 97.8506 49.2524 98.2493 44.633C98.6488 40.0104 95.2182 36.2636 90.5875 36.2636ZM89.5071 48.764C87.2208 48.764 85.5266 46.9136 85.7255 44.633C85.9228 42.3492 87.9365 40.5005 90.2228 40.5005C92.5099 40.5005 94.205 42.3492 94.0068 44.633C93.8079 46.9136 91.7925 48.764 89.5071 48.764Z" fill="#1AAFED"/>
</g>
<g clip-path="url(#clip1)">
<path d="M101.149 56.6847C96.1251 56.6847 91.7013 60.785 91.2683 65.8419C90.8362 70.8989 94.5563 75 99.5815 75C104.605 75 109.03 70.8989 109.463 65.8437C109.897 60.785 106.173 56.6847 101.149 56.6847ZM99.9786 70.3644C97.4969 70.3644 95.6596 68.3394 95.8737 65.8437C96.0874 63.3445 98.2716 61.3213 100.753 61.3213C103.234 61.3213 105.072 63.3445 104.858 65.8437C104.643 68.3394 102.458 70.3644 99.9786 70.3644Z" fill="#404041"/>
<path d="M175.283 42.3143L165.349 31.3703C164.271 30.1813 162.024 29.2109 160.357 29.2109H151.262H148.229L149.014 20.0523C149.156 18.374 147.908 17 146.243 17H85.5978C83.9295 17 82.4476 18.374 82.3041 20.0524L82.2554 20.6179H74.4247C73.432 20.6179 72.5585 21.4278 72.4734 22.4269C72.3879 23.4244 73.1218 24.2355 74.1154 24.2355H81.9474H100.365C101.357 24.2355 102.093 25.0457 102.008 26.0445C101.922 27.0432 101.047 27.8535 100.056 27.8535H81.6381H67.2364C66.2436 27.8535 65.3701 28.6638 65.285 29.6624C65.1996 30.6612 65.9335 31.471 66.9271 31.471H81.3276H95.2534C96.2454 31.471 96.9801 32.2812 96.8946 33.28C96.8095 34.2787 95.9343 35.089 94.9433 35.089H81.0174H70.831C69.8382 35.089 68.9647 35.8993 68.8796 36.8979C68.7942 37.8958 69.528 38.707 70.5217 38.707H80.7076H101.821C102.813 38.707 103.549 39.5167 103.463 40.516C103.378 41.5133 102.503 42.3245 101.512 42.3245H80.3983H63.9589C62.9662 42.3245 62.0927 43.1347 62.0072 44.1335C61.9221 45.1322 62.656 45.9425 63.6487 45.9425H80.0874H90.4195C91.4114 45.9425 92.1475 46.7527 92.0619 47.751C91.9769 48.7502 91.1017 49.56 90.1107 49.56H79.7785L78.6454 62.7873C78.5019 64.4672 79.7478 65.8406 81.4162 65.8406H88.9973C89.5364 59.5296 95.0771 54.3938 101.347 54.3938C107.618 54.3938 112.279 59.5295 111.738 65.8406H145.092H148.124C148.666 59.5288 154.207 54.3938 160.476 54.3938C166.744 54.3938 171.406 59.5295 170.866 65.8406H172.382C174.049 65.8406 175.533 64.4662 175.676 62.7873L176.983 47.5262C177.127 45.8469 176.36 43.5033 175.283 42.3143ZM150.086 42.9467L151.002 32.2638H160.099C160.96 32.2638 162.464 32.9128 163.022 33.5285L171.572 42.9476H150.086V42.9467Z" fill="#404041"/>
<path d="M160.279 56.6847C155.255 56.6847 150.831 60.785 150.398 65.8419C149.964 70.8989 153.686 75 158.71 75C163.734 75 168.159 70.8989 168.591 65.8437C169.025 60.785 165.303 56.6847 160.279 56.6847ZM159.107 70.3644C156.626 70.3644 154.788 68.3394 155.004 65.8437C155.218 63.3445 157.403 61.3213 159.883 61.3213C162.364 61.3213 164.203 63.3445 163.989 65.8437C163.773 68.3394 161.586 70.3644 159.107 70.3644Z" fill="#404041"/>
</g>
<defs>
<clipPath id="clip0">
<rect width="106" height="53" fill="white"/>
</clipPath>
<clipPath id="clip1">
<rect width="115" height="58" fill="white" transform="translate(62 17)"/>
</clipPath>
</defs>
</svg>
