<svg width="194" height="78" viewBox="0 0 194 78" fill="none" xmlns="http://www.w3.org/2000/svg">
<path d="M45.366 75.9669C70.421 75.9669 90.732 70.1601 90.732 62.997C90.732 55.8339 70.421 50.027 45.366 50.027C20.3111 50.027 0 55.8339 0 62.997C0 70.1601 20.3111 75.9669 45.366 75.9669Z" fill="#00ADEE"/>
<path d="M162.275 70.8285L182.364 59.2802L162.275 47.7313V70.8285Z" fill="#00ADEE"/>
<path d="M168.498 55.2252H47.076V63.3342H168.498V55.2252Z" fill="#00ADEE"/>
<path d="M173.911 78L194 66.4516L173.911 54.9028V78Z" fill="#404041"/>
<path d="M177.363 62.3971H45.366V70.5061H177.363V62.3971Z" fill="#404041"/>
<path d="M45.0831 0C33.2917 0 23.7327 9.51625 23.7327 21.2555C23.7327 32.9947 31.6753 47.7462 45.0836 62.8659C56.4195 47.7462 66.4345 32.9947 66.4345 21.2555C66.434 9.51625 56.875 0 45.0831 0ZM45.0831 29.9125C39.6541 29.9125 35.2529 25.5309 35.2529 20.1261C35.2529 14.7214 39.6541 10.3398 45.0831 10.3398C50.5122 10.3398 54.9134 14.7214 54.9134 20.1261C54.9134 25.5309 50.5122 29.9125 45.0831 29.9125Z" fill="#404041"/>
</svg>
