<svg width="195" height="55" viewBox="0 0 195 55" fill="none" xmlns="http://www.w3.org/2000/svg">
<path fill-rule="evenodd" clip-rule="evenodd" d="M0.965451 19.5339C1.49671 18.9603 2.29316 18.6763 3.06711 18.6913C6.86802 18.6988 10.6689 18.6886 14.4694 18.6974C15.9582 18.7581 17.5656 19.0614 18.6762 20.1287C19.9122 21.2935 20.2418 23.0786 20.2815 24.7032C20.3583 26.4439 19.8504 28.2945 18.5774 29.5407C18.0051 30.1376 17.2647 30.5513 16.4771 30.793C17.8802 32.7878 19.2477 34.8089 20.6235 36.8248C19.1448 36.8186 17.5299 36.9804 16.2172 36.1584C15.298 35.619 14.8427 34.626 14.2677 33.7799C13.8168 33.1284 13.4788 32.3561 12.7966 31.9034C12.2358 31.5148 11.532 31.4308 10.8657 31.4321C8.69963 31.4335 6.53355 31.4321 4.36747 31.4321C4.33261 32.5227 4.44424 33.6221 4.28716 34.7052C4.16449 35.5144 3.66191 36.299 2.86414 36.5856C1.95252 36.9333 0.954419 36.8041 0.000883799 36.83C0.00220754 31.9245 -0.000439943 27.0193 0.00220754 22.1129C0.0375073 21.1871 0.312404 20.221 0.965451 19.5339ZM5.41146 22.5837C4.8021 22.8957 4.38247 23.5472 4.36747 24.2307C4.35864 25.9063 4.3785 27.5829 4.35732 29.258C4.63707 28.4563 5.37925 27.7701 6.27322 27.822C8.63256 27.8246 10.9919 27.8233 13.3508 27.8233C14.0206 27.8048 14.7827 27.7516 15.2804 27.2457C15.813 26.7165 15.8801 25.9217 15.9131 25.2136C15.907 24.4386 15.8845 23.5727 15.362 22.9459C14.8581 22.3933 14.0603 22.3142 13.3557 22.3032C11.2452 22.2997 9.13515 22.3058 7.02598 22.3006C6.47884 22.294 5.89815 22.3036 5.41146 22.5837ZM24.3088 19.7287C25.0876 19.013 26.1713 18.7234 27.2091 18.6935C30.4761 18.6935 33.7417 18.6935 37.0079 18.6935C38.4843 18.7366 40.0582 18.9317 41.2844 19.8201C42.2777 20.5419 42.7075 21.7977 42.7273 22.9845C42.7335 23.9999 42.7211 25.0694 42.2627 26.0009C41.9295 26.6782 41.2174 27.0312 40.5339 27.2615C41.5532 27.571 42.6068 28.1376 43.0419 29.1653C43.5313 30.3433 43.5004 31.666 43.3353 32.9087C43.1756 34.0265 42.6541 35.1395 41.7045 35.7992C40.4487 36.6801 38.8501 36.7914 37.3626 36.8296C32.6898 36.8309 28.0183 36.8296 23.3455 36.8296C23.3455 31.9253 23.3442 27.0224 23.3455 22.1186C23.3552 21.2425 23.6637 20.3432 24.3088 19.7287ZM28.749 22.4021C28.1348 22.7204 27.7112 23.3841 27.7161 24.0799C27.7011 25.2804 27.7174 26.4809 27.7099 27.6813C28.0911 26.8215 28.8668 26.0281 29.8663 26.0083C32.1188 25.9947 34.3705 26.0057 36.6231 26.0048C37.2175 26.0259 37.8048 25.6839 38.0721 25.1534C38.415 24.4562 38.4807 23.5731 38.0955 22.8808C37.7858 22.3269 37.116 22.1195 36.5163 22.1221C34.4072 22.1085 32.298 22.1234 30.1888 22.1146C29.6977 22.1151 29.1837 22.1507 28.749 22.4021ZM28.2398 30.0479C27.8546 30.5218 27.7121 31.1398 27.7121 31.7381C27.7059 32.9038 27.7156 34.0687 27.7086 35.2344C28.0827 34.3091 28.8704 33.4357 29.9303 33.3799C32.2067 33.3636 34.4826 33.386 36.759 33.3702C37.3238 33.3333 37.9283 33.3293 38.4335 33.0396C38.8942 32.7869 39.0217 32.2216 39.0455 31.7381C39.068 31.1671 39.1051 30.5574 38.8624 30.0242C38.4785 29.3249 37.5696 29.2963 36.8671 29.2545C34.6415 29.2251 32.4149 29.251 30.1893 29.2409C29.4669 29.2224 28.6881 29.4532 28.2398 30.0479ZM47.6216 19.4895C48.584 18.8108 49.8076 18.6579 50.957 18.6763C50.9707 21.6153 50.9583 24.5538 50.9645 27.4927C53.7298 25.2905 56.3852 22.9564 59.0852 20.6764C59.7678 20.1102 60.4054 19.4465 61.2588 19.1352C62.9506 18.4333 64.8144 18.7823 66.5904 18.686C63.4867 21.5102 60.3882 24.3402 57.292 27.1719C58.8637 28.7398 60.4377 30.3069 62.0107 31.8735C63.6641 33.5364 65.3668 35.1491 67.0065 36.8256C66.0865 36.8208 65.1647 36.859 64.2474 36.7984C62.797 36.6986 61.3594 36.1694 60.247 35.2265C58.7027 33.8063 57.1618 32.3816 55.6175 30.9614C55.1617 30.5442 54.7319 30.0866 54.1847 29.7882C53.2074 29.2427 52.0707 29.0602 50.9636 29.0515C50.9588 30.6897 50.9725 32.3293 50.9575 33.968C50.935 34.9254 50.5202 35.9483 49.6421 36.4243C48.7106 36.961 47.5952 36.8041 46.567 36.8292C46.5697 31.7596 46.5635 26.6901 46.5706 21.621C46.5701 20.8008 46.9381 19.9682 47.6216 19.4895ZM1.76631 43.1229C2.87208 42.6183 4.11463 42.7356 5.29585 42.7194C6.27057 42.7282 7.32338 42.7589 8.15911 43.3238C8.52578 43.5655 8.78833 43.926 8.99262 44.3071C9.45946 43.3189 10.5396 42.8169 11.592 42.766C12.8107 42.7057 14.044 42.66 15.2566 42.8213C16.5953 43.02 17.9045 44.06 17.9826 45.479C17.9936 47.1458 17.9923 48.8135 17.9839 50.4804C17.9702 51.1155 17.2695 51.3797 16.722 51.338C16.7122 49.5318 16.7295 47.7256 16.7131 45.9194C16.7118 45.246 16.3712 44.577 15.7781 44.2367C14.8603 43.6877 13.7471 43.8148 12.7243 43.7989C11.8832 43.8112 10.9469 43.9 10.3018 44.4983C9.83011 44.9102 9.63817 45.5471 9.6342 46.1563C9.61566 47.6157 9.64523 49.0777 9.62184 50.5384C9.57595 51.1481 8.88496 51.3736 8.3612 51.3393C8.35502 49.574 8.36738 47.8069 8.35634 46.0416C8.34752 45.3532 8.02056 44.6622 7.42884 44.2886C6.61386 43.7655 5.6034 43.7963 4.67193 43.7989C3.78767 43.7853 2.82398 43.8003 2.07475 44.333C1.55319 44.6943 1.2858 45.3238 1.28359 45.9445C1.24167 47.4856 1.29992 49.0289 1.25623 50.5696C1.1746 51.1555 0.518026 51.3617 0.00309004 51.3393C-0.00176369 49.4518 0.000442552 47.5638 0.00176629 45.6763C-0.00705865 44.5629 0.754534 43.5475 1.76631 43.1229ZM22.1877 42.795C23.2749 42.6134 24.382 42.7158 25.4794 42.6899C26.7427 42.6974 28.1273 42.5787 29.2371 43.3005C30.2029 43.8987 30.5992 45.0957 30.5299 46.1849C30.4681 47.3841 30.7452 48.6843 30.1076 49.7801C29.5181 50.8412 28.2535 51.2953 27.093 51.3235C25.7256 51.3283 24.3586 51.3274 22.9925 51.3235C21.9794 51.2887 20.875 51.0149 20.2122 50.1946C19.6015 49.4509 19.5186 48.4438 19.5358 47.5212C19.5618 46.4588 19.4069 45.3238 19.921 44.3453C20.3459 43.4798 21.2562 42.9515 22.1877 42.795ZM22.3099 43.8965C21.7526 44.0236 21.2461 44.4038 21.0294 44.9392C20.7435 45.6029 20.8595 46.3396 20.8388 47.0403C20.8511 47.8091 20.7285 48.6579 21.1843 49.3353C21.6551 50.0448 22.5663 50.2755 23.3751 50.2496C24.5739 50.2421 25.7728 50.2531 26.9717 50.2448C27.7743 50.225 28.6634 49.8834 29.02 49.1159C29.4078 48.2685 29.2093 47.3159 29.2604 46.4179C29.3125 45.6183 29.1179 44.7093 28.4097 44.2328C27.4822 43.5915 26.2983 43.8086 25.238 43.7704C24.2633 43.8064 23.2687 43.671 22.3099 43.8965ZM33.2259 43.6534C33.9231 42.9699 34.9362 42.7554 35.8814 42.7308C36.9549 42.7075 38.0289 42.7273 39.1038 42.7211C40.0869 42.7246 41.145 42.8446 41.9388 43.4798C42.7498 44.1115 43.1028 45.1686 43.1015 46.1669C43.0918 47.6104 43.1116 49.0553 43.0918 50.4984C43.0657 51.1239 42.3699 51.3696 41.8333 51.341C41.8236 49.6149 41.8347 47.8891 41.8285 46.1629C41.825 45.5203 41.6132 44.8513 41.1225 44.4135C40.6146 43.9484 39.8989 43.7989 39.2278 43.7989C38.1948 43.8003 37.1619 43.8003 36.1302 43.7989C35.5173 43.7976 34.8771 43.9163 34.3816 44.2948C33.8278 44.6935 33.5507 45.3805 33.5357 46.0456C33.5172 47.5186 33.5516 48.9915 33.5207 50.4637C33.4788 51.083 32.8085 51.3555 32.2636 51.3459C32.2587 49.6223 32.2649 47.9001 32.26 46.1766C32.2539 45.2587 32.5398 44.2952 33.2259 43.6534ZM45.1286 44.8688C45.5275 43.7005 46.6791 42.9084 47.8815 42.7528C48.7905 42.6345 49.7109 42.7119 50.6248 42.6899C51.8832 42.7123 53.2294 42.5506 54.3846 43.1589C55.0138 43.4908 55.5438 44.0411 55.779 44.7172C56.0614 45.4908 55.91 46.3286 55.9475 47.1317C52.7066 47.1317 49.4665 47.1317 46.2255 47.1317C46.2343 47.9027 46.1624 48.7555 46.6204 49.4254C47.003 50.0017 47.7262 50.2408 48.3938 50.247C49.8826 50.247 51.3709 50.2483 52.861 50.2456C53.4505 50.232 54.1093 50.0087 54.4164 49.4698C54.5739 49.2206 54.6913 48.9256 54.9525 48.763C55.2411 48.5471 55.6153 48.5471 55.9594 48.5423C55.9444 49.2258 55.775 49.945 55.2905 50.4544C54.716 51.0971 53.8154 51.3314 52.9784 51.3278C51.4106 51.323 49.8437 51.3327 48.276 51.323C47.2121 51.2821 46.0058 50.9714 45.4154 50.0091C44.8418 49.1256 44.9644 48.0337 44.9561 47.0359C44.9803 46.3124 44.8625 45.5612 45.1286 44.8688ZM46.6893 44.6025C46.2335 45.1932 46.2308 45.9669 46.2149 46.6777C46.4303 46.3049 46.8181 46.0399 47.2624 46.057C49.7356 46.0447 52.2102 46.0557 54.6847 46.0522C54.6353 45.5317 54.5421 44.9862 54.2055 44.5669C53.7792 43.9994 53.0424 43.7638 52.354 43.7699C51.0338 43.7726 49.7123 43.7673 48.3907 43.7712C47.7368 43.7743 47.0718 44.0618 46.6893 44.6025ZM56.7665 42.7084C57.4142 42.7185 58.1723 42.8653 58.5226 43.4732C59.6099 45.4434 60.6839 47.4223 61.7561 49.4012C61.9035 49.6738 62.0967 49.9168 62.3032 50.1476C63.289 47.948 64.2253 45.726 65.1815 43.5123C65.4688 42.8758 66.2268 42.6855 66.8684 42.7106C65.3982 46.0205 63.9195 49.3283 62.4484 52.6395C62.0844 53.4391 61.6259 54.2954 60.7862 54.68C60.0767 55.0229 59.2679 55.0084 58.5001 54.9934C58.5226 54.6294 58.5509 54.1406 58.9573 53.9916C59.4528 53.9028 60.0048 53.9362 60.416 53.5943C61.1057 53.0255 61.4243 52.1556 61.7932 51.37C61.4031 51.1147 61.1591 50.7111 60.9446 50.3116C59.5631 47.7704 58.1485 45.2486 56.7665 42.7084Z" fill="#404041"/>
<path fill-rule="evenodd" clip-rule="evenodd" d="M70.3737 33.0656C71.5315 32.6832 72.8941 33.5948 72.9188 34.8212C73.0326 35.8463 72.2092 36.8533 71.175 36.9395C70.1645 37.0889 69.1351 36.3324 68.9815 35.3271C68.7869 34.3623 69.4126 33.3174 70.3737 33.0656Z" fill="#00ADEE"/>
<path d="M81.2614 25.7521C81.2614 22.8368 81.5068 20.9871 87.5669 16.4803C92.5839 12.7497 108.666 0 108.666 0V21.283H120.895V51.9147H85.0813C82.9805 51.9147 81.261 50.2017 81.261 48.1085L81.2614 25.7521Z" fill="#00ADEE"/>
<path d="M108.666 21.283V33.6151L86.1928 48.8667L114.606 39.6569V21.283H108.666Z" fill="#228FBD"/>
<path d="M98.396 20.6452C99.71 19.0852 101.629 18.5344 102.683 19.4153C103.737 20.2962 103.526 22.2755 102.212 23.8351C100.899 25.3947 98.9784 25.945 97.9247 25.0642C96.8714 24.1837 97.0824 22.2052 98.396 20.6452Z" fill="#231F20"/>
<path d="M137.757 5.71835H136.49C134.572 5.71835 132.718 6.98123 132.718 10.6472C132.718 14.1897 134.418 15.3299 136.49 15.3299H137.757V5.71835ZM135.778 17.3014L132.006 25.742H129.253L133.397 16.7154C131.449 15.7295 130.15 13.9431 130.15 10.6468C130.15 6.02605 133.088 3.71524 136.582 3.71524H140.138V25.7415H137.757V17.3014H135.778Z" fill="#00ADEE"/>
<path d="M186.403 17.9792C186.403 13.1114 188.29 10.0006 191.939 10.0006C193.33 10.0006 194.134 10.3703 194.814 10.8011L194.474 13.0811C193.825 12.5264 192.897 12.0029 191.907 12.0029C190.175 12.0029 188.939 13.9435 188.939 17.8557C188.939 21.7371 189.867 23.9556 191.815 23.9556C192.99 23.9556 193.887 23.4931 194.443 23.0008L195 24.7872C194.165 25.4954 193.175 25.9578 191.752 25.9578C188.413 25.9574 186.403 23.2778 186.403 17.9792ZM179.353 18.0095V25.742H176.94V10.216H179.353V17.3937L183.094 10.216H185.537L181.672 17.5172L186.094 25.7424H183.466L179.353 18.0095ZM168.004 16.562H171.993C171.993 13.9128 171.56 11.9721 170.168 11.9721C168.684 11.9721 168.158 13.7893 168.004 16.562ZM170.663 25.9574C167.447 25.9574 165.468 23.4013 165.468 18.6263C165.468 13.635 166.86 10.0002 170.168 10.0002C172.766 10.0002 174.467 11.9409 174.467 17.2082V18.5335H167.973C167.973 22.0457 168.962 23.894 170.88 23.894C172.24 23.894 173.323 23.2778 173.941 22.847L174.498 24.694C173.508 25.4646 172.209 25.9574 170.663 25.9574ZM160.396 12.1567H157.706V12.4345C157.706 15.7001 157.552 20.4742 156.253 23.771H160.396V12.1567ZM164.014 28.7917H161.85V25.742H155.17V28.7917H153.006V23.7705H153.965C155.387 20.4738 155.542 15.6688 155.542 11.5404V10.2156H162.778V23.7701H164.015V28.7917H164.014ZM151.614 10.216V25.7424H149.233V18.7801H145.646V25.742H143.234V10.216H145.646V16.8078H149.233V10.216H151.614Z" fill="#404041"/>
<path d="M138.347 30.055H133.555C133.461 35.6309 133.307 39.882 133.059 43.0552C132.781 46.3511 132.286 48.5379 131.452 49.5555H138.347V30.055ZM139.987 50.818H130.524L130.307 54.484H129.101V49.5555H129.751C130.833 48.6614 131.359 46.1972 131.668 43.0552C131.977 39.7897 132.07 34.9223 132.163 28.7921H139.893V49.556H141.41V54.4844H140.203L139.987 50.818Z" fill="#404041"/>
<path d="M144.411 42.1611H150.071C150.318 38.034 149.081 36.1856 147.504 36.1856C145.865 36.1856 144.535 38.2802 144.411 42.1611ZM147.813 49.8632C149.885 49.8632 150.967 48.2003 150.967 48.2003L151.431 49.3696C151.431 49.3696 150.256 51.1257 147.783 51.1257C144.474 51.1257 142.958 48.1375 142.958 43.0552C142.958 37.972 144.875 34.9839 147.505 34.9839C150.194 34.9839 151.926 37.7874 151.431 43.3022H144.381C144.443 47.5524 145.556 49.8632 147.813 49.8632Z" fill="#404041"/>
<path d="M160.958 43.3321H155.639V50.818H154.186V35.2916H155.639V42.1611H160.958V35.2916H162.411V50.818H160.958V43.3321Z" fill="#404041"/>
<path d="M167.299 42.1923V49.6782H168.227C170.423 49.6782 171.907 48.6008 171.907 45.9203C171.907 43.3022 170.608 42.1928 168.381 42.1928H167.299V42.1923ZM165.847 35.2916H167.299V41.0525H168.444C171.413 41.0525 173.33 42.6543 173.33 45.8895C173.33 49.1854 171.289 50.818 168.351 50.818H165.847V35.2916Z" fill="#404041"/>
<path d="M177.258 36.4933V50.818H175.837V35.2916H182.423V36.4933H177.258Z" fill="#404041"/>
<path d="M191.919 40.005C191.919 39.2037 191.98 38.5263 192.043 37.8793H191.95C191.733 38.5571 191.455 39.2041 191.115 39.8815L186.044 50.8175H184.807V35.2916H186.168V46.0733C186.168 46.9049 186.105 47.5827 186.044 48.2601H186.136C186.352 47.552 186.661 46.8742 186.971 46.1963L192.043 35.2911H193.31V50.8175H191.919V40.005Z" fill="#404041"/>
</svg>
