<svg width="195" height="68" viewBox="0 0 195 68" fill="none" xmlns="http://www.w3.org/2000/svg">
<path d="M83.8615 6.00038C82.6259 4.0844 80.8644 2.60566 78.5777 1.56321C76.2906 0.521691 73.5948 0 70.4897 0H52.3055V8.16881H55.3151V30.5917H52.3055V38.7605H55.3151V49.1416H63.4282V38.761H77.5012V30.5917H63.4282V25.5657H70.4897C73.5948 25.5657 76.2906 25.0533 78.5777 24.0277C80.8644 23.0029 82.6259 21.5237 83.8615 19.59C85.0966 17.6572 85.7148 15.3974 85.7148 12.808C85.7148 10.186 85.0966 7.91683 83.8615 6.00038ZM75.5978 17.3213C74.3284 18.3805 72.4755 18.9097 70.0387 18.9097H63.4277V6.656H70.0387C72.4755 6.656 74.3284 7.18562 75.5978 8.2444C76.8662 9.30318 77.5007 10.8244 77.5007 12.8076C77.5012 14.7581 76.8667 16.2625 75.5978 17.3213Z" fill="#00ADEE"/>
<path d="M163.401 60.7757L183.411 49.1421L163.401 37.5081V60.7757Z" fill="#00ADEE"/>
<path d="M166.84 45.0577H8.11356V53.2265H166.84V45.0577Z" fill="#00ADEE"/>
<path d="M174.99 68L195 56.3665L174.99 44.7325V68Z" fill="#404041"/>
<path d="M178.43 52.2821H5.87836V60.4509H178.43V52.2821Z" fill="#404041"/>
<path d="M49.5099 30.4965H2.86594V38.6654H49.5099V30.4965Z" fill="#404041"/>
<path d="M8.11309 30.4965H0V60.4504H8.11309V30.4965Z" fill="#404041"/>
<path d="M77.3691 6.00038C76.1335 4.0844 74.372 2.60566 72.0853 1.56321C69.7982 0.521691 67.1023 0 63.9972 0H45.813V8.16881H48.8226V30.5917H45.813V38.7605H48.8226V49.1416H56.9357V38.761H71.0087V30.5917H56.9357V25.5657H63.9972C67.1023 25.5657 69.7982 25.0533 72.0853 24.0277C74.372 23.0029 76.1335 21.5237 77.3691 19.59C78.6041 17.6572 79.2224 15.3974 79.2224 12.808C79.2219 10.186 78.6037 7.91683 77.3691 6.00038ZM69.1054 17.3213C67.836 18.3805 65.9831 18.9097 63.5463 18.9097H56.9353V6.656H63.5463C65.9831 6.656 67.836 7.18562 69.1054 8.2444C70.3738 9.30318 71.0083 10.8244 71.0083 12.8076C71.0087 14.7581 70.3743 16.2625 69.1054 17.3213Z" fill="#404041"/>
</svg>
