<svg width="200" height="40" viewBox="0 0 200 40" fill="none" xmlns="http://www.w3.org/2000/svg">
<g clip-path="url(#clip0)">
<path d="M193.68 5.81099H198.42C197.569 6.28599 196.432 7.18699 195.003 8.51199L190.265 13.354L192.865 17.074C195.584 20.948 197.962 23.904 200 25.943H193.222C192.372 23.972 191.268 21.967 189.909 19.928L186.851 15.341L189.501 11.977C191.877 8.88599 193.272 6.82999 193.68 5.81099ZM186.494 8.053V23.65L186.698 24.821C186.833 25.025 187.139 25.196 187.613 25.331V25.943H181.04V25.331L181.956 24.821C182.092 24.618 182.16 24.228 182.16 23.65V8.053L181.956 6.93199C181.821 6.69499 181.514 6.54199 181.04 6.47399V5.81099H187.613V6.47399C187.138 6.54099 186.832 6.69499 186.698 6.93199L186.494 8.053ZM176.706 8.053V23.65L176.91 24.821L177.828 25.331V25.943H171.202V25.331C171.677 25.196 172.018 25.025 172.222 24.821L172.374 23.65V15.546H164.626V23.65L164.83 24.821C164.967 25.025 165.271 25.196 165.746 25.331V25.943H159.069V25.331C159.614 25.196 159.952 25.025 160.089 24.821L160.293 23.65V8.053L160.089 6.93199C159.952 6.69499 159.614 6.54199 159.069 6.47399V5.81099H165.746V6.47399C165.27 6.54099 164.966 6.69499 164.83 6.93199L164.626 8.053V14.22H172.374V8.053L172.222 6.93199C172.018 6.69499 171.677 6.54199 171.202 6.47399V5.81099H177.828V6.47399C177.351 6.54099 177.047 6.69499 176.91 6.93199L176.706 8.053ZM199.999 32.976H52.498V30.989H200V32.976H199.999ZM144.649 6.47299V5.81099H150.459C150.525 6.72799 150.766 7.71399 151.172 8.76699L155.453 20.795C156.167 22.902 156.862 24.618 157.542 25.943H152.445L150.256 18.706H143.781L142.405 23.497L141.997 25.944H138.328L144.851 10.857C145.497 9.261 145.819 8.173 145.819 7.59599C145.82 6.94899 145.429 6.57499 144.649 6.47299ZM147.044 9.17399L144.292 17.278H149.797L147.044 9.17399ZM136.748 10.194H135.625L135.37 9.32699C135.099 8.34199 134.69 7.69599 134.147 7.38999L131.344 7.03299H128.643C128.031 7.03299 127.623 7.13499 127.419 7.33899C127.25 7.509 127.164 7.81399 127.164 8.25599V13.047H128.285C131.548 13.047 133.808 13.37 135.064 14.015C136.866 14.899 137.766 16.632 137.766 19.214C137.766 21.729 137.052 23.529 135.623 24.616C134.367 25.501 132.414 25.941 129.762 25.941H121.71V25.329L122.678 24.819L122.83 23.648V8.053L122.678 6.93199C122.542 6.69499 122.22 6.54199 121.71 6.47399V5.81099H136.746V10.194H136.748ZM127.165 14.322V22.936C127.165 23.616 127.285 24.057 127.521 24.261C127.795 24.533 128.27 24.669 128.949 24.669H129.56C130.853 24.669 131.803 24.227 132.416 23.344C132.959 22.529 133.232 21.221 133.232 19.42C133.232 17.653 132.942 16.397 132.364 15.649C131.753 14.765 130.614 14.323 128.949 14.323H127.165V14.322ZM119.929 11.57C119.929 13.915 119.215 15.596 117.786 16.616C116.563 17.5 114.66 17.941 112.078 17.941H110.039V23.649L110.242 24.82C110.345 25.024 110.667 25.195 111.21 25.33V25.942H104.584V25.33L105.502 24.82L105.706 23.649V8.053L105.502 6.93199C105.366 6.69499 105.06 6.54199 104.584 6.47399V5.81099H112.943C115.219 5.81099 116.884 6.14999 117.938 6.83099C119.266 7.71299 119.929 9.29399 119.929 11.57ZM110.346 7.23799C110.142 7.37299 110.04 7.67899 110.04 8.15499V16.667H112.079C113.336 16.667 114.22 16.191 114.729 15.24C115.171 14.391 115.391 13.099 115.391 11.366C115.391 8.47799 114.184 7.03399 111.773 7.03399H111.263L110.346 7.23799ZM101.529 10.194H100.459L100.204 9.32699C99.865 8.34199 99.439 7.69599 98.93 7.38999L96.178 7.03299H93.935L93.119 7.23699L92.915 8.001V14.219H95.565C97.4 14.219 98.606 14.015 99.184 13.608V16.156C98.607 15.748 97.4 15.544 95.565 15.544H92.915V23.087C92.915 23.699 93.119 24.124 93.527 24.361L96.075 24.667H96.636L99.389 24.259C99.865 23.953 100.239 23.206 100.51 22.017L100.714 21.252H101.988V25.941H87.461V25.329C87.971 25.194 88.294 25.023 88.43 24.819L88.634 23.648V8.053L88.43 6.93199C88.294 6.69499 87.971 6.54199 87.461 6.47399V5.81099H101.528V10.194H101.529ZM84.148 10.194H83.078L82.823 9.32699C82.517 8.34199 82.092 7.69599 81.549 7.38999L78.848 7.03299H76.045C75.467 7.03299 75.059 7.13499 74.821 7.33899C74.719 7.509 74.668 7.81399 74.668 8.25599V13.047H75.79C79.019 13.047 81.277 13.37 82.569 14.015C84.335 14.899 85.219 16.632 85.219 19.214C85.219 21.729 84.505 23.529 83.078 24.616C81.854 25.501 79.9 25.941 77.217 25.941H69.113V25.329C69.657 25.194 69.997 25.023 70.133 24.819L70.337 23.648V8.053L70.133 6.93199C69.998 6.69499 69.658 6.54199 69.113 6.47399V5.81099H84.149V10.194H84.148ZM63.863 7.44099C63.251 6.99999 62.301 6.77899 61.009 6.77899C58.97 6.77899 57.526 7.526 56.676 9.022C55.963 10.314 55.606 12.42 55.606 15.342C55.606 18.265 55.997 20.422 56.778 21.815C57.729 23.548 59.36 24.415 61.671 24.415C63.37 24.415 65.052 24.007 66.717 23.191L67.328 24.466C65.391 25.654 63.115 26.249 60.498 26.249C54.109 26.249 50.916 22.868 50.916 16.106C50.916 9.005 54.229 5.45399 60.855 5.45399C63.403 5.45399 65.358 5.75999 66.716 6.37199V10.552H65.442L65.085 9.32799C64.814 8.47799 64.407 7.84899 63.863 7.44099ZM74.668 14.322V22.936C74.668 23.616 74.77 24.057 74.974 24.261C75.246 24.533 75.739 24.669 76.453 24.669H77.014C79.461 24.669 80.683 22.919 80.683 19.419C80.683 17.652 80.395 16.396 79.817 15.648C79.172 14.764 78.016 14.322 76.351 14.322H74.668Z" fill="#404041"/>
<path d="M33.384 2.599L35.168 4.23L12.64 17.176L1.73299 10.856L2.75199 8.817L12.64 14.475L33.384 2.599ZM28.848 0L31.244 1.224L12.64 11.927L3.97599 6.983L5.45399 5.199L12.64 9.327L28.848 0ZM36.748 5.912L38.073 7.696L12.64 22.324L0.356995 15.29L0.917995 13.047L12.641 19.775L36.748 5.912Z" fill="url(#paint0_radial)"/>
<path d="M40.418 12.487C41.165 14.594 41.539 16.802 41.539 19.113C41.539 21.424 41.165 23.666 40.418 25.84L39.908 27.218C38.855 29.697 37.377 31.906 35.473 33.844C33.536 35.745 31.329 37.207 28.847 38.227C26.232 39.349 23.53 39.909 20.743 39.909C17.922 39.909 15.221 39.347 12.639 38.227C10.226 37.207 8.035 35.745 6.064 33.844C4.127 31.906 2.649 29.698 1.63 27.218C0.544 24.6 0 21.899 0 19.113V17.736L12.64 24.923L39.296 9.633L40.418 12.487Z" fill="url(#paint1_radial)"/>
</g>
<defs>
<radialGradient id="paint0_radial" cx="0" cy="0" r="1" gradientUnits="userSpaceOnUse" gradientTransform="translate(22.1203 19.5728) scale(23.8656)">
<stop stop-color="#00ADEE"/>
<stop offset="0.7928" stop-color="#404041"/>
</radialGradient>
<radialGradient id="paint1_radial" cx="0" cy="0" r="1" gradientUnits="userSpaceOnUse" gradientTransform="translate(22.1204 19.5717) scale(23.8659)">
<stop stop-color="#00ADEE"/>
<stop offset="0.7928" stop-color="#404041"/>
</radialGradient>
<clipPath id="clip0">
<rect width="199.999" height="39.909" fill="white"/>
</clipPath>
</defs>
</svg>
