<svg width="196" height="71" viewBox="0 0 196 71" fill="none" xmlns="http://www.w3.org/2000/svg">
<g clip-path="url(#clip0)">
<path d="M28.2627 56.549C43.8717 56.549 56.5253 43.8901 56.5253 28.2745C56.5253 12.6589 43.8717 0 28.2627 0C12.6536 0 0 12.6589 0 28.2745C0 43.8901 12.6536 56.549 28.2627 56.549Z" fill="#00ADEE"/>
<path d="M16.6434 70.8431V66.1307C16.6434 64.3244 15.5441 63.146 13.6599 63.146C12.718 63.146 11.6974 63.4602 10.9905 64.4812C10.4409 63.6171 9.65581 63.146 8.47847 63.146C7.6934 63.146 6.90832 63.3815 6.28005 64.2456V63.3034H4.63177V70.8431H6.2806V66.6806C6.2806 65.3453 6.987 64.7173 8.08621 64.7173C9.18542 64.7173 9.73503 65.424 9.73503 66.6806V70.8431H11.3839V66.6806C11.3839 65.3453 12.1689 64.7173 13.1895 64.7173C14.2887 64.7173 14.8383 65.424 14.8383 66.6806V70.8431H16.6434ZM41.0593 63.3034H38.39V61.0259H36.7411V63.3034H35.2497V64.7955H36.7411V68.2514C36.7411 69.979 37.4475 71 39.3318 71C40.0382 71 40.8233 70.7644 41.3729 70.4502L40.902 69.0362C40.431 69.3505 39.8814 69.4286 39.4886 69.4286C38.7035 69.4286 38.3894 68.9575 38.3894 68.1721V64.7949H41.0588V63.3034H41.0593ZM55.0333 63.146C54.0914 63.146 53.4632 63.6171 53.0709 64.2456V63.3034H51.4221V70.8431H53.0709V66.6019C53.0709 65.3453 53.6205 64.6386 54.641 64.6386C54.9552 64.6386 55.3474 64.7173 55.6616 64.7955L56.1325 63.2247C55.8184 63.146 55.3474 63.146 55.0333 63.146ZM33.915 63.9314C33.1299 63.3815 32.0307 63.146 30.8534 63.146C28.9691 63.146 27.7131 64.0882 27.7131 65.5809C27.7131 66.8374 28.6549 67.5441 30.3037 67.7802L31.0888 67.8589C31.9526 68.0158 32.4235 68.2519 32.4235 68.6443C32.4235 69.1942 31.7952 69.5866 30.6966 69.5866C29.5973 69.5866 28.7342 69.1942 28.1845 68.8012L27.3995 70.0577C28.2632 70.6863 29.4406 71 30.6184 71C32.8169 71 34.0729 69.979 34.0729 68.5651C34.0729 67.2298 33.0523 66.5232 31.4822 66.2876L30.6971 66.2089C29.9907 66.1302 29.4411 65.9733 29.4411 65.5022C29.4411 64.9523 29.9907 64.6381 30.8545 64.6381C31.7963 64.6381 32.7387 65.031 33.2097 65.2666L33.915 63.9314ZM77.7218 63.146C76.7799 63.146 76.1516 63.6171 75.7594 64.2456V63.3034H74.1105V70.8431H75.7594V66.6019C75.7594 65.3453 76.309 64.6386 77.3295 64.6386C77.6437 64.6386 78.0359 64.7173 78.3501 64.7955L78.821 63.2247C78.5069 63.146 78.0359 63.146 77.7218 63.146ZM56.6821 67.073C56.6821 69.3505 58.2523 71 60.6862 71C61.7854 71 62.5705 70.7644 63.3555 70.1359L62.5705 68.8007C61.9422 69.2718 61.3144 69.5073 60.608 69.5073C59.2734 69.5073 58.3315 68.5651 58.3315 67.0724C58.3315 65.6585 59.2734 64.7162 60.608 64.6375C61.3144 64.6375 61.9427 64.8731 62.5705 65.3442L63.3555 64.009C62.5705 63.3804 61.7854 63.1449 60.6862 63.1449C58.2523 63.146 56.6821 64.7955 56.6821 67.073ZM71.9121 67.073V63.3028H70.2633V64.2451C69.7137 63.5384 68.9286 63.1454 67.9081 63.1454C65.7883 63.1454 64.1395 64.7949 64.1395 67.0724C64.1395 69.3499 65.7883 70.9994 67.9081 70.9994C69.0073 70.9994 69.7924 70.6065 70.2633 69.8998V70.842H71.9121V67.073ZM65.8675 67.073C65.8675 65.7377 66.7313 64.6381 68.1441 64.6381C69.4788 64.6381 70.4206 65.659 70.4206 67.073C70.4206 68.4082 69.4788 69.5079 68.1441 69.5079C66.7307 69.4292 65.8675 68.4082 65.8675 67.073ZM46.162 63.146C43.9636 63.146 42.3934 64.7168 42.3934 67.073C42.3934 69.4292 43.9636 71 46.2401 71C47.3394 71 48.4386 70.6857 49.3018 69.979L48.5167 68.8012C47.8884 69.2723 47.1033 69.5866 46.3183 69.5866C45.2977 69.5866 44.2772 69.1155 44.0417 67.7802H49.6159V67.1517C49.6951 64.7168 48.2818 63.146 46.162 63.146ZM46.162 64.5599C47.1826 64.5599 47.889 65.1885 48.0463 66.3663H44.1209C44.2777 65.3453 44.9847 64.5599 46.162 64.5599ZM87.064 67.073V60.3186H85.4152V64.2456C84.8656 63.5389 84.0805 63.146 83.06 63.146C80.9402 63.146 79.2914 64.7955 79.2914 67.073C79.2914 69.3505 80.9402 71 83.06 71C84.1592 71 84.9442 70.607 85.4152 69.9003V70.8426H87.064V67.073ZM81.0194 67.073C81.0194 65.7377 81.8832 64.6381 83.296 64.6381C84.6306 64.6381 85.5725 65.659 85.5725 67.073C85.5725 68.4082 84.6306 69.5079 83.296 69.5079C81.8826 69.4292 81.0194 68.4082 81.0194 67.073ZM25.9074 67.073V63.3028H24.2586V64.2451C23.709 63.5384 22.9239 63.1454 21.9034 63.1454C19.7836 63.1454 18.1348 64.7949 18.1348 67.0724C18.1348 69.3499 19.7836 70.9994 21.9034 70.9994C23.0026 70.9994 23.7877 70.6065 24.2586 69.8998V70.842H25.9074V67.073ZM19.7836 67.073C19.7836 65.7377 20.6474 64.6381 22.0602 64.6381C23.3949 64.6381 24.3367 65.659 24.3367 67.073C24.3367 68.4082 23.3949 69.5079 22.0602 69.5079C20.6474 69.4292 19.7836 68.4082 19.7836 67.073Z" fill="#404041"/>
<path d="M45.6911 6.04767C39.175 11.2312 34.9355 19.2421 34.9355 28.2745C34.9355 37.3069 39.175 45.396 45.6911 50.5014H58.0949V6.04767H45.6911Z" fill="#228FBD"/>
<path d="M91.4608 28.2745C91.4608 43.9039 78.821 56.549 63.1982 56.549C56.6034 56.549 50.5583 54.2715 45.7697 50.5014C52.3645 45.3178 56.5253 37.3069 56.5253 28.2745C56.5253 19.2421 52.2858 11.2312 45.7697 6.04766C50.5583 2.2775 56.6034 0 63.1982 0C78.821 0 91.4608 12.7233 91.4608 28.2745Z" fill="#404041"/>
<path d="M136.993 33.3634L141.567 6.5144H148.882L144.306 33.3634H136.993Z" fill="#404041"/>
<path d="M170.837 7.17541C169.387 6.63163 167.117 6.04767 164.281 6.04767C157.053 6.04767 151.96 9.68903 151.918 14.9084C151.877 18.766 155.552 20.9186 158.327 22.2026C161.175 23.5186 162.132 24.358 162.119 25.533C162.1 27.3328 159.845 28.1551 157.742 28.1551C154.814 28.1551 153.259 27.7484 150.856 26.7455L149.914 26.3184L148.887 32.3292C150.596 33.0789 153.756 33.7283 157.036 33.7619C164.725 33.7619 169.717 30.1624 169.774 24.5891C169.802 21.535 167.853 19.2102 163.633 17.2943C161.075 16.0521 159.51 15.2232 159.526 13.9655C159.526 12.8494 160.852 11.6561 163.715 11.6561C166.107 11.6187 167.84 12.141 169.19 12.6848L169.846 12.9947L170.837 7.17541Z" fill="#404041"/>
<path d="M189.595 6.5397H183.942C182.191 6.5397 180.881 7.01799 180.111 8.76602L169.248 33.3716H176.929C176.929 33.3716 178.185 30.0633 178.469 29.3368C179.309 29.3368 186.771 29.3483 187.838 29.3483C188.057 30.2878 188.728 33.3716 188.728 33.3716H195.516L189.595 6.5397ZM180.575 23.8455C181.18 22.2984 183.489 16.3399 183.489 16.3399C183.446 16.4115 184.089 14.7856 184.459 13.7773L184.953 16.0922C184.953 16.0922 186.354 22.5009 186.647 23.845H180.575V23.8455Z" fill="#404041"/>
<path d="M130.858 6.53366L123.696 24.8429L122.933 21.1222C121.6 16.8331 117.446 12.1861 112.802 9.85965L119.35 33.3408L127.09 33.332L138.607 6.53476H130.858" fill="#404041"/>
<path d="M117.052 6.51715H105.256L105.162 7.07579C114.34 9.29826 120.412 14.6689 122.933 21.1222L120.368 8.7842C119.925 7.0835 118.641 6.57659 117.052 6.51715Z" fill="#00ADEE"/>
<path fill-rule="evenodd" clip-rule="evenodd" d="M115.164 45.1665C117.639 45.1736 120.115 45.1698 122.592 45.1676C123.758 45.1527 124.925 45.7543 125.561 46.7373C126.153 47.5783 126.379 48.5959 126.67 49.5652C127.567 52.5857 128.45 55.6106 129.348 58.6311C129.363 58.9041 129.767 59.0087 129.846 58.7181C130.763 55.6684 131.648 52.6099 132.559 49.558C132.871 48.4825 133.141 47.3405 133.869 46.456C134.337 45.8831 134.991 45.4758 135.703 45.2848C136.31 45.1164 136.944 45.1802 137.566 45.1698C139.74 45.178 141.915 45.151 144.089 45.1835C144.074 52.7706 144.097 60.3583 144.076 67.9442C141.725 67.9294 139.372 67.9652 137.02 67.9255C137.02 63.4751 137.031 59.0241 137.016 54.5737C137.001 54.1774 136.346 54.2115 136.302 54.5841C134.901 59.0302 133.492 63.4734 132.112 67.9255C130.452 67.9641 128.788 67.9338 127.127 67.9404C125.729 63.4944 124.341 59.045 122.929 54.604C122.87 54.2368 122.437 54.2242 122.204 54.4388C122.208 58.9361 122.198 63.4327 122.208 67.9299C119.86 67.9591 117.512 67.931 115.164 67.9437C115.163 60.3516 115.163 52.7596 115.164 45.1665ZM147.3 45.1808C149.647 45.145 151.996 45.1995 154.343 45.1516C154.38 49.6554 154.348 54.1609 154.359 58.6647C154.56 58.8447 154.929 58.9003 155.052 58.602C156.615 55.3244 158.171 52.0441 159.733 48.7654C160.228 47.7478 160.63 46.6442 161.437 45.8214C161.798 45.4796 162.247 45.1488 162.77 45.172C165.163 45.1731 167.556 45.1571 169.951 45.1802C169.954 52.764 169.954 60.3478 169.951 67.9316C167.603 67.9503 165.254 67.9492 162.905 67.9327C162.904 63.4404 162.914 58.9465 162.9 54.4542C162.894 54.0684 162.242 54.0998 162.175 54.446C160.702 57.6966 159.236 60.9494 157.764 64.2C157.311 65.1863 156.882 66.2028 156.205 67.0625C155.829 67.5414 155.28 67.9712 154.64 67.942C152.195 67.9409 149.748 67.9453 147.302 67.9398C147.302 60.3539 147.306 52.7668 147.3 45.1808ZM173.385 55.5743C180.761 55.5242 188.139 55.5743 195.516 55.5501C195.267 56.5666 194.61 57.4412 193.914 58.2046C192.542 59.695 190.569 60.6048 188.542 60.6582C185.847 60.672 183.152 60.656 180.457 60.6665C180.44 63.0931 180.457 65.5192 180.45 67.9459C178.1 67.9354 175.748 67.9531 173.396 67.9354C173.385 63.8158 173.408 59.695 173.385 55.5743Z" fill="#404041"/>
<path fill-rule="evenodd" clip-rule="evenodd" d="M172.488 45.1797C178 45.1725 183.511 45.1681 189.022 45.1736C190.468 45.2771 191.864 45.8638 193.009 46.7444C194.672 48.04 195.793 50.0275 195.978 52.1338C196.021 52.8922 196.006 53.6567 195.893 54.4086C192.516 54.4284 189.14 54.4097 185.763 54.4146C184.603 54.4042 183.438 54.4625 182.287 54.2913C179.694 53.9627 177.137 52.8823 175.3 50.9873C173.751 49.4336 172.796 47.3399 172.488 45.1797Z" fill="#00ADEE"/>
</g>
<defs>
<clipPath id="clip0">
<rect width="196" height="71" fill="white"/>
</clipPath>
</defs>
</svg>
