<?xml version="1.0" encoding="UTF-8"?>
<svg xmlns="http://www.w3.org/2000/svg" xmlns:xlink="http://www.w3.org/1999/xlink" width="48px" height="48px" viewBox="0 0 48 48" version="1.1">
<g id="surface101738">
<path style=" stroke:none;fill-rule:nonzero;fill:rgb(31.372549%,92.54902%,56.078431%);fill-opacity:1;" d="M 24 4 C 12.960938 4 4 12.960938 4 24 C 4 35.039062 12.960938 44 24 44 C 35.039062 44 44 35.039062 44 24 C 44 12.960938 35.039062 4 24 4 Z M 26 38 L 22 38 L 22 34 L 26 34 Z M 30.140625 22.5 L 28.339844 24.339844 C 26.898438 25.800781 26 27 26 30 L 22 30 L 22 29 C 22 26.800781 22.898438 24.800781 24.339844 23.339844 L 26.820312 20.820312 C 27.558594 20.101562 28 19.101562 28 18 C 28 15.800781 26.199219 14 24 14 C 21.800781 14 20 15.800781 20 18 L 16 18 C 16 13.578125 19.578125 10 24 10 C 28.421875 10 32 13.578125 32 18 C 32 19.761719 31.28125 21.359375 30.140625 22.5 Z M 30.140625 22.5 "/>
</g>
</svg>
