<svg id="Layer_1" data-name="Layer 1" xmlns="http://www.w3.org/2000/svg" xmlns:xlink="http://www.w3.org/1999/xlink" viewBox="0 0 200 161.67"><defs><style>.cls-1,.cls-10,.cls-11,.cls-2,.cls-27,.cls-28,.cls-3,.cls-4,.cls-5{fill:none;}.cls-2{clip-rule:evenodd;}.cls-3,.cls-6{fill-rule:evenodd;}.cls-11,.cls-27,.cls-28,.cls-29,.cls-30,.cls-4,.cls-5,.cls-7{stroke:#231f20;}.cls-11,.cls-4,.cls-5,.cls-7{stroke-linecap:square;}.cls-10,.cls-11,.cls-27,.cls-29,.cls-30,.cls-4,.cls-5,.cls-7{stroke-miterlimit:3.86;}.cls-10,.cls-27,.cls-28,.cls-29,.cls-30,.cls-4{stroke-width:0.31px;}.cls-5,.cls-7{stroke-width:0.78px;}.cls-20,.cls-31,.cls-6{fill:#fff;}.cls-7{fill:#e6e7e8;}.cls-32,.cls-33,.cls-34,.cls-8,.cls-9{fill:#231f20;}.cls-10,.cls-9{font-size:3.16px;}.cls-10,.cls-31,.cls-32,.cls-33,.cls-9{font-family:Helios-Cond-Light;}.cls-10{stroke:#fff;stroke-linecap:round;}.cls-11{stroke-width:1.56px;}.cls-12{clip-path:url(#clip-path);}.cls-13{clip-path:url(#clip-path-2);}.cls-14{fill:#eb2d2e;}.cls-15{clip-path:url(#clip-path-3);}.cls-16{clip-path:url(#clip-path-5);}.cls-17{clip-path:url(#clip-path-7);}.cls-18{clip-path:url(#clip-path-9);}.cls-19{clip-path:url(#clip-path-11);}.cls-21{clip-path:url(#clip-path-25);}.cls-22{clip-path:url(#clip-path-57);}.cls-23{clip-path:url(#clip-path-483);}.cls-24{clip-path:url(#clip-path-489);}.cls-25{clip-path:url(#clip-path-491);}.cls-26{fill:#a7a9ac;}.cls-29{fill:#ee3d96;}.cls-30{fill:#ed3f95;}.cls-31,.cls-33,.cls-34{font-size:6.24px;}.cls-32{font-size:4.68px;}.cls-34{font-family:Helvetica Neue;font-weight:700;}</style><clipPath id="clip-path"><rect class="cls-1" x="127.67" y="59.66" width="6.27" height="6.27"/></clipPath><clipPath id="clip-path-2"><polyline class="cls-2" points="129.63 47.09 123.31 64.29 133.49 64.29 139.46 54.82 139.46 47.09 129.63 47.09"/></clipPath><clipPath id="clip-path-3"><rect class="cls-1" x="133.91" y="59.66" width="6.27" height="6.27"/></clipPath><clipPath id="clip-path-5"><rect class="cls-1" x="127.67" y="53.42" width="6.27" height="6.27"/></clipPath><clipPath id="clip-path-7"><rect class="cls-1" x="133.91" y="53.42" width="6.27" height="6.27"/></clipPath><clipPath id="clip-path-9"><rect class="cls-1" x="127.67" y="47.18" width="6.27" height="6.27"/></clipPath><clipPath id="clip-path-11"><rect class="cls-1" x="133.91" y="47.18" width="6.27" height="6.27"/></clipPath><clipPath id="clip-path-25"><rect class="cls-1" x="121.43" y="59.66" width="6.27" height="6.27"/></clipPath><clipPath id="clip-path-57"><rect class="cls-1" x="121.43" y="53.42" width="6.27" height="6.27"/></clipPath><clipPath id="clip-path-483"><rect class="cls-1" x="121.43" y="47.18" width="6.27" height="6.27"/></clipPath><clipPath id="clip-path-489"><rect class="cls-1" x="127.67" y="40.94" width="6.27" height="6.27"/></clipPath><clipPath id="clip-path-491"><rect class="cls-1" x="133.91" y="40.94" width="6.27" height="6.27"/></clipPath></defs><title>digitall-01</title><circle class="cls-4" cx="121.21" cy="48.85" r="1.23"/><circle class="cls-5" cx="74.7" cy="58.15" r="3.69"/><polyline class="cls-6" points="78.39 54.82 81.19 57.62 74.88 64.29 72.07 61.48 78.39 54.82"/><path class="cls-7" d="M58.38,106.59a3.69,3.69,0,1,1-3.68,3.68A3.69,3.69,0,0,1,58.38,106.59ZM69.09,77.46a26,26,0,1,1,26,26A26,26,0,0,1,69.09,77.46Z"/><path class="cls-4" d="M114.54,83.95a12,12,0,0,1-8.44,11.41"/><path class="cls-8" d="M105.18,96.15a20,20,0,0,1,2,.1L106.5,94a18.2,18.2,0,0,1-1.61,1.23,13.51,13.51,0,0,1-1.83,1.07,13.91,13.91,0,0,1,2.12-.15"/><circle class="cls-5" cx="65.22" cy="83.07" r="3.69"/><line class="cls-4" x1="88.76" y1="48.47" x2="85.04" y2="34.67"/><path class="cls-8" d="M89.51,49.41a20.09,20.09,0,0,1,.18-2L87.41,48a18.79,18.79,0,0,1,1.17,1.65,13.87,13.87,0,0,1,1,1.87,14.09,14.09,0,0,1-.07-2.12"/><circle class="cls-5" cx="63.47" cy="73.24" r="2.63"/><path class="cls-4" d="M78.74,98.37a1.23,1.23,0,1,1-1.23,1.23A1.23,1.23,0,0,1,78.74,98.37Zm-2.11,5.41c0.87,0,1.58.39,1.58,0.88s-0.71.88-1.58,0.88-1.58-.39-1.58-0.88S75.76,103.78,76.63,103.78Zm-3,0c1,0,1.76.39,1.76,0.88s-0.79.88-1.76,0.88-1.76-.39-1.76-0.88S72.68,103.78,73.65,103.78Zm-3,0c0.87,0,1.58.31,1.58,0.7s-0.71.7-1.58,0.7-1.58-.31-1.58-0.7S69.79,103.78,70.66,103.78Zm18.08,0c1,0,1.76.39,1.76,0.88s-0.79.88-1.76,0.88S87,105.14,87,104.66,87.77,103.78,88.74,103.78Zm-3,0c0.87,0,1.58.39,1.58,0.88s-0.71.88-1.58,0.88-1.58-.39-1.58-0.88S84.89,103.78,85.76,103.78Zm-3,0c1,0,1.75.31,1.75,0.7s-0.79.7-1.75,0.7-1.76-.31-1.76-0.7S81.8,103.78,82.77,103.78Zm9.13,0c1,0,1.76.39,1.76,0.88s-0.79.88-1.76,0.88-1.76-.39-1.76-0.88S90.93,103.78,91.9,103.78Zm3,0c0.87,0,1.58.39,1.58,0.88s-0.71.88-1.58,0.88-1.58-.39-1.58-0.88S94,103.78,94.88,103.78Zm25.27-15.59a1.23,1.23,0,1,1-1.23,1.23A1.23,1.23,0,0,1,120.16,88.19ZM119.1,90.3a1.23,1.23,0,1,1-1.23,1.23A1.23,1.23,0,0,1,119.1,90.3Zm-3.16,4.21a1.23,1.23,0,1,1-1.23,1.23A1.23,1.23,0,0,1,115.94,94.51Zm-1.75,1.75A1.23,1.23,0,1,1,113,97.49,1.23,1.23,0,0,1,114.19,96.26Zm8.07-26A1.23,1.23,0,1,1,121,71.52,1.23,1.23,0,0,1,122.26,70.29Zm0.7,5.27a1.23,1.23,0,1,1-1.23,1.23A1.23,1.23,0,0,1,123,75.55Zm0,2.81a1.23,1.23,0,1,1-1.23,1.23A1.23,1.23,0,0,1,123,78.36Zm-0.35,2.46A1.23,1.23,0,1,1,121.38,82,1.23,1.23,0,0,1,122.61,80.82Zm-1.4,4.91A1.23,1.23,0,1,1,120,87,1.23,1.23,0,0,1,121.21,85.73Zm0-17.9A1.23,1.23,0,1,1,120,69.06,1.23,1.23,0,0,1,121.21,67.83ZM71.12,55L60.59,45.26m1.14-18.92L86.83,45.6M47.3,73.81l13.88,7.68M47.3,73.81L61,72.21M133.14,79l-7.72-.7M109.37,54.93l17.46-15.55M61.54,74.82l3.86-3.51m0,3.51-3.86-3.51"/><text class="cls-9" transform="translate(116.65 90.2)">+</text><text class="cls-10" transform="translate(116.65 90.2)">+</text><path class="cls-11" d="M56.27,104.66h2.81m-15.09,0H46.8m3.16,0h2.81"/><path class="cls-4" d="M128.23,47.62A1.23,1.23,0,1,1,127,48.85,1.23,1.23,0,0,1,128.23,47.62Zm-2.3-.2a1.23,1.23,0,1,1-1.23,1.23A1.23,1.23,0,0,1,125.93,47.42Zm-9.28,5.11a1.23,1.23,0,1,1-1.23,1.23A1.23,1.23,0,0,1,116.65,52.53Zm-1.58,3.69a1.23,1.23,0,1,1,1.23,1.23A1.23,1.23,0,0,1,115.07,56.22Zm1.58,1.23a1.23,1.23,0,1,1-1.23,1.23A1.23,1.23,0,0,1,116.65,57.45Zm7-10.18a1.23,1.23,0,1,1-1.23,1.23A1.23,1.23,0,0,1,123.67,47.27ZM118,50.78A1.23,1.23,0,1,1,116.82,52,1.23,1.23,0,0,1,118,50.78Zm1.05,11.08a1.23,1.23,0,1,1-1.23,1.23A1.23,1.23,0,0,1,119.1,61.86Zm-1.4-2.11A1.23,1.23,0,1,1,116.47,61,1.23,1.23,0,0,1,117.7,59.76ZM65,103.78c0.87,0,1.58.39,1.58,0.88s-0.71.88-1.58,0.88-1.58-.39-1.58-0.88S64.18,103.78,65,103.78Zm-3.33,0c1,0,1.75.31,1.75,0.7s-0.79.7-1.75,0.7-1.76-.31-1.76-0.7S60.74,103.78,61.71,103.78Z"/><g class="cls-12"><g class="cls-13"><rect class="cls-14" x="127.67" y="59.66" width="0.78" height="0.78"/></g></g><g class="cls-15"><g class="cls-13"><rect class="cls-14" x="133.91" y="59.66" width="0.78" height="0.78"/></g></g><g class="cls-16"><g class="cls-13"><rect class="cls-14" x="127.67" y="53.42" width="0.78" height="0.78"/></g></g><g class="cls-17"><g class="cls-13"><rect class="cls-14" x="133.91" y="53.42" width="0.78" height="0.78"/></g></g><g class="cls-18"><g class="cls-13"><rect class="cls-14" x="127.67" y="47.18" width="0.78" height="0.78"/></g></g><g class="cls-19"><g class="cls-13"><rect class="cls-14" x="133.91" y="47.18" width="0.78" height="0.78"/></g></g><g class="cls-12"><g class="cls-13"><rect class="cls-20" x="128.45" y="59.66" width="0.78" height="0.78"/></g></g><g class="cls-15"><g class="cls-13"><rect class="cls-20" x="134.69" y="59.66" width="0.78" height="0.78"/></g></g><g class="cls-16"><g class="cls-13"><rect class="cls-20" x="128.45" y="53.42" width="0.78" height="0.78"/></g></g><g class="cls-17"><g class="cls-13"><rect class="cls-20" x="134.69" y="53.42" width="0.78" height="0.78"/></g></g><g class="cls-18"><g class="cls-13"><rect class="cls-20" x="128.45" y="47.18" width="0.78" height="0.78"/></g></g><g class="cls-19"><g class="cls-13"><rect class="cls-20" x="134.69" y="47.18" width="0.78" height="0.78"/></g></g><g class="cls-21"><g class="cls-13"><rect class="cls-14" x="123.32" y="59.66" width="0.47" height="0.78"/></g></g><g class="cls-12"><g class="cls-13"><rect class="cls-14" x="129.24" y="59.66" width="0.78" height="0.78"/></g></g><g class="cls-15"><g class="cls-13"><rect class="cls-14" x="135.48" y="59.66" width="0.78" height="0.78"/></g></g><g class="cls-16"><g class="cls-13"><rect class="cls-14" x="129.24" y="53.42" width="0.78" height="0.78"/></g></g><g class="cls-17"><g class="cls-13"><rect class="cls-14" x="135.48" y="53.42" width="0.78" height="0.78"/></g></g><g class="cls-18"><g class="cls-13"><rect class="cls-14" x="129.24" y="47.18" width="0.78" height="0.78"/></g></g><g class="cls-19"><g class="cls-13"><rect class="cls-14" x="135.48" y="47.18" width="0.78" height="0.78"/></g></g><g class="cls-21"><g class="cls-13"><rect class="cls-20" x="123.78" y="59.66" width="0.78" height="0.78"/></g></g><g class="cls-12"><g class="cls-13"><rect class="cls-20" x="130.02" y="59.66" width="0.78" height="0.78"/></g></g><g class="cls-15"><g class="cls-13"><rect class="cls-20" x="136.26" y="59.66" width="0.16" height="0.78"/></g></g><g class="cls-16"><g class="cls-13"><rect class="cls-20" x="130.02" y="53.42" width="0.78" height="0.78"/></g></g><g class="cls-17"><g class="cls-13"><rect class="cls-20" x="136.26" y="53.42" width="0.78" height="0.78"/></g></g><g class="cls-18"><g class="cls-13"><rect class="cls-20" x="130.02" y="47.18" width="0.78" height="0.78"/></g></g><g class="cls-19"><g class="cls-13"><rect class="cls-20" x="136.26" y="47.18" width="0.78" height="0.78"/></g></g><g class="cls-21"><g class="cls-13"><rect class="cls-14" x="124.57" y="59.66" width="0.78" height="0.78"/></g></g><g class="cls-12"><g class="cls-13"><rect class="cls-14" x="130.8" y="59.66" width="0.78" height="0.78"/></g></g><g class="cls-22"><g class="cls-13"><rect class="cls-14" x="124.99" y="53.42" width="0.35" height="0.78"/></g></g><g class="cls-16"><g class="cls-13"><rect class="cls-14" x="130.8" y="53.42" width="0.78" height="0.78"/></g></g><g class="cls-17"><g class="cls-13"><rect class="cls-14" x="137.05" y="53.42" width="0.78" height="0.78"/></g></g><g class="cls-18"><g class="cls-13"><rect class="cls-14" x="130.8" y="47.18" width="0.78" height="0.78"/></g></g><g class="cls-19"><g class="cls-13"><rect class="cls-14" x="137.05" y="47.18" width="0.78" height="0.78"/></g></g><g class="cls-21"><g class="cls-13"><rect class="cls-20" x="125.35" y="59.66" width="0.78" height="0.78"/></g></g><g class="cls-12"><g class="cls-13"><rect class="cls-20" x="131.59" y="59.66" width="0.78" height="0.78"/></g></g><g class="cls-22"><g class="cls-13"><rect class="cls-20" x="125.35" y="53.42" width="0.78" height="0.78"/></g></g><g class="cls-16"><g class="cls-13"><rect class="cls-20" x="131.59" y="53.42" width="0.78" height="0.78"/></g></g><g class="cls-17"><g class="cls-13"><rect class="cls-20" x="137.83" y="53.42" width="0.78" height="0.78"/></g></g><g class="cls-18"><g class="cls-13"><rect class="cls-20" x="131.59" y="47.18" width="0.78" height="0.78"/></g></g><g class="cls-19"><g class="cls-13"><rect class="cls-20" x="137.83" y="47.18" width="0.78" height="0.78"/></g></g><g class="cls-21"><g class="cls-13"><rect class="cls-14" x="126.13" y="59.66" width="0.78" height="0.78"/></g></g><g class="cls-12"><g class="cls-13"><rect class="cls-14" x="132.37" y="59.66" width="0.78" height="0.78"/></g></g><g class="cls-22"><g class="cls-13"><rect class="cls-14" x="126.13" y="53.42" width="0.78" height="0.78"/></g></g><g class="cls-16"><g class="cls-13"><rect class="cls-14" x="132.37" y="53.42" width="0.78" height="0.78"/></g></g><g class="cls-17"><g class="cls-13"><rect class="cls-14" x="138.61" y="53.42" width="0.78" height="0.78"/></g></g><g class="cls-18"><g class="cls-13"><rect class="cls-14" x="132.37" y="47.18" width="0.78" height="0.78"/></g></g><g class="cls-19"><g class="cls-13"><rect class="cls-14" x="138.61" y="47.18" width="0.78" height="0.78"/></g></g><g class="cls-21"><g class="cls-13"><rect class="cls-20" x="126.92" y="59.66" width="0.78" height="0.78"/></g></g><g class="cls-12"><g class="cls-13"><rect class="cls-20" x="133.16" y="59.66" width="0.78" height="0.78"/><rect class="cls-20" x="127.67" y="60.44" width="0.78" height="0.78"/></g></g><g class="cls-15"><g class="cls-13"><rect class="cls-20" x="133.91" y="60.44" width="0.78" height="0.78"/></g></g><g class="cls-22"><g class="cls-13"><rect class="cls-20" x="126.92" y="53.42" width="0.78" height="0.78"/></g></g><g class="cls-16"><g class="cls-13"><rect class="cls-20" x="133.16" y="53.42" width="0.78" height="0.78"/><rect class="cls-20" x="127.67" y="54.2" width="0.78" height="0.78"/></g></g><g class="cls-17"><g class="cls-13"><rect class="cls-20" x="139.4" y="53.42" width="0.09" height="0.78"/><rect class="cls-20" x="133.91" y="54.2" width="0.78" height="0.78"/></g></g><g class="cls-18"><g class="cls-13"><rect class="cls-20" x="133.16" y="47.18" width="0.78" height="0.78"/><rect class="cls-20" x="127.67" y="47.96" width="0.78" height="0.78"/></g></g><g class="cls-19"><g class="cls-13"><rect class="cls-20" x="139.4" y="47.18" width="0.09" height="0.78"/><rect class="cls-20" x="133.91" y="47.96" width="0.78" height="0.78"/></g></g><g class="cls-12"><g class="cls-13"><rect class="cls-14" x="128.45" y="60.44" width="0.78" height="0.78"/></g></g><g class="cls-15"><g class="cls-13"><rect class="cls-14" x="134.69" y="60.44" width="0.78" height="0.78"/></g></g><g class="cls-16"><g class="cls-13"><rect class="cls-14" x="128.45" y="54.2" width="0.78" height="0.78"/></g></g><g class="cls-17"><g class="cls-13"><rect class="cls-14" x="134.69" y="54.2" width="0.78" height="0.78"/></g></g><g class="cls-18"><g class="cls-13"><rect class="cls-14" x="128.45" y="47.96" width="0.78" height="0.78"/></g></g><g class="cls-19"><g class="cls-13"><rect class="cls-14" x="134.69" y="47.96" width="0.78" height="0.78"/></g></g><g class="cls-21"><g class="cls-13"><rect class="cls-20" x="123.32" y="60.44" width="4.39" height="0.78"/></g></g><g class="cls-12"><g class="cls-13"><rect class="cls-20" x="129.24" y="60.44" width="4.7" height="0.78"/></g></g><g class="cls-15"><g class="cls-13"><rect class="cls-20" x="135.48" y="60.44" width="0.95" height="0.78"/></g></g><g class="cls-22"><g class="cls-13"><rect class="cls-20" x="124.99" y="54.2" width="2.7" height="0.78"/></g></g><g class="cls-16"><g class="cls-13"><rect class="cls-20" x="129.24" y="54.2" width="4.7" height="0.78"/></g></g><g class="cls-17"><g class="cls-13"><rect class="cls-20" x="135.48" y="54.2" width="4.01" height="0.78"/></g></g><g class="cls-18"><g class="cls-13"><rect class="cls-20" x="129.24" y="47.96" width="4.7" height="0.78"/></g></g><g class="cls-19"><g class="cls-13"><rect class="cls-20" x="135.48" y="47.96" width="4.01" height="0.78"/></g></g><g class="cls-12"><g class="cls-13"><rect class="cls-14" x="127.67" y="61.23" width="0.78" height="0.78"/></g></g><g class="cls-15"><g class="cls-13"><rect class="cls-14" x="133.91" y="61.23" width="0.78" height="0.78"/></g></g><g class="cls-16"><g class="cls-13"><rect class="cls-14" x="127.67" y="54.99" width="0.78" height="0.78"/></g></g><g class="cls-17"><g class="cls-13"><rect class="cls-14" x="133.91" y="54.99" width="0.78" height="0.78"/></g></g><g class="cls-18"><g class="cls-13"><rect class="cls-14" x="127.67" y="48.75" width="0.78" height="0.78"/></g></g><g class="cls-19"><g class="cls-13"><rect class="cls-14" x="133.91" y="48.75" width="0.78" height="0.78"/></g></g><g class="cls-12"><g class="cls-13"><rect class="cls-20" x="128.45" y="61.23" width="0.78" height="0.78"/></g></g><g class="cls-15"><g class="cls-13"><rect class="cls-20" x="134.69" y="61.23" width="0.78" height="0.78"/></g></g><g class="cls-16"><g class="cls-13"><rect class="cls-20" x="128.45" y="54.99" width="0.78" height="0.78"/></g></g><g class="cls-17"><g class="cls-13"><rect class="cls-20" x="134.69" y="54.99" width="0.78" height="0.78"/></g></g><g class="cls-18"><g class="cls-13"><rect class="cls-20" x="128.45" y="48.75" width="0.78" height="0.78"/></g></g><g class="cls-19"><g class="cls-13"><rect class="cls-20" x="134.69" y="48.75" width="0.78" height="0.78"/></g></g><g class="cls-21"><g class="cls-13"><rect class="cls-14" x="123.32" y="61.23" width="0.47" height="0.78"/></g></g><g class="cls-12"><g class="cls-13"><rect class="cls-14" x="129.24" y="61.23" width="0.78" height="0.78"/></g></g><g class="cls-15"><g class="cls-13"><rect class="cls-14" x="135.48" y="61.23" width="0.78" height="0.78"/></g></g><g class="cls-16"><g class="cls-13"><rect class="cls-14" x="129.24" y="54.99" width="0.78" height="0.78"/></g></g><g class="cls-17"><g class="cls-13"><rect class="cls-14" x="135.48" y="54.99" width="0.78" height="0.78"/></g></g><g class="cls-18"><g class="cls-13"><rect class="cls-14" x="129.24" y="48.75" width="0.78" height="0.78"/></g></g><g class="cls-19"><g class="cls-13"><rect class="cls-14" x="135.48" y="48.75" width="0.78" height="0.78"/></g></g><g class="cls-21"><g class="cls-13"><rect class="cls-20" x="123.78" y="61.23" width="0.78" height="0.78"/></g></g><g class="cls-12"><g class="cls-13"><rect class="cls-20" x="130.02" y="61.23" width="0.78" height="0.78"/></g></g><g class="cls-15"><g class="cls-13"><rect class="cls-20" x="136.26" y="61.23" width="0.16" height="0.78"/></g></g><g class="cls-16"><g class="cls-13"><rect class="cls-20" x="130.02" y="54.99" width="0.78" height="0.78"/></g></g><g class="cls-17"><g class="cls-13"><rect class="cls-20" x="136.26" y="54.99" width="0.78" height="0.78"/></g></g><g class="cls-18"><g class="cls-13"><rect class="cls-20" x="130.02" y="48.75" width="0.78" height="0.78"/></g></g><g class="cls-19"><g class="cls-13"><rect class="cls-20" x="136.26" y="48.75" width="0.78" height="0.78"/></g></g><g class="cls-21"><g class="cls-13"><rect class="cls-14" x="124.57" y="61.23" width="0.78" height="0.78"/></g></g><g class="cls-12"><g class="cls-13"><rect class="cls-14" x="130.8" y="61.23" width="0.78" height="0.78"/></g></g><g class="cls-22"><g class="cls-13"><rect class="cls-14" x="124.99" y="54.99" width="0.35" height="0.78"/></g></g><g class="cls-16"><g class="cls-13"><rect class="cls-14" x="130.8" y="54.99" width="0.78" height="0.78"/></g></g><g class="cls-17"><g class="cls-13"><rect class="cls-14" x="137.05" y="54.99" width="0.78" height="0.78"/></g></g><g class="cls-18"><g class="cls-13"><rect class="cls-14" x="130.8" y="48.75" width="0.78" height="0.78"/></g></g><g class="cls-19"><g class="cls-13"><rect class="cls-14" x="137.05" y="48.75" width="0.78" height="0.78"/></g></g><g class="cls-21"><g class="cls-13"><rect class="cls-20" x="125.35" y="61.23" width="0.78" height="0.78"/></g></g><g class="cls-12"><g class="cls-13"><rect class="cls-20" x="131.59" y="61.23" width="0.78" height="0.78"/></g></g><g class="cls-22"><g class="cls-13"><rect class="cls-20" x="125.35" y="54.99" width="0.78" height="0.78"/></g></g><g class="cls-16"><g class="cls-13"><rect class="cls-20" x="131.59" y="54.99" width="0.78" height="0.78"/></g></g><g class="cls-17"><g class="cls-13"><rect class="cls-20" x="137.83" y="54.99" width="0.78" height="0.78"/></g></g><g class="cls-18"><g class="cls-13"><rect class="cls-20" x="131.59" y="48.75" width="0.78" height="0.78"/></g></g><g class="cls-19"><g class="cls-13"><rect class="cls-20" x="137.83" y="48.75" width="0.78" height="0.78"/></g></g><g class="cls-21"><g class="cls-13"><rect class="cls-14" x="126.13" y="61.23" width="0.78" height="0.78"/></g></g><g class="cls-12"><g class="cls-13"><rect class="cls-14" x="132.37" y="61.23" width="0.78" height="0.78"/></g></g><g class="cls-22"><g class="cls-13"><rect class="cls-14" x="126.13" y="54.99" width="0.78" height="0.78"/></g></g><g class="cls-16"><g class="cls-13"><rect class="cls-14" x="132.37" y="54.99" width="0.78" height="0.78"/></g></g><g class="cls-17"><g class="cls-13"><rect class="cls-14" x="138.61" y="54.99" width="0.78" height="0.78"/></g></g><g class="cls-18"><g class="cls-13"><rect class="cls-14" x="132.37" y="48.75" width="0.78" height="0.78"/></g></g><g class="cls-19"><g class="cls-13"><rect class="cls-14" x="138.61" y="48.75" width="0.78" height="0.78"/></g></g><g class="cls-21"><g class="cls-13"><rect class="cls-20" x="126.92" y="61.23" width="0.78" height="0.78"/><rect class="cls-20" x="123.32" y="62.01" width="4.39" height="0.78"/></g></g><g class="cls-12"><g class="cls-13"><rect class="cls-20" x="133.16" y="61.23" width="0.78" height="0.78"/><rect class="cls-20" x="127.67" y="62.01" width="6.27" height="0.78"/></g></g><g class="cls-15"><g class="cls-13"><rect class="cls-20" x="133.91" y="62.01" width="2.52" height="0.78"/></g></g><g class="cls-22"><g class="cls-13"><rect class="cls-20" x="126.92" y="54.99" width="0.78" height="0.78"/><rect class="cls-20" x="124.99" y="55.77" width="2.7" height="0.78"/></g></g><g class="cls-16"><g class="cls-13"><rect class="cls-20" x="133.16" y="54.99" width="0.78" height="0.78"/><rect class="cls-20" x="127.67" y="55.77" width="6.27" height="0.78"/></g></g><g class="cls-17"><g class="cls-13"><rect class="cls-20" x="139.4" y="54.99" width="0.09" height="0.78"/><rect class="cls-20" x="133.91" y="55.77" width="5.58" height="0.78"/></g></g><g class="cls-18"><g class="cls-13"><rect class="cls-20" x="133.16" y="48.75" width="0.78" height="0.78"/><rect class="cls-20" x="127.67" y="49.53" width="6.27" height="0.78"/></g></g><g class="cls-19"><g class="cls-13"><rect class="cls-20" x="139.4" y="48.75" width="0.09" height="0.78"/><rect class="cls-20" x="133.91" y="49.53" width="5.58" height="0.78"/></g></g><g class="cls-12"><g class="cls-13"><rect class="cls-14" x="127.67" y="62.79" width="0.78" height="0.78"/></g></g><g class="cls-15"><g class="cls-13"><rect class="cls-14" x="133.91" y="62.79" width="0.78" height="0.78"/></g></g><g class="cls-16"><g class="cls-13"><rect class="cls-14" x="127.67" y="56.55" width="0.78" height="0.78"/></g></g><g class="cls-17"><g class="cls-13"><rect class="cls-14" x="133.91" y="56.55" width="0.78" height="0.78"/></g></g><g class="cls-18"><g class="cls-13"><rect class="cls-14" x="127.67" y="50.32" width="0.78" height="0.78"/></g></g><g class="cls-19"><g class="cls-13"><rect class="cls-14" x="133.91" y="50.32" width="0.78" height="0.78"/></g></g><g class="cls-12"><g class="cls-13"><rect class="cls-20" x="128.45" y="62.79" width="0.78" height="0.78"/></g></g><g class="cls-15"><g class="cls-13"><rect class="cls-20" x="134.69" y="62.79" width="0.78" height="0.78"/></g></g><g class="cls-16"><g class="cls-13"><rect class="cls-20" x="128.45" y="56.55" width="0.78" height="0.78"/></g></g><g class="cls-17"><g class="cls-13"><rect class="cls-20" x="134.69" y="56.55" width="0.78" height="0.78"/></g></g><g class="cls-18"><g class="cls-13"><rect class="cls-20" x="128.45" y="50.32" width="0.78" height="0.78"/></g></g><g class="cls-19"><g class="cls-13"><rect class="cls-20" x="134.69" y="50.32" width="0.78" height="0.78"/></g></g><g class="cls-21"><g class="cls-13"><rect class="cls-14" x="123.32" y="62.79" width="0.47" height="0.78"/></g></g><g class="cls-12"><g class="cls-13"><rect class="cls-14" x="129.24" y="62.79" width="0.78" height="0.78"/></g></g><g class="cls-15"><g class="cls-13"><rect class="cls-14" x="135.48" y="62.79" width="0.78" height="0.78"/></g></g><g class="cls-16"><g class="cls-13"><rect class="cls-14" x="129.24" y="56.55" width="0.78" height="0.78"/></g></g><g class="cls-17"><g class="cls-13"><rect class="cls-14" x="135.48" y="56.55" width="0.78" height="0.78"/></g></g><g class="cls-18"><g class="cls-13"><rect class="cls-14" x="129.24" y="50.32" width="0.78" height="0.78"/></g></g><g class="cls-19"><g class="cls-13"><rect class="cls-14" x="135.48" y="50.32" width="0.78" height="0.78"/></g></g><g class="cls-21"><g class="cls-13"><rect class="cls-20" x="123.78" y="62.79" width="0.78" height="0.78"/></g></g><g class="cls-12"><g class="cls-13"><rect class="cls-20" x="130.02" y="62.79" width="0.78" height="0.78"/></g></g><g class="cls-15"><g class="cls-13"><rect class="cls-20" x="136.26" y="62.79" width="0.16" height="0.78"/></g></g><g class="cls-16"><g class="cls-13"><rect class="cls-20" x="130.02" y="56.55" width="0.78" height="0.78"/></g></g><g class="cls-17"><g class="cls-13"><rect class="cls-20" x="136.26" y="56.55" width="0.78" height="0.78"/></g></g><g class="cls-18"><g class="cls-13"><rect class="cls-20" x="130.02" y="50.32" width="0.78" height="0.78"/></g></g><g class="cls-19"><g class="cls-13"><rect class="cls-20" x="136.26" y="50.32" width="0.78" height="0.78"/></g></g><g class="cls-21"><g class="cls-13"><rect class="cls-14" x="124.57" y="62.79" width="0.78" height="0.78"/></g></g><g class="cls-12"><g class="cls-13"><rect class="cls-14" x="130.8" y="62.79" width="0.78" height="0.78"/></g></g><g class="cls-22"><g class="cls-13"><rect class="cls-14" x="124.99" y="56.55" width="0.35" height="0.78"/></g></g><g class="cls-16"><g class="cls-13"><rect class="cls-14" x="130.8" y="56.55" width="0.78" height="0.78"/></g></g><g class="cls-17"><g class="cls-13"><rect class="cls-14" x="137.05" y="56.55" width="0.78" height="0.78"/></g></g><g class="cls-18"><g class="cls-13"><rect class="cls-14" x="130.8" y="50.32" width="0.78" height="0.78"/></g></g><g class="cls-19"><g class="cls-13"><rect class="cls-14" x="137.05" y="50.32" width="0.78" height="0.78"/></g></g><g class="cls-21"><g class="cls-13"><rect class="cls-20" x="125.35" y="62.79" width="0.78" height="0.78"/></g></g><g class="cls-12"><g class="cls-13"><rect class="cls-20" x="131.59" y="62.79" width="0.78" height="0.78"/></g></g><g class="cls-22"><g class="cls-13"><rect class="cls-20" x="125.35" y="56.55" width="0.78" height="0.78"/></g></g><g class="cls-16"><g class="cls-13"><rect class="cls-20" x="131.59" y="56.55" width="0.78" height="0.78"/></g></g><g class="cls-17"><g class="cls-13"><rect class="cls-20" x="137.83" y="56.55" width="0.78" height="0.78"/></g></g><g class="cls-18"><g class="cls-13"><rect class="cls-20" x="131.59" y="50.32" width="0.78" height="0.78"/></g></g><g class="cls-19"><g class="cls-13"><rect class="cls-20" x="137.83" y="50.32" width="0.78" height="0.78"/></g></g><g class="cls-21"><g class="cls-13"><rect class="cls-14" x="126.13" y="62.79" width="0.78" height="0.78"/></g></g><g class="cls-12"><g class="cls-13"><rect class="cls-14" x="132.37" y="62.79" width="0.78" height="0.78"/></g></g><g class="cls-22"><g class="cls-13"><rect class="cls-14" x="126.13" y="56.55" width="0.78" height="0.78"/></g></g><g class="cls-16"><g class="cls-13"><rect class="cls-14" x="132.37" y="56.55" width="0.78" height="0.78"/></g></g><g class="cls-17"><g class="cls-13"><rect class="cls-14" x="138.61" y="56.55" width="0.78" height="0.78"/></g></g><g class="cls-18"><g class="cls-13"><rect class="cls-14" x="132.37" y="50.32" width="0.78" height="0.78"/></g></g><g class="cls-19"><g class="cls-13"><rect class="cls-14" x="138.61" y="50.32" width="0.78" height="0.78"/></g></g><g class="cls-21"><g class="cls-13"><rect class="cls-20" x="126.92" y="62.79" width="0.78" height="0.78"/></g></g><g class="cls-12"><g class="cls-13"><rect class="cls-20" x="133.16" y="62.79" width="0.78" height="0.78"/><rect class="cls-20" x="127.67" y="63.58" width="0.78" height="0.72"/></g></g><g class="cls-15"><g class="cls-13"><rect class="cls-20" x="133.91" y="63.58" width="0.78" height="0.12"/></g></g><g class="cls-22"><g class="cls-13"><rect class="cls-20" x="126.92" y="56.55" width="0.78" height="0.78"/></g></g><g class="cls-16"><g class="cls-13"><rect class="cls-20" x="133.16" y="56.55" width="0.78" height="0.78"/><rect class="cls-20" x="127.67" y="57.34" width="0.78" height="0.78"/></g></g><g class="cls-17"><g class="cls-13"><rect class="cls-20" x="139.4" y="56.55" width="0.09" height="0.78"/><rect class="cls-20" x="133.91" y="57.34" width="0.78" height="0.78"/></g></g><g class="cls-18"><g class="cls-13"><rect class="cls-20" x="133.16" y="50.32" width="0.78" height="0.78"/><rect class="cls-20" x="127.67" y="51.1" width="0.78" height="0.78"/></g></g><g class="cls-19"><g class="cls-13"><rect class="cls-20" x="139.4" y="50.32" width="0.09" height="0.78"/><rect class="cls-20" x="133.91" y="51.1" width="0.78" height="0.78"/></g></g><g class="cls-12"><g class="cls-13"><rect class="cls-14" x="128.45" y="63.58" width="0.78" height="0.72"/></g></g><g class="cls-15"><g class="cls-13"><rect class="cls-14" x="134.69" y="63.58" width="0.78" height="0.12"/></g></g><g class="cls-16"><g class="cls-13"><rect class="cls-14" x="128.45" y="57.34" width="0.78" height="0.78"/></g></g><g class="cls-17"><g class="cls-13"><rect class="cls-14" x="134.69" y="57.34" width="0.78" height="0.78"/></g></g><g class="cls-18"><g class="cls-13"><rect class="cls-14" x="128.45" y="51.1" width="0.78" height="0.78"/></g></g><g class="cls-19"><g class="cls-13"><rect class="cls-14" x="134.69" y="51.1" width="0.78" height="0.78"/></g></g><g class="cls-21"><g class="cls-13"><rect class="cls-20" x="123.32" y="63.58" width="2.03" height="0.72"/></g></g><g class="cls-12"><g class="cls-13"><rect class="cls-20" x="129.24" y="63.58" width="2.35" height="0.72"/></g></g><g class="cls-15"><g class="cls-13"><rect class="cls-20" x="135.48" y="63.58" width="0.95" height="0.12"/></g></g><g class="cls-22"><g class="cls-13"><rect class="cls-20" x="124.99" y="57.34" width="0.35" height="0.78"/></g></g><g class="cls-16"><g class="cls-13"><rect class="cls-20" x="129.24" y="57.34" width="2.35" height="0.78"/></g></g><g class="cls-17"><g class="cls-13"><rect class="cls-20" x="135.48" y="57.34" width="2.35" height="0.78"/></g></g><g class="cls-18"><g class="cls-13"><rect class="cls-20" x="129.24" y="51.1" width="2.35" height="0.78"/></g></g><g class="cls-19"><g class="cls-13"><rect class="cls-20" x="135.48" y="51.1" width="2.35" height="0.78"/></g></g><g class="cls-21"><g class="cls-13"><rect class="cls-14" x="125.35" y="63.58" width="0.78" height="0.72"/></g></g><g class="cls-12"><g class="cls-13"><rect class="cls-14" x="131.59" y="63.58" width="0.78" height="0.72"/></g></g><g class="cls-22"><g class="cls-13"><rect class="cls-14" x="125.35" y="57.34" width="0.78" height="0.78"/></g></g><g class="cls-16"><g class="cls-13"><rect class="cls-14" x="131.59" y="57.34" width="0.78" height="0.78"/></g></g><g class="cls-17"><g class="cls-13"><rect class="cls-14" x="137.83" y="57.34" width="0.78" height="0.78"/></g></g><g class="cls-18"><g class="cls-13"><rect class="cls-14" x="131.59" y="51.1" width="0.78" height="0.78"/></g></g><g class="cls-19"><g class="cls-13"><rect class="cls-14" x="137.83" y="51.1" width="0.78" height="0.78"/></g></g><g class="cls-21"><g class="cls-13"><rect class="cls-20" x="126.13" y="63.58" width="1.57" height="0.72"/></g></g><g class="cls-12"><g class="cls-13"><rect class="cls-20" x="132.37" y="63.58" width="1.57" height="0.72"/></g></g><g class="cls-22"><g class="cls-13"><rect class="cls-20" x="126.13" y="57.34" width="1.57" height="0.78"/></g></g><g class="cls-16"><g class="cls-13"><rect class="cls-20" x="132.37" y="57.34" width="1.57" height="0.78"/></g></g><g class="cls-17"><g class="cls-13"><rect class="cls-20" x="138.61" y="57.34" width="0.87" height="0.78"/></g></g><g class="cls-18"><g class="cls-13"><rect class="cls-20" x="132.37" y="51.1" width="1.57" height="0.78"/></g></g><g class="cls-19"><g class="cls-13"><rect class="cls-20" x="138.61" y="51.1" width="0.87" height="0.78"/></g></g><g class="cls-16"><g class="cls-13"><rect class="cls-14" x="127.67" y="58.12" width="0.78" height="0.78"/></g></g><g class="cls-17"><g class="cls-13"><rect class="cls-14" x="133.91" y="58.12" width="0.78" height="0.78"/></g></g><g class="cls-18"><g class="cls-13"><rect class="cls-14" x="127.67" y="51.88" width="0.78" height="0.78"/></g></g><g class="cls-19"><g class="cls-13"><rect class="cls-14" x="133.91" y="51.88" width="0.78" height="0.78"/></g></g><g class="cls-16"><g class="cls-13"><rect class="cls-20" x="128.45" y="58.12" width="0.78" height="0.78"/></g></g><g class="cls-17"><g class="cls-13"><rect class="cls-20" x="134.69" y="58.12" width="0.78" height="0.78"/></g></g><g class="cls-18"><g class="cls-13"><rect class="cls-20" x="128.45" y="51.88" width="0.78" height="0.78"/></g></g><g class="cls-19"><g class="cls-13"><rect class="cls-20" x="134.69" y="51.88" width="0.78" height="0.78"/></g></g><g class="cls-16"><g class="cls-13"><rect class="cls-14" x="129.24" y="58.12" width="0.78" height="0.78"/></g></g><g class="cls-17"><g class="cls-13"><rect class="cls-14" x="135.48" y="58.12" width="0.78" height="0.78"/></g></g><g class="cls-18"><g class="cls-13"><rect class="cls-14" x="129.24" y="51.88" width="0.78" height="0.78"/></g></g><g class="cls-19"><g class="cls-13"><rect class="cls-14" x="135.48" y="51.88" width="0.78" height="0.78"/></g></g><g class="cls-16"><g class="cls-13"><rect class="cls-20" x="130.02" y="58.12" width="0.78" height="0.78"/></g></g><g class="cls-17"><g class="cls-13"><rect class="cls-20" x="136.26" y="58.12" width="0.78" height="0.78"/></g></g><g class="cls-18"><g class="cls-13"><rect class="cls-20" x="130.02" y="51.88" width="0.78" height="0.78"/></g></g><g class="cls-19"><g class="cls-13"><rect class="cls-20" x="136.26" y="51.88" width="0.78" height="0.78"/></g></g><g class="cls-22"><g class="cls-13"><rect class="cls-14" x="124.99" y="58.12" width="0.35" height="0.78"/></g></g><g class="cls-16"><g class="cls-13"><rect class="cls-14" x="130.8" y="58.12" width="0.78" height="0.78"/></g></g><g class="cls-17"><g class="cls-13"><rect class="cls-14" x="137.05" y="58.12" width="0.78" height="0.78"/></g></g><g class="cls-18"><g class="cls-13"><rect class="cls-14" x="130.8" y="51.88" width="0.78" height="0.78"/></g></g><g class="cls-19"><g class="cls-13"><rect class="cls-14" x="137.05" y="51.88" width="0.78" height="0.78"/></g></g><g class="cls-22"><g class="cls-13"><rect class="cls-20" x="125.35" y="58.12" width="0.78" height="0.78"/></g></g><g class="cls-16"><g class="cls-13"><rect class="cls-20" x="131.59" y="58.12" width="0.78" height="0.78"/></g></g><g class="cls-17"><g class="cls-13"><rect class="cls-20" x="137.83" y="58.12" width="0.78" height="0.78"/></g></g><g class="cls-18"><g class="cls-13"><rect class="cls-20" x="131.59" y="51.88" width="0.78" height="0.78"/></g></g><g class="cls-19"><g class="cls-13"><rect class="cls-20" x="137.83" y="51.88" width="0.78" height="0.78"/></g></g><g class="cls-22"><g class="cls-13"><rect class="cls-14" x="126.13" y="58.12" width="0.78" height="0.78"/></g></g><g class="cls-16"><g class="cls-13"><rect class="cls-14" x="132.37" y="58.12" width="0.78" height="0.78"/></g></g><g class="cls-17"><g class="cls-13"><rect class="cls-14" x="138.61" y="58.12" width="0.78" height="0.78"/></g></g><g class="cls-18"><g class="cls-13"><rect class="cls-14" x="132.37" y="51.88" width="0.78" height="0.78"/></g></g><g class="cls-19"><g class="cls-13"><rect class="cls-14" x="138.61" y="51.88" width="0.78" height="0.78"/></g></g><g class="cls-22"><g class="cls-13"><rect class="cls-20" x="126.92" y="58.12" width="0.78" height="0.78"/><rect class="cls-20" x="124.99" y="58.91" width="2.7" height="0.78"/></g></g><g class="cls-16"><g class="cls-13"><rect class="cls-20" x="133.16" y="58.12" width="0.78" height="0.78"/><rect class="cls-20" x="127.67" y="58.91" width="6.27" height="0.78"/></g></g><g class="cls-17"><g class="cls-13"><rect class="cls-20" x="139.4" y="58.12" width="0.09" height="0.78"/><rect class="cls-20" x="133.91" y="58.91" width="5.58" height="0.78"/></g></g><g class="cls-23"><g class="cls-13"><rect class="cls-20" x="127.27" y="52.27" width="0.42" height="1.18"/></g></g><g class="cls-18"><g class="cls-13"><rect class="cls-20" x="133.16" y="51.88" width="0.78" height="0.78"/><rect class="cls-20" x="127.67" y="52.67" width="6.27" height="0.78"/></g></g><g class="cls-19"><g class="cls-13"><rect class="cls-20" x="139.4" y="51.88" width="0.09" height="0.78"/><rect class="cls-20" x="133.91" y="52.67" width="5.58" height="0.78"/></g></g><g class="cls-24"><g class="cls-13"><rect class="cls-20" x="129.55" y="47.08" width="4.39" height="0.13"/></g></g><g class="cls-25"><g class="cls-13"><rect class="cls-20" x="133.91" y="47.08" width="5.58" height="0.13"/></g></g><polygon class="cls-26" points="129.63 47.09 123.31 64.29 133.49 64.29 139.46 54.82 139.46 47.09 129.63 47.09"/><polygon class="cls-4" points="129.63 47.09 123.31 64.29 133.49 64.29 139.46 54.82 139.46 47.09 129.63 47.09"/><path class="cls-4" d="M104.71,102.38a1.23,1.23,0,1,1-1.23,1.23A1.23,1.23,0,0,1,104.71,102.38Zm31.94-42.3h5.61"/><circle class="cls-20" cx="124.89" cy="56.75" r="6.67"/><circle class="cls-5" cx="124.89" cy="56.75" r="6.67"/><circle class="cls-4" cx="119.45" cy="50.25" r="1.23"/><path class="cls-27" d="M93.45,112.46v-3M84,107.13v5.47h19.4v-5.33"/><circle class="cls-8" cx="88.27" cy="109.42" r="1"/><circle class="cls-27" cx="88.27" cy="109.42" r="1"/><circle class="cls-8" cx="98.45" cy="109.42" r="1"/><circle class="cls-28" cx="98.45" cy="109.42" r="1"/><path class="cls-29" d="M57.13,115.12l-4,16.72M42.74,13.46a3.73,3.73,0,1,1,7.46,0A3.73,3.73,0,1,1,42.74,13.46ZM102.9,52.94L120.26,16.4M93.45,113.1l19.79,19.13"/><line class="cls-4" x1="152.33" y1="105.57" x2="161.49" y2="105.57"/><path class="cls-8" d="M151.23,106.05c0.77,0.23,1.28.45,1.9,0.7v-2.36a18.55,18.55,0,0,1-1.9.7,13.75,13.75,0,0,1-2.07.48,13.85,13.85,0,0,1,2.07.48"/><line class="cls-4" x1="27.77" y1="105.57" x2="36.92" y2="105.57"/><path class="cls-8" d="M26.66,106.05c0.77,0.23,1.28.45,1.9,0.7v-2.36a18.33,18.33,0,0,1-1.9.7,13.74,13.74,0,0,1-2.07.48,14.14,14.14,0,0,1,2.07.48"/><path class="cls-30" d="M158.71,47.53A3.89,3.89,0,1,1,155,51.42,3.81,3.81,0,0,1,158.71,47.53ZM14.2,60.59a3.89,3.89,0,0,1,0,7.78A3.89,3.89,0,0,1,14.2,60.59Z"/><circle class="cls-7" cx="58.03" cy="100.21" r="3.69"/><circle class="cls-8" cx="58.03" cy="100.21" r="1"/><circle class="cls-27" cx="58.03" cy="100.21" r="1"/><rect class="cls-20" x="42.21" y="105.03" width="101.98" height="1.14"/><rect class="cls-4" x="42.21" y="105.03" width="101.98" height="1.14"/><path class="cls-4" d="M101.69,102.55a1.23,1.23,0,1,1-1.23,1.23A1.23,1.23,0,0,1,101.69,102.55Zm-32-15.07a1.23,1.23,0,1,1-1.23,1.23A1.23,1.23,0,0,1,69.71,87.48Zm4.12,6.68a1.23,1.23,0,1,1-1.23,1.23A1.23,1.23,0,0,1,73.82,94.16Z"/><circle class="cls-8" cx="74.09" cy="57.52" r="1"/><circle class="cls-27" cx="74.09" cy="57.52" r="1"/><text class="cls-31" transform="translate(44.98 15.93)">1</text><text class="cls-31" transform="translate(12.7 66.95)">5</text><ellipse class="cls-30" cx="44.17" cy="128.51" rx="3.73" ry="3.89"/><text class="cls-31" transform="translate(42.61 130.98)">4</text><ellipse class="cls-30" cx="121.33" cy="130.07" rx="3.73" ry="3.89"/><text class="cls-31" transform="translate(119.77 132.54)">3</text><text class="cls-31" transform="translate(157.21 53.89)">2</text><text class="cls-9" transform="translate(75.07 63.25)">+</text><text class="cls-9" transform="translate(76.51 61.98)">+</text><text class="cls-9" transform="translate(77.95 60.64)">+</text><text class="cls-9" transform="translate(79.39 59.37)">+</text><text class="cls-9" transform="translate(80.83 58.28)">+</text><text class="cls-9" transform="translate(82.27 57.31)">+</text><text class="cls-9" transform="translate(83.71 56.21)">+</text><text class="cls-9" transform="translate(85.15 55.61)">+</text><text class="cls-9" transform="translate(92.43 54.15)">+</text><text class="cls-9" transform="translate(94.62 53.91)">+</text><text class="cls-9" transform="translate(96.8 54.15)">+</text><text class="cls-9" transform="translate(98.98 54.39)">+</text><text class="cls-9" transform="translate(105.05 56.7)">+</text><text class="cls-9" transform="translate(106.63 57.31)">+</text><text class="cls-9" transform="translate(107.96 58.16)">+</text><text class="cls-9" transform="translate(109.05 59.01)">+</text><text class="cls-9" transform="translate(113.3 63.62)">+</text><text class="cls-9" transform="translate(114.27 64.95)">+</text><text class="cls-9" transform="translate(115.48 66.52)">+</text><text class="cls-9" transform="translate(117.18 70.53)">+</text><text class="cls-9" transform="translate(118.03 72.59)">+</text><text class="cls-9" transform="translate(118.52 77.2)">+</text><text class="cls-9" transform="translate(118.64 79.75)">+</text><text class="cls-9" transform="translate(118.28 82.06)">+</text><text class="cls-9" transform="translate(117.06 87.03)">+</text><text class="cls-9" transform="translate(115.78 90.05)">+</text><text class="cls-9" transform="translate(112.99 93.93)">+</text><text class="cls-9" transform="translate(111.41 95.75)">+</text><text class="cls-9" transform="translate(102.68 101.09)">+</text><text class="cls-9" transform="translate(100.61 101.82)">+</text><text class="cls-9" transform="translate(94.18 102.42)">+</text><text class="cls-9" transform="translate(79.74 97.57)">+</text><text class="cls-9" transform="translate(75.5 93.57)">+</text><text class="cls-9" transform="translate(71.86 87.98)">+</text><text class="cls-9" transform="translate(70.52 82.28)">+</text><text class="cls-9" transform="translate(70.04 77.06)">+</text><text class="cls-32" transform="translate(127.66 50.09)">-</text><text class="cls-32" transform="translate(125.35 49.87)">-</text><text class="cls-32" transform="translate(123.08 49.76)">-</text><text class="cls-32" transform="translate(120.6 50.09)">-</text><text class="cls-32" transform="translate(118.83 51.48)">-</text><text class="cls-32" transform="translate(117.42 53.22)">-</text><text class="cls-32" transform="translate(116.04 54.98)">-</text><text class="cls-32" transform="translate(115.67 57.4)">-</text><text class="cls-32" transform="translate(116.02 59.92)">-</text><text class="cls-32" transform="translate(117.03 62.2)">-</text><text class="cls-32" transform="translate(118.49 64.33)">-</text><text class="cls-32" transform="translate(120.58 70.29)">-</text><text class="cls-32" transform="translate(121.68 72.76)">-</text><text class="cls-32" transform="translate(122.36 77.99)">-</text><text class="cls-32" transform="translate(122.36 80.84)">-</text><text class="cls-32" transform="translate(122.02 83.21)">-</text><text class="cls-32" transform="translate(120.68 88.18)">-</text><text class="cls-32" transform="translate(119.59 90.61)">-</text><text class="cls-32" transform="translate(118.5 92.79)">-</text><text class="cls-32" transform="translate(115.35 97.04)">-</text><text class="cls-32" transform="translate(113.53 98.86)">-</text><text class="cls-32" transform="translate(104.19 104.93)">-</text><text class="cls-32" transform="translate(101.03 105.17)">-</text><text class="cls-32" transform="translate(78.1 100.8)">-</text><text class="cls-32" transform="translate(73.25 96.68)">-</text><text class="cls-32" transform="translate(69.13 90.01)">-</text><text class="cls-32" transform="translate(94.36 105.78)">-</text><text class="cls-33" transform="translate(145.49 114.34)">Под<tspan x="8.82" y="0">а</tspan><tspan x="10.96" y="0">ча</tspan></text><text class="cls-33" transform="translate(72.87 14.45)">Свет</text><text class="cls-33" transform="translate(72.87 20.69)">(лазер или</text><text class="cls-33" transform="translate(72.87 26.93)">светодиодная</text><text class="cls-33" transform="translate(72.87 33.17)">линейка)</text><text class="cls-34" transform="translate(22.48 23.42)">Формирование</text><text class="cls-34" transform="translate(24.77 29.66)">изображения</text><text class="cls-33" transform="translate(42.45 37.46)">К<tspan x="2.97" y="0">оронный</tspan></text><text class="cls-33" transform="translate(42.45 43.7)">разряд</text><text class="cls-33" transform="translate(107.57 14.84)">Фоторецептор</text><text class="cls-33" transform="translate(127.07 27.52)">Скрытое</text><text class="cls-33" transform="translate(127.07 33.76)">электростатичес<tspan x="36.26" y="0">к</tspan><tspan x="38.61" y="0">ое</tspan></text><text class="cls-33" transform="translate(127.07 40)">изображение</text><text class="cls-33" transform="translate(33.86 51.89)">Обработка</text><text class="cls-33" transform="translate(33.86 58.13)">поверхности</text><text class="cls-33" transform="translate(33.86 64.37)">перед э<tspan x="17.02" y="0">к</tspan><tspan x="19.38" y="0">спони-</tspan></text><text class="cls-33" transform="translate(33.86 70.61)">рованием</text><text class="cls-34" transform="translate(4.62 74.9)">Очистка</text><text class="cls-33" transform="translate(32.48 87.77)">Щетка</text><text class="cls-33" transform="translate(32.48 94.4)">Отсос</text><text class="cls-33" transform="translate(23.51 112.73)">Выход</text><text class="cls-34" transform="translate(28.14 138.66)">Закрепление тонера</text><text class="cls-33" transform="translate(23.29 144.9)">(под<tspan x="9.86" y="0">а</tspan><tspan x="12" y="0">ча тепла, давление)</tspan></text><text class="cls-33" transform="translate(66.21 118.19)">Источник</text><text class="cls-33" transform="translate(64.95 124.43)">к<tspan x="2.36" y="0">оронного</tspan></text><text class="cls-33" transform="translate(67.97 130.67)">разряда</text><text class="cls-34" transform="translate(99.09 138.66)">Перенос тонера прямо </text><text class="cls-33" transform="translate(98.98 144.9)">на бума<tspan x="17.22" y="0">г</tspan><tspan x="19.6" y="0">у (или </tspan><tspan x="34.81" y="0">к</tspan><tspan x="37.17" y="0">освенно через </tspan><tspan x="0" y="7.49">промеж</tspan><tspan x="16.99" y="7.49">у</tspan><tspan x="19.57" y="7.49">точный носитель)</tspan></text><text class="cls-34" transform="translate(143.54 62.01)">Нанесение тонера</text><text class="cls-33" transform="translate(134.73 77.62)">Электростатические силы, </text><text class="cls-33" transform="translate(134.73 83.86)">у<tspan x="2.3" y="0">держивающие тонер</tspan></text><text class="cls-33" transform="translate(116.78 114.33)">Бумага</text></svg>