<svg id="Layer_1" data-name="Layer 1" xmlns="http://www.w3.org/2000/svg" viewBox="0 0 329.23 290.17"><defs><style>.cls-1,.cls-11,.cls-13,.cls-14,.cls-15,.cls-19,.cls-24,.cls-26,.cls-28,.cls-29,.cls-30,.cls-33,.cls-34,.cls-35,.cls-36,.cls-38,.cls-39,.cls-6,.cls-8,.cls-9{fill:none;}.cls-1,.cls-39{stroke:#fff;}.cls-1,.cls-24,.cls-28,.cls-30{stroke-linejoin:round;}.cls-1,.cls-19,.cls-30{stroke-width:1.35px;}.cls-2,.cls-3{fill:#fff;}.cls-12,.cls-16,.cls-18,.cls-2,.cls-22,.cls-23,.cls-25,.cls-27,.cls-37,.cls-40,.cls-5,.cls-7{fill-rule:evenodd;}.cls-4,.cls-5{fill:#939598;}.cls-11,.cls-13,.cls-14,.cls-15,.cls-19,.cls-24,.cls-26,.cls-28,.cls-29,.cls-30,.cls-33,.cls-34,.cls-35,.cls-36,.cls-38,.cls-6,.cls-8,.cls-9{stroke:#231f20;}.cls-11,.cls-13,.cls-14,.cls-15,.cls-19,.cls-26,.cls-29,.cls-33,.cls-34,.cls-35,.cls-36,.cls-38,.cls-39,.cls-6,.cls-8,.cls-9{stroke-miterlimit:3.86;}.cls-6{stroke-width:0.38px;}.cls-10,.cls-41,.cls-7{fill:#231f20;}.cls-8{stroke-width:0.32px;}.cls-9{stroke-width:0.42px;}.cls-11,.cls-35{stroke-width:0.17px;}.cls-12,.cls-21{fill:#6dcff6;}.cls-13{stroke-width:1.68px;}.cls-14,.cls-26{stroke-width:0.43px;}.cls-15{stroke-width:0.3px;}.cls-16,.cls-17{fill:#00a651;}.cls-18,.cls-32{fill:#00aeef;}.cls-20{fill:#58595b;}.cls-22{fill:#dcddde;}.cls-23{fill:#8dc63f;}.cls-24,.cls-28{stroke-linecap:round;}.cls-24{stroke-width:0.85px;}.cls-25{fill:#00c0f3;}.cls-26{stroke-dasharray:3 3;}.cls-27,.cls-31{fill:#ec008c;}.cls-28{stroke-width:0.44px;}.cls-29{stroke-width:0.47px;}.cls-33,.cls-34{stroke-width:0.22px;}.cls-33,.cls-35{stroke-dasharray:0.75 0.75;}.cls-36{stroke-width:0.36px;}.cls-37{fill:#f9a870;}.cls-38{stroke-width:0.4px;}.cls-39{stroke-width:0.79px;}.cls-40{fill:#bcbec0;}.cls-41{font-size:9.33px;font-family:Helvetica Neue;}</style></defs><title>ofset</title><path class="cls-1" d="M145,7.9h-7.53a5.84,5.84,0,0,0-5.84,5.84V17"/><polyline class="cls-2" points="231.73 48.16 229.98 48.68 231.07 52.48 232.82 51.97 231.73 48.16"/><rect class="cls-3" x="127.94" y="40.89" width="3.68" height="25.63"/><rect class="cls-3" x="126.27" y="60.84" width="1.67" height="3.96"/><rect class="cls-4" x="127.94" y="40.89" width="3.68" height="25.63"/><rect class="cls-4" x="126.27" y="60.84" width="1.67" height="3.96"/><rect class="cls-3" x="124.6" y="41.56" width="3.34" height="5.43"/><rect class="cls-3" x="126.6" y="54.5" width="1.34" height="4.76"/><rect class="cls-3" x="126.52" y="48.4" width="1.42" height="4.43"/><polyline class="cls-2" points="126.27 65.09 125.79 65.09 125.79 65.85 124.35 64.24 124.35 61.2 125.79 59.59 125.79 60.35 126.27 60.35 126.27 65.09"/><polyline class="cls-3" points="227.93 42.52 229.45 42.06 230.84 46.61 229.32 47.07 227.93 42.52"/><polyline class="cls-5" points="231.73 48.16 229.98 48.68 231.07 52.48 232.82 51.97 231.73 48.16"/><polyline class="cls-2" points="232.89 52.25 233.35 52.11 233.56 52.85 234.5 50.9 233.66 47.98 231.84 46.83 232.05 47.56 231.58 47.69 232.89 52.25"/><polyline class="cls-6" points="127.97 64.8 126.33 64.8 126.33 60.84 127.97 60.84"/><polygon class="cls-7" points="126.33 65.09 125.85 65.09 125.85 65.85 124.41 64.24 124.41 61.2 125.85 59.59 125.85 60.35 126.33 60.35 126.33 65.09"/><polygon class="cls-8" points="126.33 65.09 125.85 65.09 125.85 65.85 124.41 64.24 124.41 61.2 125.85 59.59 125.85 60.35 126.33 60.35 126.33 65.09"/><path class="cls-9" d="M128,47.57h2.4M128,54h2.4M128,59.59h2.4m0,6.93H128V40.89h2.36"/><rect class="cls-10" x="124.66" y="41.56" width="3.3" height="5.43"/><rect class="cls-11" x="124.66" y="41.56" width="3.3" height="5.43"/><rect class="cls-10" x="126.66" y="54.5" width="1.3" height="4.76"/><rect class="cls-11" x="126.66" y="54.5" width="1.3" height="4.76"/><rect class="cls-10" x="126.58" y="48.4" width="1.38" height="4.42"/><rect class="cls-11" x="126.58" y="48.4" width="1.38" height="4.42"/><rect class="cls-10" x="228.62" y="42.09" width="1.59" height="4.76" transform="translate(-3.37 64.95) rotate(-16)"/><rect class="cls-11" x="228.62" y="42.09" width="1.59" height="4.76" transform="translate(-3.37 64.95) rotate(-16)"/><polygon class="cls-7" points="233.1 52.25 233.56 52.11 233.77 52.85 234.71 50.9 233.87 47.98 232.04 46.83 232.25 47.56 231.79 47.69 233.1 52.25"/><polygon class="cls-8" points="233.1 52.25 233.56 52.11 233.77 52.85 234.71 50.9 233.87 47.98 232.04 46.83 232.25 47.56 231.79 47.69 233.1 52.25"/><polyline class="cls-6" points="231.48 52.59 233.03 51.97 231.94 48.16 230.39 48.78"/><path class="cls-12" d="M208,176.73a20.9,20.9,0,0,0,24.15,16.74c11.07-2,18.68-13.13,16.61-24.46A20.74,20.74,0,0,0,208,176.73"/><path class="cls-13" d="M207.75,173.6a14.82,14.82,0,0,0,.25,3.13,20.3,20.3,0,0,0,13.54,15.73,21.91,21.91,0,0,0,10.61,1c11.07-2,18.68-13.13,16.61-24.46a20.77,20.77,0,0,0-24.22-16.46,17.08,17.08,0,0,0-5.55,1.82"/><path class="cls-2" d="M218.56,153.6L223.81,164a9.65,9.65,0,0,0-5.14,5.34,11.49,11.49,0,0,0-.53,4.38l-11.4-.4a21.11,21.11,0,0,1,1.59-8.17,22.49,22.49,0,0,1,10.22-11.52"/><path class="cls-12" d="M218.56,153.6L223.81,164a9.65,9.65,0,0,0-5.14,5.34,11.49,11.49,0,0,0-.53,4.38l-11.4-.4a21.11,21.11,0,0,1,1.59-8.17,22.49,22.49,0,0,1,10.22-11.52"/><path class="cls-14" d="M213.37,157.44a23.34,23.34,0,0,1,5.19-3.84L223.81,164a9.65,9.65,0,0,0-5.14,5.34,11.49,11.49,0,0,0-.53,4.38l-11.4-.4c0-1.12.08-2.24,0.21-3.36"/><path class="cls-15" d="M232.81,184.86a12.73,12.73,0,0,0,8.94-8.35"/><path class="cls-10" d="M231.39,186a30.11,30.11,0,0,1,3,.31l-0.87-3.42a27.19,27.19,0,0,1-2.49,1.71,20.65,20.65,0,0,1-2.82,1.46,20.56,20.56,0,0,1,3.17-.06"/><polyline class="cls-16" points="208.83 163.92 205.48 171.89 204.94 170.55 207.74 163.64 208.83 163.92"/><polyline class="cls-16" points="212.75 166.33 206.84 172.62 208.28 172.57 213.45 167.21 212.75 166.33"/><path class="cls-14" d="M212.73,166.32l-5.91,6.29,1.44,0,5.17-5.37Zm-3.92-2.41-3.34,8-0.54-1.34,2.8-6.91Z"/><path class="cls-17" d="M214.24,164.28a3.38,3.38,0,1,1-4-2.61,3.38,3.38,0,0,1,4,2.61"/><circle class="cls-10" cx="210.91" cy="164.96" r="1.96" transform="translate(-29.66 47.4) rotate(-11.99)"/><circle class="cls-14" cx="210.91" cy="164.96" r="1.96" transform="translate(-29.66 47.4) rotate(-11.99)"/><circle class="cls-14" cx="210.95" cy="164.95" r="3.38" transform="translate(-29.63 47.34) rotate(-11.97)"/><path class="cls-18" d="M185,160.05c0.67,1.32.67,1.32,1.25,1.34,4.95,0.17,9,4.91,9.4,10,0.09,1.13,0,1.3,1.25,1.34l8.5,0.32a20.74,20.74,0,1,1-25.39-20.93,26.91,26.91,0,0,1,5.28-.51L185,160.05"/><path class="cls-19" d="M185.33,151.68a20.75,20.75,0,1,0,20,21.46"/><path class="cls-18" d="M185,160.05a1.3,1.3,0,0,0,1.25,1.34,11.35,11.35,0,0,1,9.4,10,1.3,1.3,0,0,0,1.25,1.34l9.48,0.33a21.75,21.75,0,0,0-21.06-22.39L185,160.05"/><path class="cls-15" d="M179.48,184.58a12.73,12.73,0,0,1-7.53-9.64"/><path class="cls-10" d="M181.28,184.57a29.4,29.4,0,0,1-2.19-2.08l-1.39,3.24a27.2,27.2,0,0,1,3,.16,20.78,20.78,0,0,1,3.12.56,20.59,20.59,0,0,1-2.55-1.88"/><path class="cls-14" d="M201.49,158.61a21.88,21.88,0,0,0-16.12-7.92L185,160.05a1.3,1.3,0,0,0,1.25,1.34,11.35,11.35,0,0,1,9.4,10,1.3,1.3,0,0,0,1.25,1.34l9.48,0.33"/><polyline class="cls-16" points="206.63 172.57 206.63 170.75 204.35 170.75 204.35 172.75 206.63 172.57"/><polygon class="cls-14" points="206.62 172.57 206.62 170.75 204.35 170.75 204.35 172.75 206.62 172.57"/><path class="cls-16" d="M195.73,164.75a4,4,0,1,1,8,0v3.37h4.55l0.09,3.64-1.09-.09V169.2H195.73v-4.46"/><circle class="cls-10" cx="199.74" cy="164.76" r="2.27"/><circle class="cls-14" cx="199.74" cy="164.76" r="2.27"/><path class="cls-14" d="M195.73,164.74a4,4,0,0,1,8,0v3.37h4.55l0.09,3.64-1.09-.09V169.2H195.73v-4.46Z"/><polygon class="cls-7" points="188.75 157.22 188.09 157.21 185.46 157.56 185.47 161.06 188.75 161.07 188.75 157.22"/><polygon class="cls-14" points="188.75 157.22 188.09 157.21 185.46 157.56 185.47 161.06 188.75 161.07 188.75 157.22"/><polyline class="cls-14" points="187.5 151.68 186.93 155.25 188.1 155.48"/><path class="cls-7" d="M188.21,155.5l-0.13,1.12a1.46,1.46,0,0,1,.34.94,1.47,1.47,0,0,1-2.95,0l0.8-5.06,1-1a0.51,0.51,0,0,1,.2-0.12,0.48,0.48,0,0,1,.13,0l-0.05.3,1.19,0.13-0.58,3.67h0.1Z"/><path class="cls-14" d="M188.21,155.5l-0.13,1.12a1.46,1.46,0,0,1,.34.94,1.47,1.47,0,0,1-2.95,0l0.8-5.06,1-1a0.51,0.51,0,0,1,.2-0.12,0.48,0.48,0,0,1,.13,0l-0.05.3,1.19,0.13-0.58,3.67h0.1Z"/><polygon class="cls-7" points="188.53 152.81 189.31 152.92 188.96 155.2 188.19 155.07 188.53 152.81"/><polygon class="cls-14" points="188.53 152.81 189.31 152.92 188.96 155.2 188.19 155.07 188.53 152.81"/><rect class="cls-10" x="188.75" y="158.79" width="0.79" height="2.28"/><rect class="cls-14" x="188.75" y="158.79" width="0.79" height="2.28"/><circle class="cls-20" cx="186.95" cy="157.6" r="0.75"/><circle class="cls-14" cx="186.95" cy="157.6" r="0.75"/><path class="cls-12" d="M139.55,198.24c1.27,0.76,1.27.76,1.25,1.34-0.17,4.95,4.27,9.28,9.34,10.08,1.12,0.17,1.29.12,1.25,1.34l-0.27,8.5A20.73,20.73,0,1,0,132,192.72a26.83,26.83,0,0,0-.88,5.23l8.42,0.29"/><path class="cls-19" d="M131.18,197.94a20.75,20.75,0,1,1,20,21.46"/><path class="cls-12" d="M139.55,198.24a1.29,1.29,0,0,1,1.25,1.34,11.36,11.36,0,0,0,9.34,10.08,1.29,1.29,0,0,1,1.25,1.34l-0.33,9.48a21.74,21.74,0,0,1-20.87-22.57l9.36,0.33"/><path class="cls-16" d="M147.08,217.36l1.79,0.26-0.11,3.1,1.77,0.06v0.34l-1.21.22-0.77,0-0.58-.69-1.27,0-5.58-4.67-1.51-.75,0.13-3.8,1.17,0,0.62,0.29a1.36,1.36,0,0,0,.46.08,2.73,2.73,0,0,0,.71-0.14,3,3,0,0,1,4.35,2.79l0,2.94"/><path class="cls-14" d="M147.08,217.36l1.79,0.26-0.11,3.1,1.77,0.06v0.34l-1.21.22-0.77,0-0.58-.69-1.27,0-5.58-4.67-1.51-.75,0.13-3.8,1.17,0,0.62,0.29a1.36,1.36,0,0,0,.46.08,2.73,2.73,0,0,0,.71-0.14,3,3,0,0,1,4.35,2.79Z"/><polyline class="cls-16" points="149.44 220.34 150.75 220.38 150.81 218.51 149.51 218.47 149.44 220.34"/><rect class="cls-14" x="149.19" y="218.77" width="1.87" height="1.3" transform="translate(-74.36 361.87) rotate(-88.02)"/><path class="cls-10" d="M143.82,216.62a2.27,2.27,0,1,1,2.35-2.19,2.27,2.27,0,0,1-2.35,2.19"/><circle class="cls-14" cx="143.9" cy="214.35" r="2.27" transform="translate(-75.39 350.6) rotate(-87.98)"/><path class="cls-15" d="M164.37,196.15a12.73,12.73,0,0,0-7.87-9.37"/><path class="cls-10" d="M165.39,197.63c0.12-1.2.29-2,.47-3l-3.46.69a27.94,27.94,0,0,1,1.58,2.58,20.88,20.88,0,0,1,1.31,2.89,20.87,20.87,0,0,1,.1-3.17"/><path class="cls-14" d="M140.4,217.21a21.88,21.88,0,0,1-10.21-19.3l9.36,0.33a1.29,1.29,0,0,1,1.25,1.34,11.36,11.36,0,0,0,9.34,10.08,1.29,1.29,0,0,1,1.25,1.34l-0.33,9.48"/><path class="cls-21" d="M93.76,163.43a39,39,0,0,1,.42,77.78"/><path class="cls-15" d="M101.92,180.37a25.1,25.1,0,0,1,9.22,8.31"/><path class="cls-10" d="M100.12,180.26a29.5,29.5,0,0,1,2,2.22l1.61-3.14a27.82,27.82,0,0,1-3-.36,20.73,20.73,0,0,1-3.08-.77,20.74,20.74,0,0,1,2.42,2"/><path class="cls-19" d="M120,227.92a38.93,38.93,0,0,1-26.75,13.34M93,163.33a39.06,39.06,0,0,1,35.55,47.86"/><path class="cls-2" d="M120.14,228.63a37,37,0,0,0,9.51-18.41l-10.3,3.9-11.43-2.73a19.77,19.77,0,0,1-3,3.89l-0.23,2.15,10.79,9.38,3.06,0.46,1.58,1.36"/><path class="cls-12" d="M120.14,228.63a37,37,0,0,0,9.51-18.41l-10.3,3.9-11.43-2.73a19.77,19.77,0,0,1-3,3.89l-0.23,2.15,10.79,9.38,3.06,0.46,1.58,1.36"/><path class="cls-14" d="M125.93,220.63a35.21,35.21,0,0,0,3.72-10.41l-10.3,3.9-11.43-2.73a19.77,19.77,0,0,1-3,3.89l-0.23,2.15,10.79,9.38,3.06,0.46,1.58,1.36"/><polyline class="cls-16" points="120.58 228.56 119.73 229.54 118.32 228.32 119.17 227.33 120.58 228.56"/><rect class="cls-14" x="118.8" y="227.5" width="1.3" height="1.87" transform="translate(-131.3 168.61) rotate(-48.98)"/><path class="cls-16" d="M120,224.8l-1,1.49,2.34,2-1.16,1.34,0.25,0.22,1-.73,0.5-.58-0.11-.89,0.83-1,0.39-7.27,0.48-1.62-2.87-2.5-0.77.88-0.21.65a1.4,1.4,0,0,1-.26.4,2.71,2.71,0,0,1-.59.42,3,3,0,0,0-.92,5.08l2.13,2"/><path class="cls-14" d="M120,224.8l-1,1.49,2.34,2-1.16,1.34,0.25,0.22,1-.73,0.5-.58-0.11-.89,0.83-1,0.39-7.27,0.48-1.62-2.87-2.5-0.77.88-0.21.65a1.4,1.4,0,0,1-.26.4,2.71,2.71,0,0,1-.59.42,3,3,0,0,0-.92,5.08Z"/><path class="cls-10" d="M121.67,222a2.27,2.27,0,1,0-3.21.22,2.27,2.27,0,0,0,3.21-.22"/><circle class="cls-14" cx="119.96" cy="220.48" r="2.27" transform="translate(-125.12 166.29) rotate(-48.98)"/><path class="cls-22" d="M174.86,107.17l-9-.18,0.18,6.75-0.3,2.38c0.06,0.7.11,1.74,0.11,1.74a26.63,26.63,0,0,1-3.83-1,19.91,19.91,0,1,1,24-7,2.07,2.07,0,0,1-.53.57l-6.23-6.2c-0.13-.65,0-0.75-0.65-0.7a1.32,1.32,0,0,0-.83.37l-3,3.37h0"/><path class="cls-22" d="M174.86,107.17l3-3.37a1.32,1.32,0,0,1,.83-0.37c0.68,0,.51,0,0.65.7l7,6.84c-3.34,4.48-9.07,7.32-15.09,7.74-2.9.2-1.22-1.27-3.31-1.75,0,0-2.07-.16-2.13-0.86l0.3-2.38L165.88,107l9,0.18"/><path class="cls-7" d="M186.3,110.71l-6.23-6.2a1.35,1.35,0,0,0-1.41-1.07,1.32,1.32,0,0,0-.83.37l-2.72,3.08,1.64,2.23h1.67a1.2,1.2,0,0,1,1.39,1.21,1.36,1.36,0,0,0,.67.33,1.14,1.14,0,0,0,.46-0.48,0.76,0.76,0,0,1,.63-0.18,1.43,1.43,0,0,1,.53.39l2.53,2.28s0.55-.57.88-1S186.3,110.71,186.3,110.71Z"/><path class="cls-14" d="M186.3,110.71l-6.23-6.2a1.35,1.35,0,0,0-1.41-1.07,1.32,1.32,0,0,0-.83.37l-2.72,3.08,1.64,2.23h1.67a1.2,1.2,0,0,1,1.39,1.21,1.36,1.36,0,0,0,.67.33,1.14,1.14,0,0,0,.46-0.48,0.76,0.76,0,0,1,.63-0.18,1.43,1.43,0,0,1,.53.39l2.53,2.28s0.55-.57.88-1S186.3,110.71,186.3,110.71Z"/><rect class="cls-10" x="173.11" y="111.43" width="2.32" height="6.09" transform="translate(-7.81 12.89) rotate(-4.14)"/><rect class="cls-14" x="173.11" y="111.43" width="2.32" height="6.09" transform="translate(-7.81 12.89) rotate(-4.14)"/><polygon class="cls-7" points="169.27 116.8 166.11 117.02 165.88 106.99 168.78 107.05 169.27 116.8"/><polygon class="cls-14" points="169.27 116.8 166.11 117.02 165.88 106.99 168.78 107.05 169.27 116.8"/><path class="cls-16" d="M181.75,110.8l2.37,2.36-0.69.64-2.79,1.49-4.74-5-0.63.49-0.76-.77,1.27-1.29,1.45,1.14a1.47,1.47,0,0,1,2.75.61,1.42,1.42,0,0,1,0,.47l0.75,0.1a0.45,0.45,0,0,0,.33-0.24,0.45,0.45,0,0,1,.73,0h0"/><path class="cls-14" d="M181.75,110.8l2.37,2.36-0.69.64-2.79,1.49-4.74-5-0.63.49-0.76-.77,1.27-1.29,1.45,1.14a1.47,1.47,0,0,1,2.75.61,1.42,1.42,0,0,1,0,.47l0.75,0.1a0.45,0.45,0,0,0,.33-0.24,0.45,0.45,0,0,1,.73,0h0Z"/><path class="cls-19" d="M165.86,117.86a26.63,26.63,0,0,1-3.83-1,19.91,19.91,0,1,1,24-7,2.07,2.07,0,0,1-.53.57"/><polyline class="cls-16" points="168.84 117.8 166.94 117.93 166.87 116.69 168.78 116.55 168.84 117.8"/><polygon class="cls-14" points="168.84 117.8 166.94 117.93 166.87 116.69 168.78 116.55 168.84 117.8"/><path class="cls-15" d="M160.34,89.94A12.74,12.74,0,0,1,172,86.16"/><path class="cls-10" d="M159.73,91.63a29.89,29.89,0,0,1,2.7-1.35l-2.57-2.42a27.93,27.93,0,0,1-1.19,2.78,20.54,20.54,0,0,1-1.59,2.74,20.74,20.74,0,0,1,2.64-1.75"/><path class="cls-14" d="M172.09,107.12l2.77,0.06,0.66-.75m4.45,9.82a21.94,21.94,0,0,1-5,1.87"/><circle class="cls-10" cx="178.59" cy="111.01" r="0.73" transform="matrix(0.87, -0.49, 0.49, 0.87, -31.43, 100.57)"/><circle class="cls-11" cx="178.59" cy="111.01" r="0.73" transform="matrix(0.87, -0.49, 0.49, 0.87, -31.43, 100.57)"/><path class="cls-16" d="M169.42,117.76L168.88,107l3.69,0,0.94,12-4,.2-3.07-.39a0.23,0.23,0,0,1-.09-0.32l0.46-.55,2.63-.21"/><path class="cls-14" d="M249.37,239.16c-22.12-22.33-46-52.9-42.57-69.7m-37.38-51.69L168.88,107l3.69,0,0.94,12-4,.2-3.07-.39a0.23,0.23,0,0,1-.09-0.32l0.46-.55Z"/><path class="cls-23" d="M163.22,119.57a20,20,0,1,0,14.87,22.62l-2.42-.81-1.13.53-2.86,3-7.49-1.51a1.24,1.24,0,0,1-.9-1.5l0.37-1.68a5.51,5.51,0,0,0-4-6.68l-2.3-.41a1.24,1.24,0,0,1-.9-1.5l1.66-7.49L162,122.7l0.95-.81,0.3-2.33"/><path class="cls-15" d="M147,142.27a12.72,12.72,0,0,0,8.19,9.08"/><path class="cls-10" d="M145.89,140.83c-0.07,1.2-.21,2-0.36,3L149,143a27.57,27.57,0,0,1-1.67-2.52,20.59,20.59,0,0,1-1.41-2.84,20.86,20.86,0,0,1,0,3.17"/><path class="cls-23" d="M175.66,141.38l-1.13.53-2.86,3-7.49-1.51a1.24,1.24,0,0,1-.9-1.5l0.37-1.68a5.51,5.51,0,0,0-4-6.68l-2.3-.41a1.24,1.24,0,0,1-.9-1.5l1.66-7.49L162,122.7l0.95-.81,0.25-3.17c3.3,0.82,6.9,2,9.53,4.53a24.15,24.15,0,0,1,5.23,7.67,21.52,21.52,0,0,1,1.22,11.65l-3.49-1.2"/><path class="cls-14" d="M175.66,141.38l-1.13.53-2.86,3-7.49-1.51a1.24,1.24,0,0,1-.9-1.5l0.37-1.68a5.51,5.51,0,0,0-4-6.68l-2.3-.41a1.24,1.24,0,0,1-.9-1.5l1.66-7.49L162,122.7l0.95-.81,0.25-3.17c3.3,0.82,6.9,2,9.53,4.53a24.15,24.15,0,0,1,5.23,7.67,21.52,21.52,0,0,1,1.22,11.65Z"/><polyline class="cls-24" points="171.94 136.72 174.39 137.33 178.09 142.19"/><path class="cls-19" d="M163.22,119.57a20,20,0,1,0,14.87,22.62"/><path class="cls-14" d="M172,134.26l-0.18.7m-1.1-1-0.18.7"/><path class="cls-7" d="M170,133.78a1,1,0,0,1,.36-0.07,0.94,0.94,0,0,1,.33.24,2.4,2.4,0,0,1,.71,0,2.51,2.51,0,0,1,.55.31,1.14,1.14,0,0,1,.43,0,0.52,0.52,0,0,1,.33.25l-0.18.69-2.68-.67Z"/><path class="cls-14" d="M170,133.78a1,1,0,0,1,.36-0.07,0.94,0.94,0,0,1,.33.24,2.4,2.4,0,0,1,.71,0,2.51,2.51,0,0,1,.55.31,1.14,1.14,0,0,1,.43,0,0.52,0.52,0,0,1,.33.25l-0.18.69-2.68-.67Z"/><path class="cls-7" d="M172.4,134.2a1.14,1.14,0,0,0-.43.06,2.51,2.51,0,0,0-.55-0.31,2.4,2.4,0,0,0-.71,0,0.94,0.94,0,0,0-.33-0.24Z"/><path class="cls-14" d="M172.4,134.2a1.14,1.14,0,0,0-.43.06,2.51,2.51,0,0,0-.55-0.31,2.4,2.4,0,0,0-.71,0,0.94,0.94,0,0,0-.33-0.24Z"/><path class="cls-7" d="M168.25,139.07l1.35-4.65,3.92,1,0.5,0.76-0.25,1a3.48,3.48,0,1,1-5.52,1.91"/><path class="cls-14" d="M168.25,139.07l1.35-4.65,3.92,1,0.5,0.76-0.25,1A3.48,3.48,0,1,1,168.25,139.07Z"/><polyline class="cls-24" points="165.73 127.43 166.17 124.95 163.24 119.6"/><path class="cls-14" d="M167.82,128.55l-0.71-.17m0.39,1.44-0.7-.17"/><path class="cls-7" d="M167.32,130.51a0.9,0.9,0,0,0,.23-0.28,1,1,0,0,0-.05-0.41,1.36,1.36,0,0,0,.31-1.26,1.14,1.14,0,0,0,.24-0.36,0.51,0.51,0,0,0-.07-0.41l-0.69-.16-0.67,2.68Z"/><path class="cls-14" d="M167.32,130.51a0.9,0.9,0,0,0,.23-0.28,1,1,0,0,0-.05-0.41,1.36,1.36,0,0,0,.31-1.26,1.14,1.14,0,0,0,.24-0.36,0.51,0.51,0,0,0-.07-0.41l-0.69-.16-0.67,2.68Z"/><path class="cls-7" d="M168.06,128.22a1.1,1.1,0,0,1-.25.35,2.36,2.36,0,0,1,0,.63,2.38,2.38,0,0,1-.32.63,1,1,0,0,1,.05.41Z"/><path class="cls-14" d="M168.06,128.22a1.1,1.1,0,0,1-.25.35,2.36,2.36,0,0,1,0,.63,2.38,2.38,0,0,1-.32.63,1,1,0,0,1,.05.41Z"/><path class="cls-7" d="M161.82,129.59l4.74,1,1-3.92-0.44-.8-1-.25a3.48,3.48,0,1,0-4.27,4"/><path class="cls-14" d="M161.82,129.59l4.74,1,1-3.92-0.44-.8-1-.25A3.48,3.48,0,1,0,161.82,129.59Z"/><path class="cls-25" d="M270.43,239.48a39,39,0,0,1-.39-74.81"/><path class="cls-19" d="M269.94,239.34a39,39,0,0,1-.15-74.58"/><path class="cls-14" d="M273.58,193.31l-19.32-19.67m15.66,29.42-10,1.45"/><line class="cls-26" x1="275.04" y1="192.22" x2="258.65" y2="169.14"/><path class="cls-15" d="M256.35,199.54A25.14,25.14,0,0,1,261.09,187"/><path class="cls-10" d="M256.92,201.25a30,30,0,0,1,1.29-2.73l-3.51-.32a27.33,27.33,0,0,1,.78,2.92,20.62,20.62,0,0,1,.44,3.14,20.75,20.75,0,0,1,1-3"/><path class="cls-2" d="M241.79,207.44a40,40,0,0,0,26.9,32.49l5.72-15.9a2.14,2.14,0,0,0,0-1.25,1.42,1.42,0,0,0-.92-0.66,21.62,21.62,0,0,1-13.54-17.6l-18.16,2.92"/><path class="cls-12" d="M241.79,207.44a40,40,0,0,0,26.9,32.49l5.72-15.9a2.14,2.14,0,0,0,0-1.25,1.42,1.42,0,0,0-.92-0.66,21.62,21.62,0,0,1-13.54-17.6l-18.16,2.92"/><path class="cls-14" d="M241.79,207.44a40,40,0,0,0,26.9,32.49l5.72-15.9a2.14,2.14,0,0,0,0-1.25,1.42,1.42,0,0,0-.92-0.66,21.62,21.62,0,0,1-13.54-17.6Z"/><polyline class="cls-27" points="158.02 17.03 173.23 17.03 173.23 24.25 158.02 17.03"/><path class="cls-5" d="M173.9,25.4v4.72l-6.48,4.18A3.67,3.67,0,0,1,160.34,33L146.6,31l-4.39-3.23-5.7-8.17V14.51a0.77,0.77,0,0,1,.31-0.31,0.81,0.81,0,0,1,.87,0l2.75,1.22L143,10l29.58,13.89Z"/><path class="cls-28" d="M173.9,25.4v4.72l-6.48,4.18A3.67,3.67,0,0,1,160.34,33L146.6,31l-4.39-3.23-5.7-8.17V14.51a0.77,0.77,0,0,1,.31-0.31,0.81,0.81,0,0,1,.87,0l2.75,1.22L143,10l29.58,13.89Z"/><path class="cls-5" d="M139.35,8.38a0.38,0.38,0,0,0,.23.53l0.56,0.27-0.77,1.65c-0.21-.1-0.21-0.09-0.57-0.26a0.38,0.38,0,0,0-.55.16C138.17,10.88,139.41,8.21,139.35,8.38Z"/><path class="cls-28" d="M139.35,8.38a0.38,0.38,0,0,0,.23.53l0.56,0.27-0.77,1.65c-0.21-.1-0.21-0.09-0.57-0.26a0.38,0.38,0,0,0-.55.16C138.17,10.88,139.41,8.21,139.35,8.38Z"/><rect class="cls-4" x="138.2" y="10" width="4.72" height="2.96" rx="0.47" ry="0.47" transform="translate(70.72 134.01) rotate(-64.99)"/><rect class="cls-28" x="138.2" y="10" width="4.72" height="2.96" rx="0.47" ry="0.47" transform="translate(70.72 134.01) rotate(-64.99)"/><path class="cls-5" d="M138.36,8.29A0.52,0.52,0,0,1,138.62,8h0l0.74,0.35-1.09,2.34-0.73-.34a0.45,0.45,0,0,1,0-.35l0.81-1.74h0Z"/><path class="cls-28" d="M138.36,8.29A0.52,0.52,0,0,1,138.62,8h0l0.74,0.35-1.09,2.34-0.73-.34a0.45,0.45,0,0,1,0-.35l0.81-1.74h0Z"/><path class="cls-28" d="M137.54,10a0.49,0.49,0,0,1,.26-0.23A1.42,1.42,0,0,1,138,9.15a1.45,1.45,0,0,1,.4-0.53,0.49,0.49,0,0,1,0-.34M139.08,9l-0.73-.34m0.18,1.51L137.8,9.8"/><circle class="cls-20" cx="164.01" cy="32.99" r="1.66"/><circle class="cls-28" cx="164.01" cy="32.99" r="1.66"/><polyline class="cls-28" points="149.46 13.01 175.6 13.01 175.6 14.01"/><rect class="cls-4" x="156.02" y="-1.35" width="0.59" height="35.8" transform="translate(75.36 151.29) rotate(-65.05)"/><rect class="cls-28" x="156.02" y="-1.35" width="0.59" height="35.8" transform="translate(75.36 151.29) rotate(-65.05)"/><path class="cls-27" d="M171.69,20.34a7.13,7.13,0,1,1,7.13,7.13,7.13,7.13,0,0,1-7.13-7.13"/><circle class="cls-28" cx="178.82" cy="20.34" r="7.13"/><path class="cls-10" d="M178.82,16.57A3.77,3.77,0,1,1,175,20.34a3.77,3.77,0,0,1,3.77-3.77"/><circle class="cls-29" cx="178.82" cy="20.34" r="3.77"/><path class="cls-30" d="M270.44,143.68H240.13a7,7,0,0,1-7-7.2V62.36l-16.8-51c-1.46-2.92-3.93-3.44-6.68-3.44H144.77"/><path class="cls-2" d="M126.29,76.69a2,2,0,1,1,2,2,2,2,0,0,1-2-2"/><path class="cls-2" d="M166.4,119.14s-4.88-.94-3.39-0.72a6.52,6.52,0,0,0,3.06-.25l0.33,1"/><polyline class="cls-7" points="167.02 118.04 162.41 118.05 167.03 116.78 167.02 118.04"/><path class="cls-31" d="M189.78,32.81a6.57,6.57,0,1,1-6.57,6.58,6.57,6.57,0,0,1,6.57-6.58"/><circle class="cls-14" cx="189.78" cy="39.39" r="6.57"/><path class="cls-31" d="M212.49,37.18a4.33,4.33,0,1,1-4.33,4.33,4.33,4.33,0,0,1,4.33-4.33"/><circle class="cls-14" cx="212.49" cy="41.51" r="4.33"/><path class="cls-31" d="M196.09,46.64a6.63,6.63,0,1,1-6.62,6.62,6.63,6.63,0,0,1,6.62-6.62"/><circle class="cls-14" cx="196.09" cy="53.26" r="6.63"/><path class="cls-31" d="M209.09,63.43a4.38,4.38,0,1,1-4.38,4.38,4.38,4.38,0,0,1,4.38-4.38"/><circle class="cls-14" cx="209.09" cy="67.82" r="4.38"/><path class="cls-31" d="M175.38,46.84A5.11,5.11,0,1,1,170.26,52a5.11,5.11,0,0,1,5.12-5.11"/><circle class="cls-14" cx="175.38" cy="51.96" r="5.12"/><path class="cls-31" d="M190.36,62.5a6.63,6.63,0,1,1-6.62,6.63,6.63,6.63,0,0,1,6.62-6.63"/><circle class="cls-14" cx="190.36" cy="69.12" r="6.63"/><path class="cls-31" d="M156.54,46.64A4.33,4.33,0,1,1,152.21,51a4.33,4.33,0,0,1,4.33-4.33"/><circle class="cls-14" cx="156.54" cy="50.97" r="4.33"/><path class="cls-31" d="M155.44,60a6.57,6.57,0,1,1-6.58,6.57A6.57,6.57,0,0,1,155.44,60"/><circle class="cls-14" cx="155.44" cy="66.56" r="6.57"/><path class="cls-31" d="M172.2,63.54a4.33,4.33,0,1,1-4.34,4.33,4.33,4.33,0,0,1,4.34-4.33"/><circle class="cls-14" cx="172.19" cy="67.87" r="4.33"/><path class="cls-32" d="M201.62,81.07a4.33,4.33,0,1,1-4.33,4.33,4.33,4.33,0,0,1,4.33-4.33"/><circle class="cls-14" cx="201.62" cy="85.4" r="4.33"/><circle class="cls-10" cx="189.78" cy="39.39" r="3.29"/><circle class="cls-14" cx="189.78" cy="39.39" r="3.29"/><circle class="cls-10" cx="212.49" cy="41.51" r="2.17"/><circle class="cls-14" cx="212.49" cy="41.51" r="2.17"/><circle class="cls-10" cx="196.09" cy="53.26" r="3.31"/><circle class="cls-14" cx="196.09" cy="53.26" r="3.31"/><circle class="cls-10" cx="175.38" cy="51.96" r="2.56"/><circle class="cls-14" cx="175.38" cy="51.96" r="2.56"/><circle class="cls-10" cx="156.54" cy="50.96" r="2.16"/><circle class="cls-14" cx="156.54" cy="50.96" r="2.16"/><circle class="cls-10" cx="155.44" cy="66.56" r="3.29"/><circle class="cls-14" cx="155.44" cy="66.56" r="3.29"/><circle class="cls-10" cx="172.19" cy="67.87" r="2.17"/><circle class="cls-14" cx="172.19" cy="67.87" r="2.17"/><circle class="cls-10" cx="190.36" cy="69.12" r="3.31"/><circle class="cls-14" cx="190.36" cy="69.12" r="3.31"/><circle class="cls-10" cx="209.09" cy="67.82" r="2.19"/><circle class="cls-14" cx="209.09" cy="67.82" r="2.19"/><circle class="cls-10" cx="201.62" cy="85.4" r="2.16"/><circle class="cls-14" cx="201.62" cy="85.4" r="2.16"/><path class="cls-32" d="M197.45,89.25a6.69,6.69,0,1,1-6.69,6.69,6.69,6.69,0,0,1,6.69-6.69"/><circle class="cls-14" cx="197.45" cy="95.94" r="6.69"/><path class="cls-31" d="M191.24,75.86A6.15,6.15,0,1,1,185.1,82a6.15,6.15,0,0,1,6.14-6.15"/><circle class="cls-14" cx="191.24" cy="82.01" r="6.15"/><path class="cls-31" d="M179.5,69a5.4,5.4,0,1,1-5.41,5.4A5.4,5.4,0,0,1,179.5,69"/><circle class="cls-14" cx="179.5" cy="74.44" r="5.4"/><path class="cls-31" d="M164.78,68.6a4.91,4.91,0,1,1-4.91,4.91,4.91,4.91,0,0,1,4.91-4.91"/><circle class="cls-14" cx="164.78" cy="73.5" r="4.91"/><path class="cls-31" d="M152.36,72.92a5.8,5.8,0,1,1-5.8,5.8,5.8,5.8,0,0,1,5.8-5.8"/><circle class="cls-14" cx="152.36" cy="78.72" r="5.8"/><path class="cls-31" d="M200.69,59a4.81,4.81,0,1,1-4.81,4.81A4.81,4.81,0,0,1,200.69,59"/><circle class="cls-14" cx="200.69" cy="63.8" r="4.81"/><path class="cls-31" d="M184.46,52.36A5.65,5.65,0,1,1,178.81,58a5.65,5.65,0,0,1,5.65-5.65"/><circle class="cls-14" cx="184.46" cy="58.01" r="5.65"/><path class="cls-31" d="M165.09,50.69a5.7,5.7,0,1,1-5.7,5.7,5.7,5.7,0,0,1,5.7-5.7"/><circle class="cls-14" cx="165.1" cy="56.39" r="5.7"/><path class="cls-31" d="M149.39,51.89a4.76,4.76,0,1,1-4.76,4.76,4.76,4.76,0,0,1,4.76-4.76"/><circle class="cls-14" cx="149.39" cy="56.65" r="4.76"/><path class="cls-31" d="M202.25,36.61a5.7,5.7,0,1,1-5.7,5.7,5.7,5.7,0,0,1,5.7-5.7"/><path class="cls-14" d="M197.45,92.59a3.35,3.35,0,1,1-3.35,3.35A3.34,3.34,0,0,1,197.45,92.59Zm-6.21-13.66A3.07,3.07,0,1,1,188.17,82,3.07,3.07,0,0,1,191.24,78.94ZM179.5,71.74a2.7,2.7,0,1,1-2.7,2.7A2.7,2.7,0,0,1,179.5,71.74Zm-14.72-.69a2.45,2.45,0,1,1-2.45,2.45A2.45,2.45,0,0,1,164.78,71.05Zm-12.42,4.77a2.9,2.9,0,1,1-2.9,2.9A2.9,2.9,0,0,1,152.36,75.82Zm-3-21.55A2.38,2.38,0,1,1,147,56.65,2.38,2.38,0,0,1,149.39,54.27Zm15.71-.73a2.85,2.85,0,1,1-2.85,2.85A2.85,2.85,0,0,1,165.09,53.54Zm19.37,1.64A2.83,2.83,0,1,1,181.64,58,2.83,2.83,0,0,1,184.46,55.18Zm16.22,6.21a2.4,2.4,0,1,1-2.4,2.4A2.4,2.4,0,0,1,200.69,61.4Zm1.57-21.94a2.85,2.85,0,1,1-2.85,2.85A2.85,2.85,0,0,1,202.25,39.45Zm0-2.85a5.7,5.7,0,1,1-5.7,5.7A5.7,5.7,0,0,1,202.25,36.61Z"/><path class="cls-32" d="M210,88.36a5.7,5.7,0,1,1-5.7,5.7,5.7,5.7,0,0,1,5.7-5.7"/><circle class="cls-14" cx="209.97" cy="94.06" r="5.7"/><circle class="cls-10" cx="209.97" cy="94.06" r="2.85"/><circle class="cls-14" cx="209.97" cy="94.06" r="2.85"/><path class="cls-32" d="M201.36,102.3a4.86,4.86,0,1,1-4.86,4.86,4.86,4.86,0,0,1,4.86-4.86"/><circle class="cls-14" cx="201.36" cy="107.16" r="4.86"/><circle class="cls-10" cx="201.36" cy="107.16" r="2.43"/><circle class="cls-14" cx="201.36" cy="107.16" r="2.43"/><path class="cls-33" d="M215,67.72l2.59-.08M218,68l-3.34.92m3.34-1.5-3.34-.75M218,68.55l-3.59,1.92m3.76-3.59L214.57,65"/><path class="cls-34" d="M218.83,66.88a2.4,2.4,0,0,1,1.84-1A2.24,2.24,0,0,1,222.75,68a2.1,2.1,0,0,1-2.09,2,2.17,2.17,0,0,1-2-1.34m-0.83-2.42a3.81,3.81,0,0,1,2.84-1.59A3.37,3.37,0,0,1,223.83,68a3.19,3.19,0,0,1-3.17,3.25,3.3,3.3,0,0,1-3-2"/><rect class="cls-32" x="210.03" y="108.03" width="20.97" height="3.76"/><polyline class="cls-14" points="231 99.05 231 111.78 210.03 111.78 210.03 108.03"/><path class="cls-35" d="M210.13,108.14H230.9m-20.77,2.49H230.9m-20.77-1.36H230.9"/><path class="cls-32" d="M220.67,95.05a7.93,7.93,0,1,1-7.93,7.93,7.93,7.93,0,0,1,7.93-7.93"/><path class="cls-14" d="M220.67,99a4,4,0,1,1-4,4A4,4,0,0,1,220.67,99Zm0-4a7.93,7.93,0,1,1-7.93,7.93A7.93,7.93,0,0,1,220.67,95.05Z"/><path class="cls-10" d="M180.8,35.07a1.84,1.84,0,1,1-2.08,1.56,1.83,1.83,0,0,1,2.08-1.56"/><path class="cls-31" d="M189.36,22.2a4.67,4.67,0,1,1-5.28,4,4.68,4.68,0,0,1,5.28-4"/><circle class="cls-9" cx="188.71" cy="26.83" r="4.67" transform="matrix(0.14, -0.99, 0.99, 0.14, 135.88, 209.96)"/><path class="cls-15" d="M192.73,20.49a4.69,4.69,0,0,1,2.65,3.37"/><path class="cls-10" d="M196.05,24.85c0.08-.8.2-1.33,0.33-2l-2.31.45a18.59,18.59,0,0,1,1,1.72A13.7,13.7,0,0,1,196,27a13.93,13.93,0,0,1,.08-2.11"/><path class="cls-10" d="M191.53,20.47c0.6,0.53,1,.94,1.43,1.42l1-2.14a18.1,18.1,0,0,1-2-.15,13.88,13.88,0,0,1-2.07-.42,13.85,13.85,0,0,1,1.67,1.29"/><circle class="cls-9" cx="188.75" cy="26.79" r="2.38" transform="translate(135.95 209.98) rotate(-82)"/><path class="cls-36" d="M135.91,66.64l-1.42,2.09,0.33,2.84,2.75,4,7.76,1.59,1.75-7.68h1.17m33.33-34,4.25-5.05m-5,4.63a1.84,1.84,0,1,1-2.08,1.56A1.83,1.83,0,0,1,180.8,35.07Z"/><polygon class="cls-7" points="146.5 67.8 147.18 67.93 148.04 65.19 147.83 65.19 146.98 66.24 146.5 67.8"/><polygon class="cls-11" points="146.5 67.8 147.18 67.93 148.04 65.19 147.83 65.19 146.98 66.24 146.5 67.8"/><polyline class="cls-37" points="147.16 67.87 145.67 74.32 145.15 74.21 146.57 67.78 147.16 67.87"/><polygon class="cls-11" points="147.16 67.87 145.67 74.32 145.15 74.21 146.57 67.78 147.16 67.87"/><path class="cls-14" d="M234.14,231v44.38M130.26,222.7v52.75m0-135v42.2m103.88,15.48v18.18"/><path class="cls-3" d="M233.88,172.08a5.89,5.89,0,1,1-6.28-5.47,5.88,5.88,0,0,1,6.28,5.47"/><path class="cls-20" d="M233.88,172.08a5.89,5.89,0,1,1-6.28-5.47,5.88,5.88,0,0,1,6.28,5.47"/><circle class="cls-38" cx="228.01" cy="172.49" r="5.89" transform="translate(-11.43 16.25) rotate(-3.98)"/><path class="cls-3" d="M190.3,172.08a5.89,5.89,0,1,1-6.28-5.47,5.88,5.88,0,0,1,6.28,5.47"/><path class="cls-20" d="M190.3,172.08a5.89,5.89,0,1,1-6.28-5.47,5.88,5.88,0,0,1,6.28,5.47"/><circle class="cls-38" cx="184.42" cy="172.49" r="5.89" transform="translate(-11.53 13.22) rotate(-3.98)"/><path class="cls-3" d="M164,138.79a5.89,5.89,0,1,1-6.29-5.47,5.89,5.89,0,0,1,6.29,5.47"/><path class="cls-20" d="M164,138.79a5.89,5.89,0,1,1-6.29-5.47,5.89,5.89,0,0,1,6.29,5.47"/><circle class="cls-38" cx="158.08" cy="139.2" r="5.89" transform="translate(-9.28 11.31) rotate(-3.98)"/><path class="cls-3" d="M175.47,98.23a5.89,5.89,0,1,1-6.29-5.47,5.89,5.89,0,0,1,6.29,5.47"/><path class="cls-20" d="M175.47,98.23a5.89,5.89,0,1,1-6.29-5.47,5.89,5.89,0,0,1,6.29,5.47"/><circle class="cls-38" cx="169.59" cy="98.64" r="5.89" transform="translate(-6.44 12.01) rotate(-3.98)"/><path class="cls-3" d="M157.6,198.11a5.89,5.89,0,1,1-6.29-5.47,5.88,5.88,0,0,1,6.29,5.47"/><path class="cls-20" d="M157.6,198.11a5.89,5.89,0,1,1-6.29-5.47,5.88,5.88,0,0,1,6.29,5.47"/><circle class="cls-38" cx="151.73" cy="198.52" r="5.89" transform="matrix(1, -0.07, 0.07, 1, -13.42, 11.01)"/><path class="cls-3" d="M93,190.74a11.78,11.78,0,0,1,.11,23"/><path class="cls-20" d="M93.71,190.9a11.78,11.78,0,0,1-.09,22.74"/><path class="cls-38" d="M93.71,190.9a11.78,11.78,0,0,1-.09,22.74"/><path class="cls-30" d="M131.62,17V136.48a7.2,7.2,0,0,1-7.2,7.2H93.72"/><polyline class="cls-16" points="241.73 207.74 242.25 209.66 244.22 209.09 243.73 207.35 241.73 207.74"/><polygon class="cls-14" points="241.74 207.73 242.25 209.65 244.23 209.08 243.73 207.34 241.74 207.73"/><path class="cls-16" d="M252.74,212.31a3.62,3.62,0,1,1-7,2l-0.83-2.93-4,1.13-1-3.14,1-.19,0.61,2.14,10-2.87,1.11,3.88"/><path class="cls-10" d="M251.23,212.78a2.06,2.06,0,1,1-2.54-1.41,2.06,2.06,0,0,1,2.54,1.41"/><path class="cls-14" d="M252.76,212.29a3.62,3.62,0,0,1-7,2L245,211.35l-4,1.13-1-3.14,1-.19,0.61,2.14,10-2.87Zm-1.53.49a2.06,2.06,0,1,1-2.54-1.41A2.06,2.06,0,0,1,251.23,212.78Z"/><polyline class="cls-7" points="263.76 237.91 266.32 230.89 271.05 232.62 268.49 239.64 263.76 237.91"/><path class="cls-2" d="M267.81,235.26a1.54,1.54,0,1,1,1.48-1.59,1.54,1.54,0,0,1-1.48,1.59"/><path class="cls-2" d="M267.81,235.26a1.54,1.54,0,1,1,1.48-1.59,1.54,1.54,0,0,1-1.48,1.59"/><path class="cls-39" d="M265.37,240.08l2.08-5.84m-1.68,4.69,1.68-4.69"/><path class="cls-15" d="M143.34,135.42l-35.72-11.79M155,94.21l-48.42-17.7m98.55-58.6,26.13-7.06"/><polyline class="cls-40" points="273.72 280.42 273.72 275.48 91.04 275.48 90.97 280.94 274.19 280.94"/><polyline class="cls-14" points="273.72 280.42 273.72 275.48 91.04 275.48 90.97 280.94 274.19 280.94"/><rect class="cls-3" x="269.3" y="137.15" width="8.72" height="145.99"/><rect class="cls-3" x="86.08" y="152.88" width="7.56" height="129.87"/><line class="cls-15" x1="214.76" y1="90.54" x2="240.68" y2="90.54"/><line class="cls-14" x1="175.09" y1="168.27" x2="81.53" y2="192.78"/><text class="cls-41" transform="translate(8.49 203.07)">Печатный цилиндр</text><text class="cls-41" transform="translate(232.31 12.41)">Красочный аппарат</text><text class="cls-41" transform="translate(28.94 67.87)">Формный цилиндр</text><text class="cls-41" transform="translate(241.53 94.61)">У<tspan x="5.36" y="0">влажняющий</tspan></text><text class="cls-41" transform="translate(241.53 105.68)">аппарат</text><text class="cls-41" transform="translate(28.94 114.47)">Офсетный цилиндр</text></svg>