<svg id="Layer_1" data-name="Layer 1" xmlns="http://www.w3.org/2000/svg" xmlns:xlink="http://www.w3.org/1999/xlink" viewBox="0 0 215.99 203.12"><defs><style>.cls-1,.cls-10,.cls-100,.cls-101,.cls-102,.cls-103,.cls-104,.cls-105,.cls-106,.cls-107,.cls-108,.cls-109,.cls-11,.cls-110,.cls-12,.cls-13,.cls-14,.cls-15,.cls-16,.cls-17,.cls-18,.cls-19,.cls-20,.cls-23,.cls-4,.cls-5,.cls-6,.cls-61,.cls-63,.cls-7,.cls-8,.cls-89,.cls-9,.cls-91,.cls-92,.cls-93,.cls-94,.cls-95,.cls-96,.cls-97,.cls-98,.cls-99{fill:none;}.cls-2{fill:#ed1c24;}.cls-2,.cls-21,.cls-62{fill-rule:evenodd;}.cls-3{fill:#c7eafb;}.cls-4,.cls-91{stroke:#e6e7e8;}.cls-10,.cls-100,.cls-101,.cls-102,.cls-103,.cls-104,.cls-105,.cls-106,.cls-107,.cls-108,.cls-11,.cls-12,.cls-13,.cls-14,.cls-15,.cls-16,.cls-17,.cls-18,.cls-19,.cls-20,.cls-23,.cls-4,.cls-5,.cls-6,.cls-61,.cls-63,.cls-7,.cls-8,.cls-89,.cls-9,.cls-91,.cls-92,.cls-93,.cls-94,.cls-95,.cls-96,.cls-97,.cls-98,.cls-99{stroke-miterlimit:3.86;}.cls-10,.cls-11,.cls-110,.cls-12,.cls-13,.cls-14,.cls-15,.cls-16,.cls-17,.cls-18,.cls-19,.cls-20,.cls-23,.cls-4,.cls-5,.cls-6,.cls-7,.cls-8,.cls-89,.cls-9{stroke-width:0.32px;}.cls-5,.cls-92{stroke:#e1e2e3;}.cls-6,.cls-93{stroke:#dcddde;}.cls-7,.cls-94{stroke:#d6d8d9;}.cls-8,.cls-95{stroke:#d1d3d4;}.cls-9,.cls-96{stroke:#cccdcf;}.cls-10,.cls-97{stroke:#c7c8ca;}.cls-11,.cls-98{stroke:#c1c3c5;}.cls-12,.cls-99{stroke:#bcbec0;}.cls-100,.cls-13{stroke:#b7b9bb;}.cls-101,.cls-14{stroke:#b1b3b6;}.cls-102,.cls-15{stroke:#acaeb1;}.cls-103,.cls-16{stroke:#a7a9ac;}.cls-104,.cls-17{stroke:#a2a4a7;}.cls-105,.cls-18{stroke:#9d9fa2;}.cls-106,.cls-19{stroke:#989a9d;}.cls-107,.cls-20{stroke:#939598;}.cls-21{fill:#00a651;}.cls-22{fill:#c6168d;}.cls-108,.cls-109,.cls-110,.cls-23,.cls-61,.cls-89{stroke:#231f20;}.cls-24{clip-path:url(#clip-path);}.cls-25{fill:url(#linear-gradient);}.cls-26{clip-path:url(#clip-path-2);}.cls-27{fill:url(#linear-gradient-2);}.cls-28{clip-path:url(#clip-path-3);}.cls-29{fill:url(#linear-gradient-3);}.cls-30{clip-path:url(#clip-path-4);}.cls-31{fill:url(#linear-gradient-4);}.cls-32{fill:#bcbec0;}.cls-33{clip-path:url(#clip-path-5);}.cls-34{fill:url(#linear-gradient-5);}.cls-35{clip-path:url(#clip-path-6);}.cls-36{fill:url(#linear-gradient-6);}.cls-37{clip-path:url(#clip-path-7);}.cls-38{fill:url(#linear-gradient-7);}.cls-39{clip-path:url(#clip-path-8);}.cls-40{fill:url(#linear-gradient-8);}.cls-41{clip-path:url(#clip-path-9);}.cls-42{fill:url(#linear-gradient-9);}.cls-43{clip-path:url(#clip-path-10);}.cls-44{fill:url(#linear-gradient-10);}.cls-45{clip-path:url(#clip-path-11);}.cls-46{fill:url(#linear-gradient-11);}.cls-47{clip-path:url(#clip-path-12);}.cls-48{fill:url(#linear-gradient-12);}.cls-49{clip-path:url(#clip-path-13);}.cls-50{fill:url(#linear-gradient-13);}.cls-51{clip-path:url(#clip-path-14);}.cls-52{fill:url(#linear-gradient-14);}.cls-53{clip-path:url(#clip-path-15);}.cls-54{fill:url(#linear-gradient-15);}.cls-55{clip-path:url(#clip-path-16);}.cls-56{fill:url(#linear-gradient-16);}.cls-57{clip-path:url(#clip-path-17);}.cls-58{fill:url(#linear-gradient-17);}.cls-59{clip-path:url(#clip-path-18);}.cls-60{fill:url(#linear-gradient-18);}.cls-61{stroke-width:0.2px;}.cls-62{fill:#939598;}.cls-63{stroke:#fff;stroke-width:0.24px;}.cls-64{fill:#fff;}.cls-65{clip-path:url(#clip-path-19);}.cls-66{fill:url(#linear-gradient-19);}.cls-67{clip-path:url(#clip-path-20);}.cls-68{fill:url(#linear-gradient-20);}.cls-69{clip-path:url(#clip-path-21);}.cls-70{fill:url(#linear-gradient-21);}.cls-71{clip-path:url(#clip-path-22);}.cls-72{fill:url(#linear-gradient-22);}.cls-73{clip-path:url(#clip-path-23);}.cls-74{fill:url(#linear-gradient-23);}.cls-75{clip-path:url(#clip-path-24);}.cls-76{fill:url(#linear-gradient-24);}.cls-77{clip-path:url(#clip-path-25);}.cls-78{fill:url(#linear-gradient-25);}.cls-79{clip-path:url(#clip-path-26);}.cls-80{fill:url(#linear-gradient-26);}.cls-81{clip-path:url(#clip-path-27);}.cls-82{fill:url(#linear-gradient-27);}.cls-83{clip-path:url(#clip-path-28);}.cls-84{fill:url(#linear-gradient-28);}.cls-85{clip-path:url(#clip-path-29);}.cls-86{fill:url(#linear-gradient-29);}.cls-87{clip-path:url(#clip-path-30);}.cls-88{fill:url(#linear-gradient-30);}.cls-89{stroke-dasharray:1.6 1.6;}.cls-90{clip-path:url(#clip-path-31);}.cls-100,.cls-101,.cls-102,.cls-103,.cls-104,.cls-105,.cls-106,.cls-107,.cls-91,.cls-92,.cls-93,.cls-94,.cls-95,.cls-96,.cls-97,.cls-98,.cls-99{stroke-width:0.65px;}.cls-108{stroke-width:1.02px;}.cls-109{stroke-width:0.8px;}.cls-111{font-size:6.4px;fill:#231f20;font-family:Helios-Cond-Light;}</style><clipPath id="clip-path"><path class="cls-1" d="M61.15,38.6a0.74,0.74,0,1,1-.74.74,0.74,0.74,0,0,1,.74-0.74"/></clipPath><linearGradient id="linear-gradient" x1="-306.91" y1="430.81" x2="-305.91" y2="430.81" gradientTransform="matrix(-1.2, 0, 0, 4.15, -314.43, -1747.5)" gradientUnits="userSpaceOnUse"><stop offset="0" stop-color="#949698"/><stop offset="1" stop-color="#e7e8e9"/></linearGradient><clipPath id="clip-path-2"><path class="cls-1" d="M58.22,38.31a0.74,0.74,0,1,1-.74.74,0.74,0.74,0,0,1,.74-0.74"/></clipPath><linearGradient id="linear-gradient-2" x1="-306.91" y1="430.81" x2="-305.91" y2="430.81" gradientTransform="matrix(-1.2, 0, 0, 4.15, -317.31, -1748.04)" xlink:href="#linear-gradient"/><clipPath id="clip-path-3"><path class="cls-1" d="M140.65,38.8a0.74,0.74,0,1,1-.74.74,0.74,0.74,0,0,1,.74-0.74"/></clipPath><linearGradient id="linear-gradient-3" x1="-306.91" y1="430.81" x2="-305.91" y2="430.81" gradientTransform="matrix(0, 1.2, 4.15, 0, -1645.94, 421.74)" xlink:href="#linear-gradient"/><clipPath id="clip-path-4"><path class="cls-1" d="M143.6,38.5a0.74,0.74,0,1,1-.74.74,0.74,0.74,0,0,1,.74-0.74"/></clipPath><linearGradient id="linear-gradient-4" x1="-306.91" y1="430.81" x2="-305.91" y2="430.81" gradientTransform="matrix(0, 1.2, 4.15, 0, -1643.24, 421.68)" xlink:href="#linear-gradient"/><clipPath id="clip-path-5"><path class="cls-1" d="M90.6,40.68a0.74,0.74,0,1,1-.74.74,0.74,0.74,0,0,1,.74-0.74"/></clipPath><linearGradient id="linear-gradient-5" x1="-306.91" y1="430.81" x2="-305.91" y2="430.81" gradientTransform="matrix(-1.2, 0, 0, 4.15, -285.02, -1745.94)" xlink:href="#linear-gradient"/><clipPath id="clip-path-6"><path class="cls-1" d="M87.65,40.55a0.74,0.74,0,1,1-.74.74,0.74,0.74,0,0,1,.74-0.74"/></clipPath><linearGradient id="linear-gradient-6" x1="-306.91" y1="430.81" x2="-305.91" y2="430.81" gradientTransform="matrix(-1.2, 0, 0, 4.15, -287.89, -1745.27)" xlink:href="#linear-gradient"/><clipPath id="clip-path-7"><path class="cls-1" d="M102.39,41a0.74,0.74,0,1,1-.74.74,0.74,0.74,0,0,1,.74-0.74"/></clipPath><linearGradient id="linear-gradient-7" x1="-306.91" y1="430.81" x2="-305.91" y2="430.81" gradientTransform="matrix(-1.2, 0, 0, 4.15, -273.2, -1745.65)" xlink:href="#linear-gradient"/><clipPath id="clip-path-8"><path class="cls-1" d="M105.33,41a0.74,0.74,0,1,1-.74.74,0.74,0.74,0,0,1,.74-0.74"/></clipPath><linearGradient id="linear-gradient-8" x1="-306.91" y1="430.81" x2="-305.91" y2="430.81" gradientTransform="matrix(0, 1.2, 4.15, 0, -1682.08, 424.16)" xlink:href="#linear-gradient"/><clipPath id="clip-path-9"><path class="cls-1" d="M81.76,40.21a0.74,0.74,0,1,1-.74.74,0.74,0.74,0,0,1,.74-0.74"/></clipPath><linearGradient id="linear-gradient-9" x1="-306.91" y1="430.81" x2="-305.91" y2="430.81" gradientTransform="matrix(-1.2, 0, 0, 4.15, -293.74, -1746.42)" xlink:href="#linear-gradient"/><clipPath id="clip-path-10"><path class="cls-1" d="M78.81,40a0.74,0.74,0,1,1-.74.74A0.74,0.74,0,0,1,78.81,40"/></clipPath><linearGradient id="linear-gradient-10" x1="-306.91" y1="430.81" x2="-305.91" y2="430.81" gradientTransform="matrix(-1.2, 0, 0, 4.15, -296.68, -1746.35)" xlink:href="#linear-gradient"/><clipPath id="clip-path-11"><path class="cls-1" d="M75.88,39.83a0.74,0.74,0,1,1-.74.74,0.74,0.74,0,0,1,.74-0.74"/></clipPath><linearGradient id="linear-gradient-11" x1="-306.91" y1="430.81" x2="-305.91" y2="430.81" gradientTransform="matrix(-1.2, 0, 0, 4.15, -299.62, -1746.79)" xlink:href="#linear-gradient"/><clipPath id="clip-path-12"><path class="cls-1" d="M84.7,40.4a0.74,0.74,0,1,1-.74.74,0.74,0.74,0,0,1,.74-0.74"/></clipPath><linearGradient id="linear-gradient-12" x1="-306.91" y1="430.81" x2="-305.91" y2="430.81" gradientTransform="matrix(-1.2, 0, 0, 4.15, -290.9, -1746.22)" xlink:href="#linear-gradient"/><clipPath id="clip-path-13"><path class="cls-1" d="M96.49,40.93a0.74,0.74,0,1,1-.74.74,0.74,0.74,0,0,1,.74-0.74"/></clipPath><linearGradient id="linear-gradient-13" x1="-306.91" y1="430.81" x2="-305.91" y2="430.81" gradientTransform="matrix(-1.2, 0, 0, 4.15, -279.03, -1745.69)" xlink:href="#linear-gradient"/><clipPath id="clip-path-14"><path class="cls-1" d="M99.44,41a0.74,0.74,0,1,1-.74.74A0.74,0.74,0,0,1,99.44,41"/></clipPath><linearGradient id="linear-gradient-14" x1="-306.91" y1="430.81" x2="-305.91" y2="430.81" gradientTransform="matrix(-1.2, 0, 0, 4.15, -276.09, -1745.64)" xlink:href="#linear-gradient"/><clipPath id="clip-path-15"><path class="cls-1" d="M93.54,40.82a0.74,0.74,0,1,1-.74.74,0.74,0.74,0,0,1,.74-0.74"/></clipPath><linearGradient id="linear-gradient-15" x1="-306.91" y1="430.81" x2="-305.91" y2="430.81" gradientTransform="matrix(-1.2, 0, 0, 4.15, -281.93, -1746.32)" xlink:href="#linear-gradient"/><clipPath id="clip-path-16"><path class="cls-1" d="M125.95,40a0.74,0.74,0,1,1-.74.74,0.74,0.74,0,0,1,.74-0.74"/></clipPath><linearGradient id="linear-gradient-16" x1="-306.91" y1="430.81" x2="-305.91" y2="430.81" gradientTransform="matrix(0, 1.2, 4.15, 0, -1661.04, 423.15)" xlink:href="#linear-gradient"/><clipPath id="clip-path-17"><path class="cls-1" d="M131.83,39.56a0.74,0.74,0,1,1-.74.74,0.74,0.74,0,0,1,.74-0.74"/></clipPath><linearGradient id="linear-gradient-17" x1="-306.91" y1="430.81" x2="-305.91" y2="430.81" gradientTransform="matrix(0, 1.2, 4.15, 0, -1655.17, 422.47)" xlink:href="#linear-gradient"/><clipPath id="clip-path-18"><path class="cls-1" d="M128.89,39.75a0.74,0.74,0,1,1-.74.74,0.74,0.74,0,0,1,.74-0.74"/></clipPath><linearGradient id="linear-gradient-18" x1="-306.91" y1="430.81" x2="-305.91" y2="430.81" gradientTransform="matrix(0, 1.2, 4.15, 0, -1659.18, 422.94)" xlink:href="#linear-gradient"/><clipPath id="clip-path-19"><path class="cls-1" d="M137.72,39.08a0.74,0.74,0,1,1-.74.74,0.74,0.74,0,0,1,.74-0.74"/></clipPath><linearGradient id="linear-gradient-19" x1="-306.91" y1="430.81" x2="-305.91" y2="430.81" gradientTransform="matrix(0, 1.2, 4.15, 0, -1649.71, 422.01)" xlink:href="#linear-gradient"/><clipPath id="clip-path-20"><path class="cls-1" d="M70,39.37a0.74,0.74,0,1,1-.74.74A0.74,0.74,0,0,1,70,39.37"/></clipPath><linearGradient id="linear-gradient-20" x1="-306.91" y1="430.81" x2="-305.91" y2="430.81" gradientTransform="matrix(-1.2, 0, 0, 4.15, -305.55, -1747.25)" xlink:href="#linear-gradient"/><clipPath id="clip-path-21"><path class="cls-1" d="M72.92,39.61a0.74,0.74,0,1,1-.74.74,0.74,0.74,0,0,1,.74-0.74"/></clipPath><linearGradient id="linear-gradient-21" x1="-306.91" y1="430.81" x2="-305.91" y2="430.81" gradientTransform="matrix(-1.2, 0, 0, 4.15, -302.59, -1747.29)" xlink:href="#linear-gradient"/><clipPath id="clip-path-22"><path class="cls-1" d="M64.1,38.89a0.74,0.74,0,1,1-.74.74,0.74,0.74,0,0,1,.74-0.74"/></clipPath><linearGradient id="linear-gradient-22" x1="-306.91" y1="430.81" x2="-305.91" y2="430.81" gradientTransform="matrix(-1.2, 0, 0, 4.15, -311.4, -1747.46)" xlink:href="#linear-gradient"/><clipPath id="clip-path-23"><path class="cls-1" d="M67,39.13a0.74,0.74,0,1,1-.74.74A0.74,0.74,0,0,1,67,39.13"/></clipPath><linearGradient id="linear-gradient-23" x1="-306.91" y1="430.81" x2="-305.91" y2="430.81" gradientTransform="matrix(-1.2, 0, 0, 4.15, -308.39, -1748.01)" xlink:href="#linear-gradient"/><clipPath id="clip-path-24"><path class="cls-1" d="M134.74,39.33a0.74,0.74,0,1,1-.74.74,0.74,0.74,0,0,1,.74-0.74"/></clipPath><linearGradient id="linear-gradient-24" x1="-306.91" y1="430.81" x2="-305.91" y2="430.81" gradientTransform="matrix(0, 1.2, 4.15, 0, -1652.41, 422.49)" xlink:href="#linear-gradient"/><clipPath id="clip-path-25"><path class="cls-1" d="M120.06,40.37a0.74,0.74,0,1,1-.74.74,0.74,0.74,0,0,1,.74-0.74"/></clipPath><linearGradient id="linear-gradient-25" x1="-306.91" y1="430.81" x2="-305.91" y2="430.81" gradientTransform="matrix(0, 1.2, 4.15, 0, -1667.42, 423.57)" xlink:href="#linear-gradient"/><clipPath id="clip-path-26"><path class="cls-1" d="M123,40.18a0.74,0.74,0,1,1-.74.74,0.74,0.74,0,0,1,.74-0.74"/></clipPath><linearGradient id="linear-gradient-26" x1="-306.91" y1="430.81" x2="-305.91" y2="430.81" gradientTransform="matrix(0, 1.2, 4.15, 0, -1664.36, 423.11)" xlink:href="#linear-gradient"/><clipPath id="clip-path-27"><path class="cls-1" d="M111.23,40.81a0.74,0.74,0,1,1-.74.74,0.74,0.74,0,0,1,.74-0.74"/></clipPath><linearGradient id="linear-gradient-27" x1="-306.91" y1="430.81" x2="-305.91" y2="430.81" gradientTransform="matrix(0, 1.2, 4.15, 0, -1675.92, 423.95)" xlink:href="#linear-gradient"/><clipPath id="clip-path-28"><path class="cls-1" d="M114.16,40.68a0.74,0.74,0,1,1-.74.74,0.74,0.74,0,0,1,.74-0.74"/></clipPath><linearGradient id="linear-gradient-28" x1="-306.91" y1="430.81" x2="-305.91" y2="430.81" gradientTransform="matrix(0, 1.2, 4.15, 0, -1673.42, 423.61)" xlink:href="#linear-gradient"/><clipPath id="clip-path-29"><path class="cls-1" d="M117.13,40.54a0.74,0.74,0,1,1-.74.74,0.74,0.74,0,0,1,.74-0.74"/></clipPath><linearGradient id="linear-gradient-29" x1="-306.91" y1="430.81" x2="-305.91" y2="430.81" gradientTransform="matrix(0, 1.2, 4.15, 0, -1670.45, 423.72)" xlink:href="#linear-gradient"/><clipPath id="clip-path-30"><path class="cls-1" d="M108.29,40.91a0.74,0.74,0,1,1-.74.74,0.74,0.74,0,0,1,.74-0.74"/></clipPath><linearGradient id="linear-gradient-30" x1="-306.91" y1="430.81" x2="-305.91" y2="430.81" gradientTransform="matrix(0, 1.2, 4.15, 0, -1677.96, 423.83)" xlink:href="#linear-gradient"/><clipPath id="clip-path-31"><path class="cls-1" d="M102.67,88.7a52,52,0,1,1-52,52,52,52,0,0,1,52-52"/></clipPath></defs><title>silkscreen</title><path class="cls-2" d="M128.84,41.8H138a1.69,1.69,0,0,0,0,.55,1.72,1.72,0,0,0,.39.6h-9.69a3.25,3.25,0,0,0,.19-0.63,3.16,3.16,0,0,0,0-.53"/><path class="cls-3" d="M131.77,40.7a0.74,0.74,0,1,1-.74.74,0.74,0.74,0,0,1,.74-0.74"/><path class="cls-4" d="M52.13,38.49s30.46,3.29,50,3.28,49.79-3.28,49.79-3.28"/><path class="cls-5" d="M52.13,38.54s30.46,3.29,50,3.28,49.79-3.28,49.79-3.28"/><path class="cls-6" d="M52.13,38.59s30.46,3.29,50,3.28,49.79-3.28,49.79-3.28"/><path class="cls-7" d="M52.13,38.63s30.46,3.29,50,3.28,49.79-3.28,49.79-3.28"/><path class="cls-8" d="M52.12,38.68S82.59,42,102.13,42s49.79-3.28,49.79-3.28"/><path class="cls-9" d="M52.12,38.73S82.58,42,102.13,42s49.79-3.28,49.79-3.28"/><path class="cls-10" d="M52.12,38.77s30.46,3.29,50,3.28,49.79-3.28,49.79-3.28"/><path class="cls-11" d="M52.12,38.82s30.46,3.29,50,3.28,49.79-3.28,49.79-3.28"/><path class="cls-12" d="M52.12,38.87s30.46,3.29,50,3.28,49.79-3.28,49.79-3.28"/><path class="cls-13" d="M52.12,38.92s30.46,3.29,50,3.28,49.79-3.28,49.79-3.28"/><path class="cls-14" d="M52.12,39s30.46,3.29,50,3.28S151.92,39,151.92,39"/><path class="cls-15" d="M52.12,39s30.46,3.29,50,3.28S151.92,39,151.92,39"/><path class="cls-16" d="M52.12,39.06s30.46,3.29,50,3.28,49.79-3.28,49.79-3.28"/><path class="cls-17" d="M52.12,39.1s30.46,3.29,50,3.28,49.79-3.28,49.79-3.28"/><path class="cls-18" d="M52.12,39.15s30.46,3.29,50,3.28,49.79-3.28,49.79-3.28"/><path class="cls-19" d="M52.12,39.2s30.46,3.29,50,3.28,49.79-3.28,49.79-3.28"/><path class="cls-20" d="M52.13,37.76S82.59,41,102.13,41s49.79-3.28,49.79-3.28M52.12,39.24s30.46,3.29,50,3.28,49.79-3.28,49.79-3.28"/><path class="cls-19" d="M52.13,37.8s30.46,3.29,50,3.28,49.79-3.28,49.79-3.28"/><path class="cls-18" d="M52.13,37.85s30.46,3.29,50,3.28,49.79-3.28,49.79-3.28"/><path class="cls-17" d="M52.13,37.89s30.46,3.29,50,3.28,49.79-3.28,49.79-3.28"/><path class="cls-16" d="M52.13,37.94s30.46,3.29,50,3.28,49.79-3.28,49.79-3.28"/><path class="cls-15" d="M52.13,38s30.46,3.29,50,3.28S151.92,38,151.92,38"/><path class="cls-14" d="M52.13,38s30.46,3.29,50,3.28S151.92,38,151.92,38"/><path class="cls-13" d="M52.13,38.08s30.46,3.29,50,3.28,49.79-3.28,49.79-3.28"/><path class="cls-12" d="M52.13,38.13s30.46,3.29,50,3.28,49.79-3.28,49.79-3.28"/><path class="cls-11" d="M52.13,38.17s30.46,3.29,50,3.28,49.79-3.28,49.79-3.28"/><path class="cls-10" d="M52.13,38.22s30.46,3.29,50,3.28,49.79-3.28,49.79-3.28"/><path class="cls-9" d="M52.13,38.26s30.46,3.29,50,3.28,49.79-3.28,49.79-3.28"/><path class="cls-8" d="M52.13,38.31s30.46,3.29,50,3.28,49.79-3.28,49.79-3.28"/><path class="cls-7" d="M52.13,38.36s30.46,3.29,50,3.28,49.79-3.28,49.79-3.28"/><path class="cls-6" d="M52.13,38.4s30.46,3.29,50,3.28,49.79-3.28,49.79-3.28"/><path class="cls-5" d="M52.13,38.45s30.46,3.29,50,3.28,49.79-3.28,49.79-3.28"/><path class="cls-4" d="M52.13,38.49s30.46,3.29,50,3.28,49.79-3.28,49.79-3.28"/><path class="cls-21" d="M146.77,38.22v2.27l-9,.78-0.06-.63a3.77,3.77,0,0,0,0-1.51Z"/><path class="cls-20" d="M146.77,38.22v2.27l-9,.78-0.06-.63a3.77,3.77,0,0,0,0-1.51Z"/><path class="cls-21" d="M55.07,38V40.3l9,0.78,0.06-.67c-0.41,0-.42-1.48,0-1.48Z"/><path class="cls-20" d="M55.07,38V40.3l9,0.78,0.06-.67c-0.41,0-.42-1.48,0-1.48Z"/><rect class="cls-22" x="50.27" y="44.66" width="104.25" height="9.28"/><rect class="cls-23" x="50.27" y="44.66" width="104.25" height="9.28"/><g class="cls-24"><rect class="cls-25" x="60.12" y="38.31" width="2.06" height="2.06" transform="translate(-6.62 65.69) rotate(-54)"/></g><g class="cls-26"><rect class="cls-27" x="57.19" y="38.02" width="2.06" height="2.06" transform="translate(-7.59 63.2) rotate(-54)"/></g><g class="cls-28"><rect class="cls-29" x="139.62" y="38.51" width="2.06" height="2.06" transform="translate(3.62 90.22) rotate(-36)"/></g><g class="cls-30"><rect class="cls-31" x="142.57" y="38.2" width="2.06" height="2.06" transform="translate(4.36 91.89) rotate(-36)"/></g><rect class="cls-32" x="145.88" y="29.74" width="11.12" height="11.12"/><rect class="cls-23" x="145.88" y="29.74" width="11.12" height="11.12"/><rect class="cls-32" x="44.26" y="29.74" width="11.12" height="11.12"/><rect class="cls-23" x="44.26" y="29.74" width="11.12" height="11.12"/><polyline class="cls-21" points="102.4 42.56 102.4 41.01 99.46 40.97 99.45 42.54 102.4 42.56"/><polyline class="cls-21" points="105.38 42.53 105.34 40.97 102.4 41.01 102.4 42.56 105.38 42.53"/><polyline class="cls-21" points="108.32 42.46 108.3 40.9 105.3 40.97 105.35 42.53 108.32 42.46"/><polyline class="cls-21" points="120.15 41.94 120.05 40.36 117.06 40.55 117.22 42.09 120.15 41.94"/><polyline class="cls-21" points="125.87 41.52 125.76 39.96 122.82 40.18 122.92 41.73 125.87 41.52"/><polyline class="cls-21" points="128.77 41.29 128.62 39.74 125.69 39.97 125.83 41.52 128.77 41.29"/><path class="cls-21" d="M93.56,42.39s-0.4-1.57,0-1.55l-8.86-.44c0.5,0-.09,1.56-0.09,1.56l4.29,0.23,4.63,0.2"/><path class="cls-21" d="M69.9,40.93c-0.41,0-.28-1.58.13-1.55l-2.93-.24c0.41,0,.29,1.58-0.12,1.55l2.93,0.24"/><path class="cls-21" d="M75.87,41.39c-0.41,0-.32-1.55.09-1.55l-3-.23c0.44,0,.25,1.55-0.16,1.55l3.07,0.23"/><g class="cls-33"><rect class="cls-34" x="89.56" y="40.39" width="2.06" height="2.06" transform="translate(3.84 90.37) rotate(-54)"/></g><g class="cls-35"><rect class="cls-36" x="86.62" y="40.25" width="2.06" height="2.06" transform="translate(2.73 87.93) rotate(-54)"/></g><g class="cls-37"><rect class="cls-38" x="101.36" y="40.68" width="2.06" height="2.06" transform="translate(8.46 100.03) rotate(-54)"/></g><g class="cls-39"><rect class="cls-40" x="104.3" y="40.68" width="2.06" height="2.06" transform="translate(-4.4 69.88) rotate(-36)"/></g><polyline class="cls-2" points="75.96 39.84 84.77 40.41 84.67 40.83 75.92 40.27 75.96 39.84"/><g class="cls-41"><rect class="cls-42" x="80.73" y="39.91" width="2.06" height="2.06" transform="translate(0.58 83.03) rotate(-54)"/></g><g class="cls-43"><rect class="cls-44" x="77.78" y="39.71" width="2.06" height="2.06" transform="translate(-0.47 80.55) rotate(-54)"/></g><g class="cls-45"><rect class="cls-46" x="74.84" y="39.54" width="2.06" height="2.06" transform="translate(-1.54 78.11) rotate(-54)"/></g><g class="cls-47"><rect class="cls-48" x="83.67" y="40.11" width="2.07" height="2.07" transform="translate(1.63 85.49) rotate(-54)"/></g><path class="cls-2" d="M93.52,40.83s0.27-2.9,1.35-4.28a10.15,10.15,0,0,1,2.86-2.05l1.71,4.67L99.56,41l-0.1,1.75,0.19,0.52H93.32l0.19-.63,0-1.79"/><g class="cls-49"><rect class="cls-50" x="95.46" y="40.64" width="2.06" height="2.06" transform="translate(6.06 95.24) rotate(-54)"/></g><g class="cls-51"><rect class="cls-52" x="98.41" y="40.69" width="2.06" height="2.06" transform="translate(7.24 97.65) rotate(-54)"/></g><g class="cls-53"><rect class="cls-54" x="92.51" y="40.53" width="2.06" height="2.06" transform="translate(4.94 92.81) rotate(-54)"/></g><polyline class="cls-2" points="129.09 39.81 137.63 39.08 137.36 39.44 129.13 40.13 129.09 39.81"/><g class="cls-55"><rect class="cls-56" x="124.91" y="39.68" width="2.06" height="2.06" transform="translate(0.12 81.8) rotate(-36)"/></g><g class="cls-57"><rect class="cls-58" x="130.8" y="39.26" width="2.06" height="2.06" transform="translate(1.49 85.18) rotate(-36)"/></g><g class="cls-59"><rect class="cls-60" x="127.85" y="39.46" width="2.07" height="2.07" transform="translate(0.81 83.48) rotate(-36)"/></g><rect class="cls-32" x="95.05" y="23.93" width="6.83" height="8.9"/><rect class="cls-61" x="95.05" y="23.93" width="6.83" height="8.9"/><polygon class="cls-62" points="97.56 30.66 97.56 37.51 99.57 40.99 101.79 40.99 99.79 37.51 99.79 30.66 97.56 30.66"/><polygon class="cls-61" points="97.56 30.66 97.56 37.51 99.57 40.99 101.79 40.99 99.79 37.51 99.79 30.66 97.56 30.66"/><line class="cls-63" x1="101.26" y1="25.98" x2="97.32" y2="25.98"/><path class="cls-64" d="M96.67,26.26a11.83,11.83,0,0,1,1.12.41V25.28a11.1,11.1,0,0,1-1.12.41,8.17,8.17,0,0,1-1.22.28,8.28,8.28,0,0,1,1.22.28"/><g class="cls-65"><rect class="cls-66" x="136.68" y="38.79" width="2.06" height="2.06" transform="translate(2.9 88.55) rotate(-36)"/></g><polyline class="cls-2" points="70.03 39.38 73.08 39.61 73.06 39.91 69.96 39.66 70.03 39.38"/><g class="cls-67"><rect class="cls-68" x="68.95" y="39.08" width="2.06" height="2.06" transform="translate(-3.6 73.15) rotate(-54)"/></g><g class="cls-69"><rect class="cls-70" x="71.89" y="39.31" width="2.06" height="2.06" transform="translate(-2.58 75.63) rotate(-54)"/></g><polyline class="cls-2" points="64.15 38.87 67.26 39.15 67.19 39.39 64.11 39.11 64.15 38.87"/><g class="cls-71"><rect class="cls-72" x="63.07" y="38.59" width="2.06" height="2.06" transform="translate(-5.63 68.19) rotate(-54)"/></g><g class="cls-73"><rect class="cls-74" x="66.01" y="38.84" width="2.06" height="2.06" transform="translate(-4.62 70.67) rotate(-54)"/></g><polyline class="cls-2" points="108.3 40.9 117.13 40.54 117.13 40.63 108.32 40.99 108.3 40.9"/><g class="cls-75"><rect class="cls-76" x="133.7" y="39.04" width="2.06" height="2.06" transform="translate(2.18 86.84) rotate(-36)"/></g><path class="cls-3" d="M134.84,40.7a0.74,0.74,0,1,1-.74.74,0.74,0.74,0,0,1,.74-0.74"/><polyline class="cls-2" points="120.05 40.36 122.82 40.18 122.82 40.25 120.05 40.42 120.05 40.36"/><g class="cls-77"><rect class="cls-78" x="119.03" y="40.08" width="2.06" height="2.06" transform="translate(-1.23 78.41) rotate(-36)"/></g><g class="cls-79"><rect class="cls-80" x="121.97" y="39.88" width="2.06" height="2.06" transform="translate(-0.56 80.11) rotate(-36)"/></g><path class="cls-2" d="M108.82,41.93a2.19,2.19,0,0,1,2.42,0,4.57,4.57,0,0,1,3,0,4,4,0,0,1,2.9,0,1.35,1.35,0,0,0,.14.47,1.33,1.33,0,0,0,.31.28h-9.72a1.21,1.21,0,0,0,.93-0.66"/><rect class="cls-64" x="63.02" y="42.59" width="76.04" height="2.07"/><rect class="cls-23" x="63.02" y="42.59" width="76.04" height="2.07"/><g class="cls-81"><rect class="cls-82" x="110.2" y="40.52" width="2.06" height="2.06" transform="translate(-3.18 73.31) rotate(-36)"/></g><g class="cls-83"><rect class="cls-84" x="113.13" y="40.39" width="2.06" height="2.06" transform="translate(-2.54 75.01) rotate(-36)"/></g><g class="cls-85"><rect class="cls-86" x="116.09" y="40.24" width="2.06" height="2.06" transform="matrix(0.81, -0.59, 0.59, 0.81, -1.89, 76.72)"/></g><g class="cls-87"><rect class="cls-88" x="107.26" y="40.61" width="2.06" height="2.06" transform="translate(-3.8 71.6) rotate(-36)"/></g><circle class="cls-23" cx="127.18" cy="40.55" r="6.87"/><path class="cls-89" d="M134,40.81l18.06,82.35M121.39,36.93l-61.5,74.24"/><path class="cls-3" d="M102.67,88.7a52,52,0,1,1-52,52A52,52,0,0,1,102.67,88.7Z"/><path class="cls-23" d="M102.67,88.7a52,52,0,1,1-52,52A52,52,0,0,1,102.67,88.7Z"/><g class="cls-90"><circle class="cls-23" cx="102.67" cy="140.67" r="51.96"/><path class="cls-91" d="M34.06,141.85c75.39-4.92,144.77-12.42,144.77-12.42"/><path class="cls-92" d="M34.1,142.06c75.38-4.92,144.73-12.41,144.73-12.41"/><path class="cls-93" d="M34.14,142.27c75.36-4.92,144.69-12.41,144.69-12.41"/><path class="cls-94" d="M34.17,142.48c75.35-4.92,144.66-12.41,144.66-12.41"/><path class="cls-95" d="M34.21,142.7c75.34-4.92,144.62-12.41,144.62-12.41"/><path class="cls-96" d="M34.26,142.91c75.32-4.92,144.58-12.4,144.58-12.4"/><path class="cls-97" d="M34.29,143.12c75.31-4.92,144.54-12.4,144.54-12.4"/><path class="cls-98" d="M34.33,143.34c75.29-4.92,144.51-12.4,144.51-12.4"/><path class="cls-99" d="M34.38,143.55c75.28-4.92,144.47-12.4,144.47-12.4"/><path class="cls-100" d="M34.41,143.76c75.26-4.92,144.43-12.39,144.43-12.39"/><path class="cls-101" d="M34.45,144c75.25-4.92,144.4-12.39,144.4-12.39"/><path class="cls-102" d="M34.49,144.19c75.23-4.92,144.36-12.39,144.36-12.39"/><path class="cls-103" d="M34.53,144.4C109.75,139.48,178.86,132,178.86,132"/><path class="cls-104" d="M34.57,144.61c75.21-4.92,144.29-12.39,144.29-12.39"/><path class="cls-105" d="M34.61,144.83c75.19-4.92,144.25-12.38,144.25-12.38"/><path class="cls-106" d="M34.65,145c75.18-4.92,144.21-12.38,144.21-12.38"/><path class="cls-107" d="M34.23,138.3c75.32-4.92,144.57-12.4,144.57-12.4M34.69,145.25c75.16-4.92,144.18-12.38,144.18-12.38"/><path class="cls-106" d="M34.22,138.52c75.32-4.92,144.59-12.41,144.59-12.41"/><path class="cls-105" d="M34.21,138.74c75.33-4.92,144.6-12.41,144.6-12.41"/><path class="cls-104" d="M34.2,139C109.53,134,178.8,126.56,178.8,126.56"/><path class="cls-103" d="M34.18,139.19c75.33-4.92,144.62-12.41,144.62-12.41"/><path class="cls-102" d="M34.17,139.41C109.51,134.49,178.81,127,178.81,127"/><path class="cls-101" d="M34.16,139.63c75.35-4.92,144.65-12.41,144.65-12.41"/><path class="cls-100" d="M34.15,139.85c75.35-4.92,144.66-12.41,144.66-12.41"/><path class="cls-99" d="M34.14,140.07c75.35-4.92,144.67-12.41,144.67-12.41"/><path class="cls-98" d="M34.13,140.29c75.36-4.92,144.68-12.41,144.68-12.41"/><path class="cls-97" d="M34.12,140.52c75.36-4.92,144.69-12.41,144.69-12.41"/><path class="cls-96" d="M34.11,140.74c75.37-4.92,144.71-12.41,144.71-12.41"/><path class="cls-95" d="M34.1,141c75.37-4.92,144.72-12.41,144.72-12.41"/><path class="cls-94" d="M34.09,141.18c75.38-4.92,144.73-12.42,144.73-12.42"/><path class="cls-93" d="M34.08,141.4C109.46,136.48,178.82,129,178.82,129"/><path class="cls-92" d="M34.07,141.62c75.39-4.92,144.76-12.42,144.76-12.42"/><path class="cls-91" d="M34.06,141.85c75.39-4.92,144.77-12.42,144.77-12.42"/><path class="cls-2" d="M47.36,148.25l23.73,0.12s2.16,3.43,3.65,5.25c0.5,0.61,1.36,1.85,1.36,1.85L47.63,155l-0.26-6.73"/><path class="cls-2" d="M119.07,154.43a61.07,61.07,0,0,1,6.1-6.19l39.14-.06a13.49,13.49,0,0,0-.09,4.46c0.53,2.13,3.09,4.7,3.09,4.7"/><rect class="cls-22" x="50.7" y="170.86" width="103.93" height="21.77"/><rect class="cls-108" x="50.7" y="170.86" width="103.93" height="24.85"/><polyline class="cls-2" points="119.85 131.51 163.09 127.2 166.58 129.52 120.18 134.07 119.85 131.51"/><path class="cls-32" d="M141.89,129.36a3.74,3.74,0,1,1-3.74,3.74,3.74,3.74,0,0,1,3.74-3.74"/><polyline class="cls-2" points="48.69 137.12 71.32 135.46 71.48 137.86 48.92 139.51 48.69 137.12"/><path class="cls-32" d="M48.86,137.12a3.74,3.74,0,1,1-3.74,3.74,3.74,3.74,0,0,1,3.74-3.74"/><rect class="cls-64" x="48.71" y="154.49" width="111.67" height="16.36"/><rect class="cls-109" x="48.71" y="154.49" width="111.67" height="16.36"/><polyline class="cls-21" points="119.36 143.61 118.51 131.75 71.32 135.46 72.06 147.15 119.36 143.61"/><path class="cls-32" d="M94.78,133.59A3.74,3.74,0,1,1,91,137.33a3.74,3.74,0,0,1,3.74-3.74"/><path class="cls-32" d="M118.41,131.55a3.74,3.74,0,1,1-3.74,3.74,3.74,3.74,0,0,1,3.74-3.74"/><path class="cls-32" d="M72.11,135.4a3.74,3.74,0,1,1-3.74,3.74,3.74,3.74,0,0,1,3.74-3.74"/><path class="cls-2" d="M135.2,150.24c-0.53-1.66,1-2.14,2.14-2.14a2.14,2.14,0,0,1,0,4.27c-1.18,0-1.78-1-2.14-2.14"/><path class="cls-2" d="M143.21,150.24a2.14,2.14,0,0,1,2.14-2.14c1.18,0,3.8.47,2.14,2.14-0.83.83-1,2.14-2.14,2.14a2.14,2.14,0,0,1-2.14-2.14"/><path class="cls-3" d="M141.32,137.52a5.84,5.84,0,1,1-5.84,5.84,5.84,5.84,0,0,1,5.84-5.84"/></g><circle class="cls-23" cx="102.67" cy="140.67" r="51.96"/><path class="cls-110" d="M153.84,132.54l5.46-16.37m-8.86-64.29L159.5,61m-5.48-27L164,24.51m-64.09.42,8.46-8m-34,23.72L61.05,17.92"/><path class="cls-23" d="M81.44,134.5L48.63,101.09m2.25,41.1-3.82,29.34m100.5-4.21,7.93,6.57m5-22h-7"/><text class="cls-111" transform="translate(141.28 180.68)">Запечатываемый</text><text class="cls-111" transform="translate(141.28 188.28)">материал</text><text class="cls-111" transform="translate(141.28 195.87)">(например, бумага)</text><text class="cls-111" transform="translate(33.99 15.85)">Сетка с шаблоном</text><text class="cls-111" transform="translate(103.13 15.85)">Ра<tspan x="5.72" y="0">к</tspan><tspan x="8.14" y="0">ель</tspan></text><text class="cls-111" transform="translate(165.18 25.1)">Рама</text><text class="cls-111" transform="translate(146.79 65.93)">Печатный стол</text><text class="cls-111" transform="translate(146.79 73.53)">(неподвижный)</text><text class="cls-111" transform="translate(45.24 91.14)">Шаблон</text><text class="cls-111" transform="translate(24.29 98.74)">закрывает сетку</text><text class="cls-111" transform="translate(154.97 105.67)">Печатная форма</text><text class="cls-111" transform="translate(154.97 113.27)">(трафарет)</text><text class="cls-111" transform="translate(161.64 153.66)">Слой краски</text><text class="cls-111" transform="translate(40.75 178.32)">Область</text><text class="cls-111" transform="translate(22.3 185.91)">проникновения</text><text class="cls-111" transform="translate(44.15 193.51)">краски</text></svg>