<?xml version="1.0" encoding="utf-8"?>
<!-- Generator: Adobe Illustrator 20.0.0, SVG Export Plug-In . SVG Version: 6.00 Build 0)  -->
<svg version="1.1" id="Layer_1" xmlns="http://www.w3.org/2000/svg" xmlns:xlink="http://www.w3.org/1999/xlink" x="0px" y="0px"
	 viewBox="0 0 306 142.9" style="enable-background:new 0 0 306 142.9;" xml:space="preserve">
<style type="text/css">
	.st0{fill:url(#SVGID_1_);stroke:#000000;stroke-linecap:round;stroke-linejoin:round;stroke-miterlimit:10;}
	.st1{font-family:'HeliosCondLight';}
	.st2{font-size:12px;}
	.st3{fill:#00AEEF;}
	.st4{fill:#EC008C;}
	.st5{fill:#FFF200;}
	.st6{fill:url(#SVGID_2_);stroke:#000000;stroke-linecap:round;stroke-linejoin:round;stroke-miterlimit:10;}
	.st7{fill:#BCBEC0;}
	.st8{fill:none;stroke:#000000;stroke-linecap:round;stroke-linejoin:round;stroke-miterlimit:10;}
	.st9{fill:none;stroke:#000000;stroke-miterlimit:10;}
	.st10{fill:none;stroke:#E6E7E8;stroke-miterlimit:10;}
</style>
<linearGradient id="SVGID_1_" gradientUnits="userSpaceOnUse" x1="86.8986" y1="34.8542" x2="189.5653" y2="34.8542">
	<stop  offset="0" style="stop-color:#D1D3D4"/>
	<stop  offset="0.5" style="stop-color:#6D6E71"/>
	<stop  offset="1" style="stop-color:#D1D3D4"/>
</linearGradient>
<rect x="86.9" y="30.9" class="st0" width="102.7" height="8"/>
<text transform="matrix(1 0 0 1 99.9146 22.8542)" class="st1 st2">Печатная головка</text>
<g>
	<g>
		<g>
			<circle class="st3" cx="108.9" cy="60.2" r="2.8"/>
			<circle class="st3" cx="108.9" cy="68" r="2.1"/>
			<circle class="st3" cx="108.9" cy="75.8" r="1.4"/>
		</g>
		<g>
			<g>
				<circle class="st3" cx="102.4" cy="60.2" r="2.8"/>
				<circle class="st3" cx="102.4" cy="68" r="2.1"/>
				<circle class="st3" cx="102.4" cy="75.8" r="1.4"/>
			</g>
			<g>
				<circle class="st3" cx="115.4" cy="60.2" r="2.8"/>
				<circle class="st3" cx="115.4" cy="68" r="2.1"/>
				<circle class="st3" cx="115.4" cy="75.8" r="1.4"/>
			</g>
		</g>
	</g>
	<g>
		<g>
			<circle class="st4" cx="128.5" cy="60.2" r="2.8"/>
			<circle class="st4" cx="128.5" cy="68" r="2.1"/>
			<circle class="st4" cx="128.5" cy="75.8" r="1.4"/>
		</g>
		<g>
			<g>
				<circle class="st4" cx="121.9" cy="60.2" r="2.8"/>
				<circle class="st4" cx="121.9" cy="68" r="2.1"/>
				<circle class="st4" cx="121.9" cy="75.8" r="1.4"/>
			</g>
			<g>
				<circle class="st4" cx="135" cy="60.2" r="2.8"/>
				<circle class="st4" cx="135" cy="68" r="2.1"/>
				<circle class="st4" cx="135" cy="75.8" r="1.4"/>
			</g>
		</g>
	</g>
	<g>
		<g>
			<circle class="st5" cx="147.9" cy="60.2" r="2.8"/>
			<circle class="st5" cx="147.9" cy="68" r="2.1"/>
			<circle class="st5" cx="147.9" cy="75.8" r="1.4"/>
		</g>
		<g>
			<g>
				<circle class="st5" cx="141.4" cy="60.2" r="2.8"/>
				<circle class="st5" cx="141.4" cy="68" r="2.1"/>
				<circle class="st5" cx="141.4" cy="75.8" r="1.4"/>
			</g>
			<g>
				<circle class="st5" cx="154.5" cy="60.2" r="2.8"/>
				<circle class="st5" cx="154.5" cy="68" r="2.1"/>
				<circle class="st5" cx="154.5" cy="75.8" r="1.4"/>
			</g>
		</g>
	</g>
	<g>
		<g>
			<circle cx="167.6" cy="60.2" r="2.8"/>
			<circle cx="167.6" cy="68" r="2.1"/>
			<circle cx="167.6" cy="75.8" r="1.4"/>
		</g>
		<g>
			<g>
				<circle cx="161" cy="60.2" r="2.8"/>
				<circle cx="161" cy="68" r="2.1"/>
				<circle cx="161" cy="75.8" r="1.4"/>
			</g>
			<g>
				<circle cx="174.1" cy="60.2" r="2.8"/>
				<circle cx="174.1" cy="68" r="2.1"/>
				<circle cx="174.1" cy="75.8" r="1.4"/>
			</g>
		</g>
	</g>
</g>
<linearGradient id="SVGID_2_" gradientUnits="userSpaceOnUse" x1="86.8986" y1="46.7917" x2="189.5653" y2="46.7917">
	<stop  offset="0" style="stop-color:#FFFFFF"/>
	<stop  offset="0.5" style="stop-color:#939698"/>
	<stop  offset="1" style="stop-color:#FFFFFF"/>
</linearGradient>
<path class="st6" d="M86.9,38.9l9.3,15.9h3.8c0-1.6,1.3-2.8,2.8-2.8c1.6,0,2.8,1.3,2.8,2.8h0.9c0-1.6,1.3-2.8,2.8-2.8
	s2.8,1.3,2.8,2.8h0.9c0-1.6,1.3-2.8,2.8-2.8c1.6,0,2.8,1.3,2.8,2.8h0.8c0-1.6,1.3-2.8,2.8-2.8s2.8,1.3,2.8,2.8h0.9
	c0-1.6,1.3-2.8,2.8-2.8c1.6,0,2.8,1.3,2.8,2.8h0.9c0-1.6,1.3-2.8,2.8-2.8c1.6,0,2.8,1.3,2.8,2.8h0.7c0-1.6,1.3-2.8,2.8-2.8
	c1.6,0,2.8,1.3,2.8,2.8h0.9c0-1.6,1.3-2.8,2.8-2.8s2.8,1.3,2.8,2.8h0.9c0-1.6,1.3-2.8,2.8-2.8c1.6,0,2.8,1.3,2.8,2.8h0.9
	c0-1.6,1.3-2.8,2.8-2.8c1.6,0,2.8,1.3,2.8,2.8h0.9c0-1.6,1.3-2.8,2.8-2.8c1.6,0,2.8,1.3,2.8,2.8h0.9c0-1.6,1.3-2.8,2.8-2.8
	s2.8,1.3,2.8,2.8h2.1l10-15.9H86.9z"/>
<g>
	<path class="st7" d="M29.1,124L29.1,124c0-21,17.2-38.3,38.3-38.3h141.7c21,0,38.3,17.2,38.3,38.3v0h2.8v0
		c0-22.6-18.5-41.1-41.1-41.1H67.4c-22.6,0-41.1,18.5-41.1,41.1v0H29.1z"/>
	<path class="st8" d="M244.5,124L244.5,124c0-19.5-15.9-35.4-35.4-35.4H67.4c-19.5,0-35.4,15.9-35.4,35.4v0H244.5z"/>
	<path d="M183.7,84.3L183.7,84.3c0.4,0,0.7-0.3,0.7-0.7l0,0c0-0.4-0.3-0.7-0.7-0.7l0,0c-0.4,0-0.7,0.3-0.7,0.7l0,0
		C183,84,183.3,84.3,183.7,84.3z"/>
	<path d="M182.3,84.3L182.3,84.3c0.4,0,0.7-0.3,0.7-0.7l0,0c0-0.4-0.3-0.7-0.7-0.7l0,0c-0.4,0-0.7,0.3-0.7,0.7l0,0
		C181.6,84,181.9,84.3,182.3,84.3z"/>
	<path d="M180.9,84.3L180.9,84.3c0.4,0,0.7-0.3,0.7-0.7l0,0c0-0.4-0.3-0.7-0.7-0.7h0c-0.4,0-0.7,0.3-0.7,0.7l0,0
		C180.1,84,180.5,84.3,180.9,84.3z"/>
	<path d="M179.4,84.3L179.4,84.3c0.4,0,0.7-0.3,0.7-0.7l0,0c0-0.4-0.3-0.7-0.7-0.7l0,0c-0.4,0-0.7,0.3-0.7,0.7l0,0
		C178.7,84,179,84.3,179.4,84.3z"/>
	<path d="M178,84.3L178,84.3c0.4,0,0.7-0.3,0.7-0.7l0,0c0-0.4-0.3-0.7-0.7-0.7l0,0c-0.4,0-0.7,0.3-0.7,0.7l0,0
		C177.3,84,177.6,84.3,178,84.3z"/>
	<path d="M176.6,84.3L176.6,84.3c0.4,0,0.7-0.3,0.7-0.7l0,0c0-0.4-0.3-0.7-0.7-0.7h0c-0.4,0-0.7,0.3-0.7,0.7l0,0
		C175.9,84,176.2,84.3,176.6,84.3z"/>
	<path d="M175.2,84.3L175.2,84.3c0.4,0,0.7-0.3,0.7-0.7l0,0c0-0.4-0.3-0.7-0.7-0.7l0,0c-0.4,0-0.7,0.3-0.7,0.7l0,0
		C174.5,84,174.8,84.3,175.2,84.3z"/>
	<path d="M173.8,84.3L173.8,84.3c0.4,0,0.7-0.3,0.7-0.7l0,0c0-0.4-0.3-0.7-0.7-0.7l0,0c-0.4,0-0.7,0.3-0.7,0.7l0,0
		C173.1,84,173.4,84.3,173.8,84.3z"/>
	<path d="M172.4,84.3L172.4,84.3c0.4,0,0.7-0.3,0.7-0.7l0,0c0-0.4-0.3-0.7-0.7-0.7h0c-0.4,0-0.7,0.3-0.7,0.7l0,0
		C171.6,84,172,84.3,172.4,84.3z"/>
	<path d="M170.9,84.3L170.9,84.3c0.4,0,0.7-0.3,0.7-0.7l0,0c0-0.4-0.3-0.7-0.7-0.7l0,0c-0.4,0-0.7,0.3-0.7,0.7l0,0
		C170.2,84,170.5,84.3,170.9,84.3z"/>
	<path d="M169.5,84.3L169.5,84.3c0.4,0,0.7-0.3,0.7-0.7l0,0c0-0.4-0.3-0.7-0.7-0.7l0,0c-0.4,0-0.7,0.3-0.7,0.7l0,0
		C168.8,84,169.1,84.3,169.5,84.3z"/>
	<path d="M168.1,84.3L168.1,84.3c0.4,0,0.7-0.3,0.7-0.7l0,0c0-0.4-0.3-0.7-0.7-0.7h0c-0.4,0-0.7,0.3-0.7,0.7l0,0
		C167.4,84,167.7,84.3,168.1,84.3z"/>
	<path d="M166.7,84.3L166.7,84.3c0.4,0,0.7-0.3,0.7-0.7l0,0c0-0.4-0.3-0.7-0.7-0.7l0,0c-0.4,0-0.7,0.3-0.7,0.7l0,0
		C166,84,166.3,84.3,166.7,84.3z"/>
	<path d="M165.3,84.3L165.3,84.3c0.4,0,0.7-0.3,0.7-0.7l0,0c0-0.4-0.3-0.7-0.7-0.7l0,0c-0.4,0-0.7,0.3-0.7,0.7l0,0
		C164.6,84,164.9,84.3,165.3,84.3z"/>
	<path d="M163.8,84.3L163.8,84.3c0.4,0,0.7-0.3,0.7-0.7l0,0c0-0.4-0.3-0.7-0.7-0.7h0c-0.4,0-0.7,0.3-0.7,0.7l0,0
		C163.1,84,163.5,84.3,163.8,84.3z"/>
	<path class="st5" d="M162.4,84.3L162.4,84.3c0.4,0,0.7-0.3,0.7-0.7l0,0c0-0.4-0.3-0.7-0.7-0.7l0,0c-0.4,0-0.7,0.3-0.7,0.7l0,0
		C161.7,84,162,84.3,162.4,84.3z"/>
	<path d="M161,84.3L161,84.3c0.4,0,0.7-0.3,0.7-0.7l0,0c0-0.4-0.3-0.7-0.7-0.7l0,0c-0.4,0-0.7,0.3-0.7,0.7l0,0
		C160.3,84,160.6,84.3,161,84.3z"/>
	<path class="st5" d="M159.6,84.3L159.6,84.3c0.4,0,0.7-0.3,0.7-0.7l0,0c0-0.4-0.3-0.7-0.7-0.7h0c-0.4,0-0.7,0.3-0.7,0.7l0,0
		C158.9,84,159.2,84.3,159.6,84.3z"/>
	<path d="M158.2,84.3L158.2,84.3c0.4,0,0.7-0.3,0.7-0.7l0,0c0-0.4-0.3-0.7-0.7-0.7l0,0c-0.4,0-0.7,0.3-0.7,0.7l0,0
		C157.5,84,157.8,84.3,158.2,84.3z"/>
	<path class="st5" d="M156.8,84.3L156.8,84.3c0.4,0,0.7-0.3,0.7-0.7l0,0c0-0.4-0.3-0.7-0.7-0.7l0,0c-0.4,0-0.7,0.3-0.7,0.7l0,0
		C156.1,84,156.4,84.3,156.8,84.3z"/>
	<path d="M155.3,84.3L155.3,84.3c0.4,0,0.7-0.3,0.7-0.7l0,0c0-0.4-0.3-0.7-0.7-0.7h0c-0.4,0-0.7,0.3-0.7,0.7l0,0
		C154.6,84,155,84.3,155.3,84.3z"/>
	<path class="st5" d="M153.9,84.3L153.9,84.3c0.4,0,0.7-0.3,0.7-0.7l0,0c0-0.4-0.3-0.7-0.7-0.7l0,0c-0.4,0-0.7,0.3-0.7,0.7l0,0
		C153.2,84,153.5,84.3,153.9,84.3z"/>
	<path d="M152.5,84.3L152.5,84.3c0.4,0,0.7-0.3,0.7-0.7l0,0c0-0.4-0.3-0.7-0.7-0.7l0,0c-0.4,0-0.7,0.3-0.7,0.7l0,0
		C151.8,84,152.1,84.3,152.5,84.3z"/>
	<path class="st5" d="M151.1,84.3L151.1,84.3c0.4,0,0.7-0.3,0.7-0.7l0,0c0-0.4-0.3-0.7-0.7-0.7h0c-0.4,0-0.7,0.3-0.7,0.7l0,0
		C150.4,84,150.7,84.3,151.1,84.3z"/>
	<path d="M149.7,84.3L149.7,84.3c0.4,0,0.7-0.3,0.7-0.7l0,0c0-0.4-0.3-0.7-0.7-0.7l0,0c-0.4,0-0.7,0.3-0.7,0.7l0,0
		C149,84,149.3,84.3,149.7,84.3z"/>
	<path class="st5" d="M148.3,84.3L148.3,84.3c0.4,0,0.7-0.3,0.7-0.7l0,0c0-0.4-0.3-0.7-0.7-0.7l0,0c-0.4,0-0.7,0.3-0.7,0.7l0,0
		C147.5,84,147.9,84.3,148.3,84.3z"/>
	<path d="M146.8,84.3L146.8,84.3c0.4,0,0.7-0.3,0.7-0.7l0,0c0-0.4-0.3-0.7-0.7-0.7h0c-0.4,0-0.7,0.3-0.7,0.7l0,0
		C146.1,84,146.5,84.3,146.8,84.3z"/>
	<path class="st5" d="M145.4,84.3L145.4,84.3c0.4,0,0.7-0.3,0.7-0.7l0,0c0-0.4-0.3-0.7-0.7-0.7l0,0c-0.4,0-0.7,0.3-0.7,0.7l0,0
		C144.7,84,145,84.3,145.4,84.3z"/>
	<path d="M144,84.3L144,84.3c0.4,0,0.7-0.3,0.7-0.7l0,0c0-0.4-0.3-0.7-0.7-0.7l0,0c-0.4,0-0.7,0.3-0.7,0.7l0,0
		C143.3,84,143.6,84.3,144,84.3z"/>
	<path class="st5" d="M142.6,84.3L142.6,84.3c0.4,0,0.7-0.3,0.7-0.7l0,0c0-0.4-0.3-0.7-0.7-0.7l0,0c-0.4,0-0.7,0.3-0.7,0.7l0,0
		C141.9,84,142.2,84.3,142.6,84.3z"/>
	<path class="st4" d="M141.2,84.3L141.2,84.3c0.4,0,0.7-0.3,0.7-0.7l0,0c0-0.4-0.3-0.7-0.7-0.7l0,0c-0.4,0-0.7,0.3-0.7,0.7l0,0
		C140.5,84,140.8,84.3,141.2,84.3z"/>
	<path d="M139.8,84.3L139.8,84.3c0.4,0,0.7-0.3,0.7-0.7l0,0c0-0.4-0.3-0.7-0.7-0.7l0,0c-0.4,0-0.7,0.3-0.7,0.7l0,0
		C139,84,139.4,84.3,139.8,84.3z"/>
	<path class="st5" d="M138.3,84.3L138.3,84.3c0.4,0,0.7-0.3,0.7-0.7l0,0c0-0.4-0.3-0.7-0.7-0.7l0,0c-0.4,0-0.7,0.3-0.7,0.7l0,0
		C137.6,84,137.9,84.3,138.3,84.3z"/>
	<path class="st4" d="M136.9,84.3L136.9,84.3c0.4,0,0.7-0.3,0.7-0.7l0,0c0-0.4-0.3-0.7-0.7-0.7l0,0c-0.4,0-0.7,0.3-0.7,0.7l0,0
		C136.2,84,136.5,84.3,136.9,84.3z"/>
	<path d="M135.5,84.3L135.5,84.3c0.4,0,0.7-0.3,0.7-0.7l0,0c0-0.4-0.3-0.7-0.7-0.7l0,0c-0.4,0-0.7,0.3-0.7,0.7l0,0
		C134.8,84,135.1,84.3,135.5,84.3z"/>
	<path class="st5" d="M134.1,84.3L134.1,84.3c0.4,0,0.7-0.3,0.7-0.7l0,0c0-0.4-0.3-0.7-0.7-0.7l0,0c-0.4,0-0.7,0.3-0.7,0.7l0,0
		C133.4,84,133.7,84.3,134.1,84.3z"/>
	<path class="st4" d="M132.7,84.3L132.7,84.3c0.4,0,0.7-0.3,0.7-0.7l0,0c0-0.4-0.3-0.7-0.7-0.7l0,0c-0.4,0-0.7,0.3-0.7,0.7l0,0
		C132,84,132.3,84.3,132.7,84.3z"/>
	<path d="M131.3,84.3L131.3,84.3c0.4,0,0.7-0.3,0.7-0.7l0,0c0-0.4-0.3-0.7-0.7-0.7l0,0c-0.4,0-0.7,0.3-0.7,0.7l0,0
		C130.5,84,130.9,84.3,131.3,84.3z"/>
	<path class="st5" d="M129.8,84.3L129.8,84.3c0.4,0,0.7-0.3,0.7-0.7l0,0c0-0.4-0.3-0.7-0.7-0.7l0,0c-0.4,0-0.7,0.3-0.7,0.7l0,0
		C129.1,84,129.4,84.3,129.8,84.3z"/>
	<path class="st4" d="M128.4,84.3L128.4,84.3c0.4,0,0.7-0.3,0.7-0.7l0,0c0-0.4-0.3-0.7-0.7-0.7l0,0c-0.4,0-0.7,0.3-0.7,0.7l0,0
		C127.7,84,128,84.3,128.4,84.3z"/>
	<path d="M127,84.3L127,84.3c0.4,0,0.7-0.3,0.7-0.7l0,0c0-0.4-0.3-0.7-0.7-0.7l0,0c-0.4,0-0.7,0.3-0.7,0.7l0,0
		C126.3,84,126.6,84.3,127,84.3z"/>
	<path class="st5" d="M125.6,84.3L125.6,84.3c0.4,0,0.7-0.3,0.7-0.7l0,0c0-0.4-0.3-0.7-0.7-0.7l0,0c-0.4,0-0.7,0.3-0.7,0.7l0,0
		C124.9,84,125.2,84.3,125.6,84.3z"/>
	<path class="st4" d="M124.2,84.3L124.2,84.3c0.4,0,0.7-0.3,0.7-0.7l0,0c0-0.4-0.3-0.7-0.7-0.7h0c-0.4,0-0.7,0.3-0.7,0.7l0,0
		C123.5,84,123.8,84.3,124.2,84.3z"/>
	<path class="st3" d="M122.7,84.3L122.7,84.3c0.4,0,0.7-0.3,0.7-0.7l0,0c0-0.4-0.3-0.7-0.7-0.7l0,0c-0.4,0-0.7,0.3-0.7,0.7l0,0
		C122,84,122.4,84.3,122.7,84.3z"/>
	<path d="M121.3,84.3L121.3,84.3c0.4,0,0.7-0.3,0.7-0.7l0,0c0-0.4-0.3-0.7-0.7-0.7l0,0c-0.4,0-0.7,0.3-0.7,0.7l0,0
		C120.6,84,120.9,84.3,121.3,84.3z"/>
	<path class="st5" d="M119.9,84.3L119.9,84.3c0.4,0,0.7-0.3,0.7-0.7l0,0c0-0.4-0.3-0.7-0.7-0.7h0c-0.4,0-0.7,0.3-0.7,0.7l0,0
		C119.2,84,119.5,84.3,119.9,84.3z"/>
	<path class="st4" d="M118.5,84.3L118.5,84.3c0.4,0,0.7-0.3,0.7-0.7l0,0c0-0.4-0.3-0.7-0.7-0.7l0,0c-0.4,0-0.7,0.3-0.7,0.7l0,0
		C117.8,84,118.1,84.3,118.5,84.3z"/>
	<path class="st3" d="M117.1,84.3L117.1,84.3c0.4,0,0.7-0.3,0.7-0.7l0,0c0-0.4-0.3-0.7-0.7-0.7l0,0c-0.4,0-0.7,0.3-0.7,0.7l0,0
		C116.4,84,116.7,84.3,117.1,84.3z"/>
	<path d="M115.7,84.3L115.7,84.3c0.4,0,0.7-0.3,0.7-0.7l0,0c0-0.4-0.3-0.7-0.7-0.7h0c-0.4,0-0.7,0.3-0.7,0.7l0,0
		C115,84,115.3,84.3,115.7,84.3z"/>
	<path class="st5" d="M114.2,84.3L114.2,84.3c0.4,0,0.7-0.3,0.7-0.7l0,0c0-0.4-0.3-0.7-0.7-0.7l0,0c-0.4,0-0.7,0.3-0.7,0.7l0,0
		C113.5,84,113.9,84.3,114.2,84.3z"/>
	<path class="st4" d="M112.8,84.3L112.8,84.3c0.4,0,0.7-0.3,0.7-0.7l0,0c0-0.4-0.3-0.7-0.7-0.7l0,0c-0.4,0-0.7,0.3-0.7,0.7l0,0
		C112.1,84,112.4,84.3,112.8,84.3z"/>
	<path class="st3" d="M111.4,84.3L111.4,84.3c0.4,0,0.7-0.3,0.7-0.7l0,0c0-0.4-0.3-0.7-0.7-0.7h0c-0.4,0-0.7,0.3-0.7,0.7l0,0
		C110.7,84,111,84.3,111.4,84.3z"/>
	<path d="M110,84.3L110,84.3c0.4,0,0.7-0.3,0.7-0.7l0,0c0-0.4-0.3-0.7-0.7-0.7l0,0c-0.4,0-0.7,0.3-0.7,0.7l0,0
		C109.3,84,109.6,84.3,110,84.3z"/>
	<path class="st5" d="M108.6,84.3L108.6,84.3c0.4,0,0.7-0.3,0.7-0.7l0,0c0-0.4-0.3-0.7-0.7-0.7l0,0c-0.4,0-0.7,0.3-0.7,0.7l0,0
		C107.9,84,108.2,84.3,108.6,84.3z"/>
	<path class="st4" d="M107.2,84.3L107.2,84.3c0.4,0,0.7-0.3,0.7-0.7l0,0c0-0.4-0.3-0.7-0.7-0.7h0c-0.4,0-0.7,0.3-0.7,0.7l0,0
		C106.4,84,106.8,84.3,107.2,84.3z"/>
	<path class="st3" d="M105.7,84.3L105.7,84.3c0.4,0,0.7-0.3,0.7-0.7l0,0c0-0.4-0.3-0.7-0.7-0.7l0,0c-0.4,0-0.7,0.3-0.7,0.7l0,0
		C105,84,105.3,84.3,105.7,84.3z"/>
	<path d="M104.3,84.3L104.3,84.3c0.4,0,0.7-0.3,0.7-0.7l0,0c0-0.4-0.3-0.7-0.7-0.7l0,0c-0.4,0-0.7,0.3-0.7,0.7l0,0
		C103.6,84,103.9,84.3,104.3,84.3z"/>
	<path class="st5" d="M102.9,84.3L102.9,84.3c0.4,0,0.7-0.3,0.7-0.7l0,0c0-0.4-0.3-0.7-0.7-0.7h0c-0.4,0-0.7,0.3-0.7,0.7l0,0
		C102.2,84,102.5,84.3,102.9,84.3z"/>
	<path class="st4" d="M101.5,84.3L101.5,84.3c0.4,0,0.7-0.3,0.7-0.7l0,0c0-0.4-0.3-0.7-0.7-0.7l0,0c-0.4,0-0.7,0.3-0.7,0.7l0,0
		C100.8,84,101.1,84.3,101.5,84.3z"/>
	<path class="st3" d="M100.1,84.3L100.1,84.3c0.4,0,0.7-0.3,0.7-0.7l0,0c0-0.4-0.3-0.7-0.7-0.7l0,0c-0.4,0-0.7,0.3-0.7,0.7l0,0
		C99.4,84,99.7,84.3,100.1,84.3z"/>
	<path d="M98.7,84.3L98.7,84.3c0.4,0,0.7-0.3,0.7-0.7l0,0c0-0.4-0.3-0.7-0.7-0.7h0c-0.4,0-0.7,0.3-0.7,0.7l0,0
		C97.9,84,98.3,84.3,98.7,84.3z"/>
	<path class="st5" d="M97.2,84.3L97.2,84.3c0.4,0,0.7-0.3,0.7-0.7l0,0c0-0.4-0.3-0.7-0.7-0.7l0,0c-0.4,0-0.7,0.3-0.7,0.7l0,0
		C96.5,84,96.8,84.3,97.2,84.3z"/>
	<path class="st4" d="M95.8,84.3L95.8,84.3c0.4,0,0.7-0.3,0.7-0.7l0,0c0-0.4-0.3-0.7-0.7-0.7l0,0c-0.4,0-0.7,0.3-0.7,0.7l0,0
		C95.1,84,95.4,84.3,95.8,84.3z"/>
	<path class="st3" d="M94.4,84.3L94.4,84.3c0.4,0,0.7-0.3,0.7-0.7l0,0c0-0.4-0.3-0.7-0.7-0.7l0,0c-0.4,0-0.7,0.3-0.7,0.7l0,0
		C93.7,84,94,84.3,94.4,84.3z"/>
	<path d="M93,84.3L93,84.3c0.4,0,0.7-0.3,0.7-0.7l0,0c0-0.4-0.3-0.7-0.7-0.7l0,0c-0.4,0-0.7,0.3-0.7,0.7l0,0
		C92.3,84,92.6,84.3,93,84.3z"/>
	<path class="st5" d="M91.6,84.3L91.6,84.3c0.4,0,0.7-0.3,0.7-0.7l0,0c0-0.4-0.3-0.7-0.7-0.7l0,0c-0.4,0-0.7,0.3-0.7,0.7l0,0
		C90.9,84,91.2,84.3,91.6,84.3z"/>
	<path class="st4" d="M90.1,84.3L90.1,84.3c0.4,0,0.7-0.3,0.7-0.7l0,0c0-0.4-0.3-0.7-0.7-0.7l0,0c-0.4,0-0.7,0.3-0.7,0.7l0,0
		C89.4,84,89.8,84.3,90.1,84.3z"/>
	<path class="st3" d="M88.7,84.3L88.7,84.3c0.4,0,0.7-0.3,0.7-0.7l0,0c0-0.4-0.3-0.7-0.7-0.7l0,0c-0.4,0-0.7,0.3-0.7,0.7l0,0
		C88,84,88.3,84.3,88.7,84.3z"/>
	<path d="M87.3,84.3L87.3,84.3c0.4,0,0.7-0.3,0.7-0.7l0,0c0-0.4-0.3-0.7-0.7-0.7l0,0c-0.4,0-0.7,0.3-0.7,0.7l0,0
		C86.6,84,86.9,84.3,87.3,84.3z"/>
	<path class="st5" d="M85.9,84.3L85.9,84.3c0.4,0,0.7-0.3,0.7-0.7l0,0c0-0.4-0.3-0.7-0.7-0.7l0,0c-0.4,0-0.7,0.3-0.7,0.7l0,0
		C85.2,84,85.5,84.3,85.9,84.3z"/>
	<path class="st4" d="M84.5,84.3L84.5,84.3c0.4,0,0.7-0.3,0.7-0.7l0,0c0-0.4-0.3-0.7-0.7-0.7l0,0c-0.4,0-0.7,0.3-0.7,0.7l0,0
		C83.8,84,84.1,84.3,84.5,84.3z"/>
	<path class="st3" d="M83.1,84.3L83.1,84.3c0.4,0,0.7-0.3,0.7-0.7l0,0c0-0.4-0.3-0.7-0.7-0.7l0,0c-0.4,0-0.7,0.3-0.7,0.7l0,0
		C82.4,84,82.7,84.3,83.1,84.3z"/>
	<path d="M81.6,84.3L81.6,84.3c0.4,0,0.7-0.3,0.7-0.7l0,0c0-0.4-0.3-0.7-0.7-0.7l0,0c-0.4,0-0.7,0.3-0.7,0.7l0,0
		C80.9,84,81.3,84.3,81.6,84.3z"/>
	<path class="st5" d="M80.2,84.3L80.2,84.3c0.4,0,0.7-0.3,0.7-0.7l0,0c0-0.4-0.3-0.7-0.7-0.7l0,0c-0.4,0-0.7,0.3-0.7,0.7l0,0
		C79.5,84,79.8,84.3,80.2,84.3z"/>
	<path class="st4" d="M78.8,84.3L78.8,84.3c0.4,0,0.7-0.3,0.7-0.7l0,0c0-0.4-0.3-0.7-0.7-0.7l0,0c-0.4,0-0.7,0.3-0.7,0.7l0,0
		C78.1,84,78.4,84.3,78.8,84.3z"/>
	<path class="st3" d="M77.4,84.3L77.4,84.3c0.4,0,0.7-0.3,0.7-0.7l0,0c0-0.4-0.3-0.7-0.7-0.7l0,0c-0.4,0-0.7,0.3-0.7,0.7l0,0
		C76.7,84,77,84.3,77.4,84.3z"/>
	<path d="M76,84.3L76,84.3c0.4,0,0.7-0.3,0.7-0.7l0,0c0-0.4-0.3-0.7-0.7-0.7l0,0c-0.4,0-0.7,0.3-0.7,0.7l0,0
		C75.3,84,75.6,84.3,76,84.3z"/>
	<path class="st5" d="M74.6,84.3L74.6,84.3c0.4,0,0.7-0.3,0.7-0.7l0,0c0-0.4-0.3-0.7-0.7-0.7l0,0c-0.4,0-0.7,0.3-0.7,0.7l0,0
		C73.8,84,74.2,84.3,74.6,84.3z"/>
	<path class="st4" d="M73.1,84.3L73.1,84.3c0.4,0,0.7-0.3,0.7-0.7l0,0c0-0.4-0.3-0.7-0.7-0.7l0,0c-0.4,0-0.7,0.3-0.7,0.7l0,0
		C72.4,84,72.8,84.3,73.1,84.3z"/>
	<path class="st3" d="M71.7,84.3L71.7,84.3c0.4,0,0.7-0.3,0.7-0.7l0,0c0-0.4-0.3-0.7-0.7-0.7l0,0c-0.4,0-0.7,0.3-0.7,0.7l0,0
		C71,84,71.3,84.3,71.7,84.3z"/>
	<path d="M70.3,84.3L70.3,84.3c0.4,0,0.7-0.3,0.7-0.7l0,0c0-0.4-0.3-0.7-0.7-0.7l0,0c-0.4,0-0.7,0.3-0.7,0.7l0,0
		C69.6,84,69.9,84.3,70.3,84.3z"/>
	<path class="st5" d="M68.9,84.3L68.9,84.3c0.4,0,0.7-0.3,0.7-0.7l0,0c0-0.4-0.3-0.7-0.7-0.7l0,0c-0.4,0-0.7,0.3-0.7,0.7l0,0
		C68.2,84,68.5,84.3,68.9,84.3z"/>
	<path class="st4" d="M67.5,84.3L67.5,84.3c0.4,0,0.7-0.3,0.7-0.7l0,0c0-0.4-0.3-0.7-0.7-0.7l0,0c-0.4,0-0.7,0.3-0.7,0.7l0,0
		C66.8,84,67.1,84.3,67.5,84.3z"/>
	<path class="st3" d="M66.1,84.3L66.1,84.3c0.4,0,0.7-0.3,0.7-0.7l0,0c0-0.4-0.3-0.7-0.7-0.7l0,0c-0.4,0-0.7,0.3-0.7,0.7l0,0
		C65.3,84,65.7,84.3,66.1,84.3z"/>
	<path d="M64.6,84.4L64.6,84.4c0.4,0,0.7-0.3,0.7-0.7l0,0c0-0.4-0.3-0.7-0.7-0.7l0,0c-0.4,0-0.7,0.3-0.7,0.7l0,0
		C63.9,84.1,64.2,84.4,64.6,84.4z"/>
	<path class="st5" d="M63.2,84.6L63.2,84.6c0.4,0,0.7-0.3,0.7-0.7l0,0c0-0.4-0.3-0.7-0.7-0.7l0,0c-0.4,0-0.7,0.3-0.7,0.7l0,0
		C62.5,84.3,62.8,84.6,63.2,84.6z"/>
	<path class="st4" d="M61.8,84.8L61.8,84.8c0.4,0,0.7-0.3,0.7-0.7l0,0c0-0.4-0.3-0.7-0.7-0.7l0,0c-0.4,0-0.7,0.3-0.7,0.7l0,0
		C61.1,84.4,61.4,84.8,61.8,84.8z"/>
	<path class="st3" d="M60.4,84.9L60.4,84.9c0.4,0,0.7-0.3,0.7-0.7l0,0c0-0.4-0.3-0.7-0.7-0.7h0c-0.4,0-0.7,0.3-0.7,0.7l0,0
		C59.7,84.6,60,84.9,60.4,84.9z"/>
	<path d="M59,85.2L59,85.2c0.4,0,0.7-0.3,0.7-0.7l0,0c0-0.4-0.3-0.7-0.7-0.7l0,0c-0.4,0-0.7,0.3-0.7,0.7l0,0
		C58.3,84.8,58.6,85.2,59,85.2z"/>
	<path class="st5" d="M57.5,85.6L57.5,85.6c0.4,0,0.7-0.3,0.7-0.7l0,0c0-0.4-0.3-0.7-0.7-0.7l0,0c-0.4,0-0.7,0.3-0.7,0.7l0,0
		C56.8,85.3,57.2,85.6,57.5,85.6z"/>
	<path class="st4" d="M56.1,86L56.1,86c0.4,0,0.7-0.3,0.7-0.7l0,0c0-0.4-0.3-0.7-0.7-0.7h0c-0.4,0-0.7,0.3-0.7,0.7l0,0
		C55.4,85.7,55.7,86,56.1,86z"/>
	<path class="st3" d="M54.7,86.5L54.7,86.5c0.4,0,0.7-0.3,0.7-0.7v0c0-0.4-0.3-0.7-0.7-0.7l0,0c-0.4,0-0.7,0.3-0.7,0.7v0
		C54,86.2,54.3,86.5,54.7,86.5z"/>
	<path d="M53.3,86.9L53.3,86.9c0.4,0,0.7-0.3,0.7-0.7v0c0-0.4-0.3-0.7-0.7-0.7l0,0c-0.4,0-0.7,0.3-0.7,0.7v0
		C52.6,86.6,52.9,86.9,53.3,86.9z"/>
	<path class="st5" d="M51.9,87.4L51.9,87.4c0.4,0,0.7-0.3,0.7-0.7l0,0c0-0.4-0.3-0.7-0.7-0.7h0c-0.4,0-0.7,0.3-0.7,0.7l0,0
		C51.2,87.1,51.5,87.4,51.9,87.4z"/>
	<path class="st4" d="M50.5,88L50.5,88c0.4,0,0.7-0.3,0.7-0.7l0,0c0-0.4-0.3-0.7-0.7-0.7l0,0c-0.4,0-0.7,0.3-0.7,0.7l0,0
		C49.8,87.7,50.1,88,50.5,88z"/>
	<path class="st3" d="M49.2,88.7L49.2,88.7c0.4,0,0.7-0.3,0.7-0.7l0,0c0-0.4-0.3-0.7-0.7-0.7l0,0c-0.4,0-0.7,0.3-0.7,0.7l0,0
		C48.5,88.4,48.8,88.7,49.2,88.7z"/>
	<path d="M48,89.4L48,89.4c0.4,0,0.7-0.3,0.7-0.7l0,0c0-0.4-0.3-0.7-0.7-0.7h0c-0.4,0-0.7,0.3-0.7,0.7l0,0
		C47.3,89.1,47.6,89.4,48,89.4z"/>
	<path class="st5" d="M46.7,90.1L46.7,90.1c0.4,0,0.7-0.3,0.7-0.7l0,0c0-0.4-0.3-0.7-0.7-0.7l0,0c-0.4,0-0.7,0.3-0.7,0.7l0,0
		C46,89.8,46.3,90.1,46.7,90.1z"/>
	<path class="st4" d="M45.5,90.8L45.5,90.8c0.4,0,0.7-0.3,0.7-0.7l0,0c0-0.4-0.3-0.7-0.7-0.7l0,0c-0.4,0-0.7,0.3-0.7,0.7l0,0
		C44.8,90.5,45.1,90.8,45.5,90.8z"/>
	<path class="st3" d="M44.3,91.7L44.3,91.7c0.4,0,0.7-0.3,0.7-0.7l0,0c0-0.4-0.3-0.7-0.7-0.7h0c-0.4,0-0.7,0.3-0.7,0.7l0,0
		C43.6,91.4,44,91.7,44.3,91.7z"/>
	<path d="M43.2,92.5L43.2,92.5c0.4,0,0.7-0.3,0.7-0.7l0,0c0-0.4-0.3-0.7-0.7-0.7l0,0c-0.4,0-0.7,0.3-0.7,0.7l0,0
		C42.5,92.2,42.8,92.5,43.2,92.5z"/>
	<path class="st5" d="M42,93.4L42,93.4c0.4,0,0.7-0.3,0.7-0.7l0,0c0-0.4-0.3-0.7-0.7-0.7l0,0c-0.4,0-0.7,0.3-0.7,0.7l0,0
		C41.3,93.1,41.6,93.4,42,93.4z"/>
	<path class="st4" d="M40.9,94.4L40.9,94.4c0.4,0,0.7-0.3,0.7-0.7l0,0c0-0.4-0.3-0.7-0.7-0.7h0c-0.4,0-0.7,0.3-0.7,0.7l0,0
		C40.2,94.1,40.5,94.4,40.9,94.4z"/>
	<path class="st3" d="M39.8,95.4L39.8,95.4c0.4,0,0.7-0.3,0.7-0.7l0,0c0-0.4-0.3-0.7-0.7-0.7l0,0c-0.4,0-0.7,0.3-0.7,0.7l0,0
		C39.1,95.1,39.4,95.4,39.8,95.4z"/>
	<path d="M38.8,96.4L38.8,96.4c0.4,0,0.7-0.3,0.7-0.7l0,0c0-0.4-0.3-0.7-0.7-0.7l0,0c-0.4,0-0.7,0.3-0.7,0.7l0,0
		C38.1,96,38.4,96.4,38.8,96.4z"/>
	<path class="st5" d="M37.8,97.4L37.8,97.4c0.4,0,0.7-0.3,0.7-0.7l0,0c0-0.4-0.3-0.7-0.7-0.7h0c-0.4,0-0.7,0.3-0.7,0.7l0,0
		C37.1,97.1,37.4,97.4,37.8,97.4z"/>
	<path class="st4" d="M36.8,98.5L36.8,98.5c0.4,0,0.7-0.3,0.7-0.7l0,0c0-0.4-0.3-0.7-0.7-0.7h0c-0.4,0-0.7,0.3-0.7,0.7l0,0
		C36.1,98.2,36.4,98.5,36.8,98.5z"/>
	<path class="st3" d="M35.9,99.6L35.9,99.6c0.4,0,0.7-0.3,0.7-0.7l0,0c0-0.4-0.3-0.7-0.7-0.7l0,0c-0.4,0-0.7,0.3-0.7,0.7l0,0
		C35.2,99.3,35.5,99.6,35.9,99.6z"/>
	<path d="M35,100.8L35,100.8c0.4,0,0.7-0.3,0.7-0.7l0,0c0-0.4-0.3-0.7-0.7-0.7l0,0c-0.4,0-0.7,0.3-0.7,0.7l0,0
		C34.3,100.5,34.6,100.8,35,100.8z"/>
	<path class="st5" d="M34.1,101.9L34.1,101.9c0.4,0,0.7-0.3,0.7-0.7l0,0c0-0.4-0.3-0.7-0.7-0.7h0c-0.4,0-0.7,0.3-0.7,0.7l0,0
		C33.4,101.6,33.8,101.9,34.1,101.9z"/>
	<path class="st4" d="M33.6,103.1L33.6,103.1c0.4-0.2,0.5-0.6,0.3-0.9l0,0c-0.2-0.4-0.6-0.5-0.9-0.3l0,0c-0.4,0.2-0.5,0.6-0.3,0.9v0
		C32.8,103.1,33.2,103.3,33.6,103.1z"/>
	<path class="st3" d="M32.6,104.4L32.6,104.4c0.4,0,0.7-0.3,0.7-0.7l0,0c0-0.4-0.3-0.7-0.7-0.7h0c-0.4,0-0.7,0.3-0.7,0.7l0,0
		C31.9,104.1,32.2,104.4,32.6,104.4z"/>
	<path d="M31.9,105.6L31.9,105.6c0.4,0,0.7-0.3,0.7-0.7l0,0c0-0.4-0.3-0.7-0.7-0.7h0c-0.4,0-0.7,0.3-0.7,0.7l0,0
		C31.1,105.3,31.5,105.6,31.9,105.6z"/>
	<path class="st5" d="M31.1,106.9L31.1,106.9c0.4,0,0.7-0.3,0.7-0.7l0,0c0-0.4-0.3-0.7-0.7-0.7h0c-0.4,0-0.7,0.3-0.7,0.7l0,0
		C30.4,106.5,30.8,106.9,31.1,106.9z"/>
	<path class="st4" d="M30.6,108.3L30.6,108.3c0.4,0,0.7-0.3,0.7-0.7l0,0c0-0.4-0.3-0.7-0.7-0.7h0c-0.4,0-0.7,0.3-0.7,0.7l0,0
		C29.9,108,30.2,108.3,30.6,108.3z"/>
	<path class="st3" d="M30,109.5L30,109.5c0.4,0,0.7-0.3,0.7-0.7l0,0c0-0.4-0.3-0.7-0.7-0.7h0c-0.4,0-0.7,0.3-0.7,0.7l0,0
		C29.3,109.2,29.6,109.5,30,109.5z"/>
	<path d="M29.4,110.8L29.4,110.8c0.4,0,0.7-0.3,0.7-0.7l0,0c0-0.4-0.3-0.7-0.7-0.7h0c-0.4,0-0.7,0.3-0.7,0.7l0,0
		C28.7,110.5,29,110.8,29.4,110.8z"/>
	<path class="st5" d="M29,112.2L29,112.2c0.4,0,0.7-0.3,0.7-0.7l0,0c0-0.4-0.3-0.7-0.7-0.7h0c-0.4,0-0.7,0.3-0.7,0.7l0,0
		C28.3,111.9,28.6,112.2,29,112.2z"/>
	<path class="st4" d="M28.6,113.6L28.6,113.6c0.4,0,0.7-0.3,0.7-0.7l0,0c0-0.4-0.3-0.7-0.7-0.7h0c-0.4,0-0.7,0.3-0.7,0.7l0,0
		C27.9,113.3,28.2,113.6,28.6,113.6z"/>
	<path class="st3" d="M28.2,115.1L28.2,115.1c0.4,0,0.7-0.3,0.7-0.7l0,0c0-0.4-0.3-0.7-0.7-0.7h0c-0.4,0-0.7,0.3-0.7,0.7l0,0
		C27.5,114.7,27.8,115.1,28.2,115.1z"/>
	<path d="M27.9,116.5L27.9,116.5c0.4,0,0.7-0.3,0.7-0.7l0,0c0-0.4-0.3-0.7-0.7-0.7h0c-0.4,0-0.7,0.3-0.7,0.7l0,0
		C27.2,116.2,27.5,116.5,27.9,116.5z"/>
	<path class="st5" d="M27.6,117.9L27.6,117.9c0.4,0,0.7-0.3,0.7-0.7l0,0c0-0.4-0.3-0.7-0.7-0.7h0c-0.4,0-0.7,0.3-0.7,0.7l0,0
		C26.9,117.6,27.2,117.9,27.6,117.9z"/>
	<path class="st4" d="M27.5,119.3L27.5,119.3c0.4,0,0.7-0.3,0.7-0.7l0,0c0-0.4-0.3-0.7-0.7-0.7h0c-0.4,0-0.7,0.3-0.7,0.7l0,0
		C26.8,119,27.1,119.3,27.5,119.3z"/>
	<path class="st3" d="M27.2,120.7L27.2,120.7c0.4,0,0.7-0.3,0.7-0.7l0,0c0-0.4-0.3-0.7-0.7-0.7h0c-0.4,0-0.7,0.3-0.7,0.7l0,0
		C26.5,120.4,26.8,120.7,27.2,120.7z"/>
	<path d="M27.2,122.1L27.2,122.1c0.4,0,0.7-0.3,0.7-0.7l0,0c0-0.4-0.3-0.7-0.7-0.7h0c-0.4,0-0.7,0.3-0.7,0.7l0,0
		C26.5,121.8,26.8,122.1,27.2,122.1z"/>
	<path class="st5" d="M27,123.6L27,123.6c0.4,0,0.7-0.3,0.7-0.7l0,0c0-0.4-0.3-0.7-0.7-0.7h0c-0.4,0-0.7,0.3-0.7,0.7l0,0
		C26.3,123.2,26.6,123.6,27,123.6z"/>
</g>
<text transform="matrix(1 0 0 1 199.4479 63.0637)"><tspan x="0" y="0" class="st1 st2">Предварительный</tspan><tspan x="0" y="14.4" class="st1 st2">нагрев</tspan></text>
<text transform="matrix(1 0 0 1 252.4479 124.0057)" class="st1 st2">Материал</text>
<g>
	<g>
		<path class="st9" d="M237,89.8c6.7,5.4,11.9,12.6,14.7,21"/>
		<g>
			<path d="M237.7,90.5l2.1-0.8l0-0.1l-3.2-0.9c-1-0.5-2-0.9-3-1.4c0.7,0.8,1.5,1.7,2.2,2.5l1.8,2.9l0.1,0L237.7,90.5z"/>
		</g>
	</g>
</g>
<text transform="matrix(1 0 0 1 29.6147 63.0639)"><tspan x="0" y="0" class="st1 st2">Финишный</tspan><tspan x="18.8" y="14.4" class="st1 st2">нагрев</tspan></text>
<text transform="matrix(1 0 0 1 112.0606 101.2373)" class="st1 st2">Зона печати</text>
<rect class="st10" width="306" height="142.9"/>
</svg>
